<?xml version="1.0" encoding="UTF-8" standalone="no"?>
<!DOCTYPE svg PUBLIC "-//W3C//DTD SVG 1.1//EN"
 "http://www.w3.org/Graphics/SVG/1.1/DTD/svg11.dtd">
<!-- Generated by graphviz version 2.40.1 (20161225.0304)
 -->
<!-- Title: %3 Pages: 1 -->
<svg width="865pt" height="688pt"
 viewBox="0.00 0.00 865.00 688.00" xmlns="http://www.w3.org/2000/svg" xmlns:xlink="http://www.w3.org/1999/xlink">
<g id="graph0" class="graph" transform="scale(1 1) rotate(0) translate(4 684)">
<title>%3</title>
<polygon fill="#ffffff" stroke="transparent" points="-4,4 -4,-684 861,-684 861,4 -4,4"/>
<g id="clust1" class="cluster">
<title>cluster_bilibili&#45;</title>
<polygon fill="none" stroke="#000000" points="8,-598 8,-672 569,-672 569,-598 8,-598"/>
<text text-anchor="middle" x="288.5" y="-656.8" font-family="Times,serif" font-size="14.00" fill="#000000">bilibili.com</text>
</g>
<g id="clust2" class="cluster">
<title>cluster_vtbs.moe</title>
<polygon fill="none" stroke="#000000" points="331,-8 331,-241 457,-241 457,-8 331,-8"/>
<text text-anchor="middle" x="394" y="-225.8" font-family="Times,serif" font-size="14.00" fill="#000000">vtbs.moe</text>
</g>
<g id="clust3" class="cluster">
<title>cluster_bilibili&#45;vtuber&#45;danmaku</title>
<polygon fill="none" stroke="#000000" points="250,-273 250,-506 399,-506 399,-273 250,-273"/>
<text text-anchor="middle" x="324.5" y="-490.8" font-family="Times,serif" font-size="14.00" fill="#000000">bilibili&#45;vtuber&#45;danmaku</text>
</g>
<!-- dictionary -->
<g id="node1" class="node">
<title>dictionary</title>
<ellipse fill="none" stroke="#000000" cx="633" cy="-385" rx="45.92" ry="18"/>
<text text-anchor="middle" x="633" y="-380.8" font-family="Times,serif" font-size="14.00" fill="#000000">dictionary</text>
</g>
<!-- nodejieba -->
<g id="node16" class="node">
<title>nodejieba</title>
<ellipse fill="none" stroke="#000000" cx="635" cy="-299" rx="44.4664" ry="18"/>
<text text-anchor="middle" x="635" y="-294.8" font-family="Times,serif" font-size="14.00" fill="#000000">nodejieba</text>
</g>
<!-- dictionary&#45;&gt;nodejieba -->
<g id="edge14" class="edge">
<title>dictionary&#45;&gt;nodejieba</title>
<path fill="none" stroke="#000000" d="M633.4241,-366.7616C633.6893,-355.3597 634.0364,-340.4342 634.3373,-327.494"/>
<polygon fill="#000000" stroke="#000000" points="637.8429,-327.2908 634.5765,-317.2121 630.8448,-327.128 637.8429,-327.2908"/>
</g>
<!-- bili&#45;api -->
<g id="node2" class="node">
<title>bili&#45;api</title>
<ellipse fill="none" stroke="#000000" cx="206" cy="-458" rx="35.7974" ry="18"/>
<text text-anchor="middle" x="206" y="-453.8" font-family="Times,serif" font-size="14.00" fill="#000000">bili&#45;api</text>
</g>
<!-- bilibili&#45;vtuber&#45;videos&#45;danmaku -->
<g id="node7" class="node">
<title>bilibili&#45;vtuber&#45;videos&#45;danmaku</title>
<ellipse fill="none" stroke="#000000" cx="192" cy="-107" rx="120.403" ry="18"/>
<text text-anchor="middle" x="192" y="-102.8" font-family="Times,serif" font-size="14.00" fill="#000000">bilibili&#45;vtuber&#45;videos&#45;danmaku</text>
</g>
<!-- bili&#45;api&#45;&gt;bilibili&#45;vtuber&#45;videos&#45;danmaku -->
<g id="edge10" class="edge">
<title>bili&#45;api&#45;&gt;bilibili&#45;vtuber&#45;videos&#45;danmaku</title>
<path fill="none" stroke="#000000" d="M196.4058,-440.5711C189.3557,-426.1272 181,-404.8264 181,-385 181,-385 181,-385 181,-193 181,-173.6144 183.784,-151.968 186.5509,-135.2419"/>
<polygon fill="#000000" stroke="#000000" points="190.0609,-135.4878 188.3372,-125.0342 183.1657,-134.2812 190.0609,-135.4878"/>
</g>
<!-- api.vtbs.moe -->
<g id="node12" class="node">
<title>api.vtbs.moe</title>
<ellipse fill="none" stroke="#000000" cx="394" cy="-193" rx="55.1008" ry="18"/>
<text text-anchor="middle" x="394" y="-188.8" font-family="Times,serif" font-size="14.00" fill="#000000">api.vtbs.moe</text>
</g>
<!-- bili&#45;api&#45;&gt;api.vtbs.moe -->
<g id="edge5" class="edge">
<title>bili&#45;api&#45;&gt;api.vtbs.moe</title>
<path fill="none" stroke="#000000" d="M204.0298,-439.8992C200.762,-400.3498 198.6905,-305.2724 246,-249 267.522,-223.4007 302.0433,-209.4846 332.3336,-201.9291"/>
<polygon fill="#000000" stroke="#000000" points="333.4614,-205.2609 342.4189,-199.6029 331.8881,-198.44 333.4614,-205.2609"/>
</g>
<!-- bilibili&#45;live&#45;ws -->
<g id="node3" class="node">
<title>bilibili&#45;live&#45;ws</title>
<ellipse fill="none" stroke="#000000" cx="364" cy="-551" rx="62.8425" ry="18"/>
<text text-anchor="middle" x="364" y="-546.8" font-family="Times,serif" font-size="14.00" fill="#000000">bilibili&#45;live&#45;ws</text>
</g>
<!-- bilibili&#45;live&#45;ws&#45;&gt;bili&#45;api -->
<g id="edge4" class="edge">
<title>bilibili&#45;live&#45;ws&#45;&gt;bili&#45;api</title>
<path fill="none" stroke="#000000" d="M324.1304,-536.9269C292.5791,-525.6022 252.7354,-510.8104 246,-506 237.483,-499.9171 229.704,-491.6011 223.3166,-483.5994"/>
<polygon fill="#000000" stroke="#000000" points="226.0084,-481.3559 217.1915,-475.4812 220.4205,-485.572 226.0084,-481.3559"/>
</g>
<!-- vd -->
<g id="node14" class="node">
<title>vd</title>
<ellipse fill="none" stroke="#000000" cx="364" cy="-458" rx="27" ry="18"/>
<text text-anchor="middle" x="364" y="-453.8" font-family="Times,serif" font-size="14.00" fill="#000000">vd</text>
</g>
<!-- bilibili&#45;live&#45;ws&#45;&gt;vd -->
<g id="edge7" class="edge">
<title>bilibili&#45;live&#45;ws&#45;&gt;vd</title>
<path fill="none" stroke="#000000" d="M364,-532.6262C364,-519.4212 364,-501.369 364,-486.3274"/>
<polygon fill="#000000" stroke="#000000" points="367.5001,-486.0192 364,-476.0192 360.5001,-486.0192 367.5001,-486.0192"/>
</g>
<!-- txt_to_csv -->
<g id="node4" class="node">
<title>txt_to_csv</title>
<ellipse fill="none" stroke="#000000" cx="782" cy="-385" rx="46.9064" ry="18"/>
<text text-anchor="middle" x="782" y="-380.8" font-family="Times,serif" font-size="14.00" fill="#000000">txt_to_csv</text>
</g>
<!-- bilibili&#45;live&#45;noscript -->
<g id="node5" class="node">
<title>bilibili&#45;live&#45;noscript</title>
<ellipse fill="none" stroke="#000000" cx="491" cy="-299" rx="81.1681" ry="18"/>
<text text-anchor="middle" x="491" y="-294.8" font-family="Times,serif" font-size="14.00" fill="#000000">bilibili&#45;live&#45;noscript</text>
</g>
<!-- BiliChat -->
<g id="node6" class="node">
<title>BiliChat</title>
<ellipse fill="none" stroke="#000000" cx="671" cy="-551" rx="40.1576" ry="18"/>
<text text-anchor="middle" x="671" y="-546.8" font-family="Times,serif" font-size="14.00" fill="#000000">BiliChat</text>
</g>
<!-- vtbs.moe -->
<g id="node13" class="node">
<title>vtbs.moe</title>
<ellipse fill="none" stroke="#000000" cx="401" cy="-34" rx="42.0717" ry="18"/>
<text text-anchor="middle" x="401" y="-29.8" font-family="Times,serif" font-size="14.00" fill="#000000">vtbs.moe</text>
</g>
<!-- BiliChat&#45;&gt;vtbs.moe -->
<g id="edge21" class="edge">
<title>BiliChat&#45;&gt;vtbs.moe</title>
<path fill="none" stroke="#000000" d="M710.9017,-548.4101C765.5546,-542.4539 857,-522.8052 857,-458 857,-458 857,-458 857,-107 857,-66.4899 572.7779,-44.4439 453.1146,-36.9573"/>
<polygon fill="#000000" stroke="#000000" points="453.2782,-33.4609 443.082,-36.3397 452.8481,-40.4476 453.2782,-33.4609"/>
</g>
<!-- script&#45;anti&#45;back&#45;end -->
<g id="node8" class="node">
<title>script&#45;anti&#45;back&#45;end</title>
<ellipse fill="none" stroke="#000000" cx="488" cy="-385" rx="81.125" ry="18"/>
<text text-anchor="middle" x="488" y="-380.8" font-family="Times,serif" font-size="14.00" fill="#000000">script&#45;anti&#45;back&#45;end</text>
</g>
<!-- script&#45;anti&#45;back&#45;end&#45;&gt;bilibili&#45;live&#45;noscript -->
<g id="edge18" class="edge">
<title>script&#45;anti&#45;back&#45;end&#45;&gt;bilibili&#45;live&#45;noscript</title>
<path fill="none" stroke="#000000" d="M488.6362,-366.7616C489.034,-355.3597 489.5546,-340.4342 490.006,-327.494"/>
<polygon fill="#000000" stroke="#000000" points="493.5138,-327.3281 490.3647,-317.2121 486.5181,-327.084 493.5138,-327.3281"/>
</g>
<!-- api.bilibili.com -->
<g id="node9" class="node">
<title>api.bilibili.com</title>
<ellipse fill="none" stroke="#000000" cx="258" cy="-624" rx="64.2873" ry="18"/>
<text text-anchor="middle" x="258" y="-619.8" font-family="Times,serif" font-size="14.00" fill="#000000">api.bilibili.com</text>
</g>
<!-- api.bilibili.com&#45;&gt;bili&#45;api -->
<g id="edge2" class="edge">
<title>api.bilibili.com&#45;&gt;bili&#45;api</title>
<path fill="none" stroke="#000000" d="M252.3361,-605.9191C243.2473,-576.905 225.3441,-519.7524 214.6484,-485.6085"/>
<polygon fill="#000000" stroke="#000000" points="217.9075,-484.3038 211.5782,-475.8074 211.2276,-486.3964 217.9075,-484.3038"/>
</g>
<!-- api.live.bilibili.com -->
<g id="node10" class="node">
<title>api.live.bilibili.com</title>
<ellipse fill="none" stroke="#000000" cx="96" cy="-624" rx="79.7307" ry="18"/>
<text text-anchor="middle" x="96" y="-619.8" font-family="Times,serif" font-size="14.00" fill="#000000">api.live.bilibili.com</text>
</g>
<!-- api.live.bilibili.com&#45;&gt;bili&#45;api -->
<g id="edge3" class="edge">
<title>api.live.bilibili.com&#45;&gt;bili&#45;api</title>
<path fill="none" stroke="#000000" d="M107.9813,-605.9191C127.5584,-576.3755 166.4681,-517.6572 188.9284,-483.7626"/>
<polygon fill="#000000" stroke="#000000" points="191.9238,-485.5784 194.5301,-475.3091 186.0887,-481.7117 191.9238,-485.5784"/>
</g>
<!-- broadcastlv.chat.bilibili.com -->
<g id="node11" class="node">
<title>broadcastlv.chat.bilibili.com</title>
<ellipse fill="none" stroke="#000000" cx="451" cy="-624" rx="110.4362" ry="18"/>
<text text-anchor="middle" x="451" y="-619.8" font-family="Times,serif" font-size="14.00" fill="#000000">broadcastlv.chat.bilibili.com</text>
</g>
<!-- broadcastlv.chat.bilibili.com&#45;&gt;bilibili&#45;live&#45;ws -->
<g id="edge6" class="edge">
<title>broadcastlv.chat.bilibili.com&#45;&gt;bilibili&#45;live&#45;ws</title>
<path fill="none" stroke="#000000" d="M429.9397,-606.3287C418.6365,-596.8444 404.5497,-585.0245 392.3016,-574.7473"/>
<polygon fill="#000000" stroke="#000000" points="394.4764,-572.0033 384.5661,-568.2566 389.9769,-577.3656 394.4764,-572.0033"/>
</g>
<!-- broadcastlv.chat.bilibili.com&#45;&gt;BiliChat -->
<g id="edge20" class="edge">
<title>broadcastlv.chat.bilibili.com&#45;&gt;BiliChat</title>
<path fill="none" stroke="#000000" d="M499.8251,-607.7989C538.4725,-594.975 591.8921,-577.2494 628.7259,-565.0273"/>
<polygon fill="#000000" stroke="#000000" points="630.2602,-568.2059 638.6491,-561.7346 628.0556,-561.5621 630.2602,-568.2059"/>
</g>
<!-- api.vtbs.moe&#45;&gt;bilibili&#45;vtuber&#45;videos&#45;danmaku -->
<g id="edge9" class="edge">
<title>api.vtbs.moe&#45;&gt;bilibili&#45;vtuber&#45;videos&#45;danmaku</title>
<path fill="none" stroke="#000000" d="M360.1897,-178.6055C327.8163,-164.8228 278.5878,-143.8641 241.7425,-128.1775"/>
<polygon fill="#000000" stroke="#000000" points="242.7542,-124.8043 232.1823,-124.1073 240.0121,-131.2449 242.7542,-124.8043"/>
<text text-anchor="middle" x="337.0776" y="-145.8" font-family="Times,serif" font-size="14.00" fill="#000000">Vtuber List</text>
</g>
<!-- api.vtbs.moe&#45;&gt;vtbs.moe -->
<g id="edge1" class="edge">
<title>api.vtbs.moe&#45;&gt;vtbs.moe</title>
<path fill="none" stroke="#000000" d="M394.803,-174.7607C396.0161,-147.2051 398.3261,-94.735 399.7575,-62.2226"/>
<polygon fill="#000000" stroke="#000000" points="403.2631,-62.1709 400.2064,-52.0266 396.2698,-61.863 403.2631,-62.1709"/>
</g>
<!-- api.vtbs.moe&#45;&gt;vd -->
<g id="edge8" class="edge">
<title>api.vtbs.moe&#45;&gt;vd</title>
<path fill="none" stroke="#000000" d="M391.9632,-210.9916C386.8401,-256.2462 373.3866,-375.085 367.1982,-429.7491"/>
<polygon fill="#000000" stroke="#000000" points="363.7092,-429.4552 366.062,-439.7855 370.6648,-430.2427 363.7092,-429.4552"/>
<text text-anchor="middle" x="409.0776" y="-337.8" font-family="Times,serif" font-size="14.00" fill="#000000">Vtuber List</text>
</g>
<!-- vd&#45;&gt;txt_to_csv -->
<g id="edge16" class="edge">
<title>vd&#45;&gt;txt_to_csv</title>
<path fill="none" stroke="#000000" d="M390.9861,-456.8212C463.2327,-453.4213 659.7099,-442.5059 721,-422 731.6817,-418.4262 742.4718,-412.7226 751.9455,-406.8532"/>
<polygon fill="#000000" stroke="#000000" points="754.1033,-409.625 760.5786,-401.2393 750.2872,-403.7567 754.1033,-409.625"/>
</g>
<!-- vd&#45;&gt;script&#45;anti&#45;back&#45;end -->
<g id="edge17" class="edge">
<title>vd&#45;&gt;script&#45;anti&#45;back&#45;end</title>
<path fill="none" stroke="#000000" d="M384.4761,-445.9455C402.3717,-435.4102 428.8094,-419.8461 450.4879,-407.0837"/>
<polygon fill="#000000" stroke="#000000" points="452.3007,-410.0781 459.1426,-401.9886 448.7494,-404.0458 452.3007,-410.0781"/>
</g>
<!-- vd&#45;&gt;api.vtbs.moe -->
<g id="edge11" class="edge">
<title>vd&#45;&gt;api.vtbs.moe</title>
<path fill="none" stroke="#000000" d="M390.8078,-455.4222C464.9849,-448.0214 668.765,-425.7753 688,-403 725.2799,-358.8584 723.084,-318.9063 688,-273 659.9878,-236.3469 533.6709,-212.5029 456.0073,-201.0281"/>
<polygon fill="#000000" stroke="#000000" points="456.2525,-197.5272 445.854,-199.5573 455.2489,-204.4549 456.2525,-197.5272"/>
<text text-anchor="middle" x="772.145" y="-337.8" font-family="Times,serif" font-size="14.00" fill="#000000">Live danmaku event</text>
</g>
<!-- vdMonster -->
<g id="node15" class="node">
<title>vdMonster</title>
<ellipse fill="none" stroke="#000000" cx="306" cy="-299" rx="48.3514" ry="18"/>
<text text-anchor="middle" x="306" y="-294.8" font-family="Times,serif" font-size="14.00" fill="#000000">vdMonster</text>
</g>
<!-- vd&#45;&gt;vdMonster -->
<g id="edge12" class="edge">
<title>vd&#45;&gt;vdMonster</title>
<path fill="none" stroke="#000000" d="M357.5714,-440.3767C347.5212,-412.8255 328.006,-359.3269 316.0758,-326.6215"/>
<polygon fill="#000000" stroke="#000000" points="319.3507,-325.3859 312.6357,-317.1909 312.7746,-327.7848 319.3507,-325.3859"/>
</g>
<!-- vdMonster&#45;&gt;api.vtbs.moe -->
<g id="edge19" class="edge">
<title>vdMonster&#45;&gt;api.vtbs.moe</title>
<path fill="none" stroke="#000000" d="M274.6625,-285.0796C258.4615,-275.8374 243.8644,-262.8841 253.2822,-249 270.9088,-223.0143 302.7115,-209.0865 331.6289,-201.6215"/>
<polygon fill="#000000" stroke="#000000" points="332.7809,-204.9458 341.709,-199.2414 331.1723,-198.1331 332.7809,-204.9458"/>
<text text-anchor="middle" x="316.3589" y="-251.8" font-family="Times,serif" font-size="14.00" fill="#000000">Live danmaku analyze</text>
</g>
<!-- vdMonster&#45;&gt;nodejieba -->
<g id="edge13" class="edge">
<title>vdMonster&#45;&gt;nodejieba</title>
<path fill="none" stroke="#000000" d="M333.7471,-313.9875C354.1739,-324.1347 382.979,-336.6342 410,-342 480.621,-356.0238 503.2042,-363.24 572,-342 585.2787,-337.9003 598.2578,-329.9356 608.9513,-321.9638"/>
<polygon fill="#000000" stroke="#000000" points="611.2969,-324.572 616.9994,-315.6426 606.9731,-319.067 611.2969,-324.572"/>
</g>
<!-- nodejieba&#45;&gt;api.vtbs.moe -->
<g id="edge15" class="edge">
<title>nodejieba&#45;&gt;api.vtbs.moe</title>
<path fill="none" stroke="#000000" d="M606.5262,-284.9984C598.3222,-281.0437 589.3363,-276.7878 581,-273 532.2474,-250.8481 475.6344,-226.868 437.5815,-210.9989"/>
<polygon fill="#000000" stroke="#000000" points="438.9001,-207.7567 428.3229,-207.1452 436.2101,-214.2192 438.9001,-207.7567"/>
</g>
</g>
</svg>
