<?xml version="1.0" encoding="UTF-8" standalone="no"?>
<!DOCTYPE svg PUBLIC "-//W3C//DTD SVG 1.1//EN"
 "http://www.w3.org/Graphics/SVG/1.1/DTD/svg11.dtd">
<!-- Generated by graphviz version 2.40.1 (20161225.0304)
 -->
<!-- Title: %3 Pages: 1 -->
<svg width="886pt" height="688pt"
 viewBox="0.00 0.00 885.96 688.00" xmlns="http://www.w3.org/2000/svg" xmlns:xlink="http://www.w3.org/1999/xlink">
<g id="graph0" class="graph" transform="scale(1 1) rotate(0) translate(4 684)">
<title>%3</title>
<polygon fill="#ffffff" stroke="transparent" points="-4,4 -4,-684 881.96,-684 881.96,4 -4,4"/>
<g id="clust1" class="cluster">
<title>cluster_bilibili&#45;</title>
<polygon fill="none" stroke="#000000" points="308.96,-598 308.96,-672 869.96,-672 869.96,-598 308.96,-598"/>
<text text-anchor="middle" x="589.46" y="-656.8" font-family="Times,serif" font-size="14.00" fill="#000000">bilibili.com</text>
</g>
<g id="clust2" class="cluster">
<title>cluster_vtbs.moe</title>
<polygon fill="none" stroke="#000000" points="182.96,-8 182.96,-241 308.96,-241 308.96,-8 182.96,-8"/>
<text text-anchor="middle" x="245.96" y="-225.8" font-family="Times,serif" font-size="14.00" fill="#000000">vtbs.moe</text>
</g>
<g id="clust3" class="cluster">
<title>cluster_bilibili&#45;vtuber&#45;danmaku</title>
<polygon fill="none" stroke="#000000" points="108.96,-273 108.96,-506 257.96,-506 257.96,-273 108.96,-273"/>
<text text-anchor="middle" x="183.46" y="-490.8" font-family="Times,serif" font-size="14.00" fill="#000000">bilibili&#45;vtuber&#45;danmaku</text>
</g>
<!-- dictionary -->
<g id="node1" class="node">
<title>dictionary</title>
<ellipse fill="none" stroke="#000000" cx="45.96" cy="-299" rx="45.92" ry="18"/>
<text text-anchor="middle" x="45.96" y="-294.8" font-family="Times,serif" font-size="14.00" fill="#000000">dictionary</text>
</g>
<!-- nodejieba -->
<g id="node15" class="node">
<title>nodejieba</title>
<ellipse fill="none" stroke="#000000" cx="70.96" cy="-193" rx="44.4664" ry="18"/>
<text text-anchor="middle" x="70.96" y="-188.8" font-family="Times,serif" font-size="14.00" fill="#000000">nodejieba</text>
</g>
<!-- dictionary&#45;&gt;nodejieba -->
<g id="edge13" class="edge">
<title>dictionary&#45;&gt;nodejieba</title>
<path fill="none" stroke="#000000" d="M50.2009,-281.0185C54.0798,-264.5721 59.8792,-239.9826 64.3631,-220.9708"/>
<polygon fill="#000000" stroke="#000000" points="67.8092,-221.6061 66.6983,-211.0697 60.9962,-219.9992 67.8092,-221.6061"/>
</g>
<!-- bili&#45;api -->
<g id="node2" class="node">
<title>bili&#45;api</title>
<ellipse fill="none" stroke="#000000" cx="601.96" cy="-458" rx="35.7974" ry="18"/>
<text text-anchor="middle" x="601.96" y="-453.8" font-family="Times,serif" font-size="14.00" fill="#000000">bili&#45;api</text>
</g>
<!-- api.vtbs.moe -->
<g id="node11" class="node">
<title>api.vtbs.moe</title>
<ellipse fill="none" stroke="#000000" cx="245.96" cy="-193" rx="55.1008" ry="18"/>
<text text-anchor="middle" x="245.96" y="-188.8" font-family="Times,serif" font-size="14.00" fill="#000000">api.vtbs.moe</text>
</g>
<!-- bili&#45;api&#45;&gt;api.vtbs.moe -->
<g id="edge5" class="edge">
<title>bili&#45;api&#45;&gt;api.vtbs.moe</title>
<path fill="none" stroke="#000000" d="M599.9715,-439.7555C594.949,-402.7172 578.3313,-318.3836 527.96,-273 495.1906,-243.4753 377.4993,-217.2541 304.9186,-203.3999"/>
<polygon fill="#000000" stroke="#000000" points="305.4654,-199.9414 294.9901,-201.5281 304.1685,-206.8203 305.4654,-199.9414"/>
</g>
<!-- bilibili&#45;live&#45;ws -->
<g id="node3" class="node">
<title>bilibili&#45;live&#45;ws</title>
<ellipse fill="none" stroke="#000000" cx="533.96" cy="-551" rx="62.8425" ry="18"/>
<text text-anchor="middle" x="533.96" y="-546.8" font-family="Times,serif" font-size="14.00" fill="#000000">bilibili&#45;live&#45;ws</text>
</g>
<!-- bilibili&#45;live&#45;ws&#45;&gt;bili&#45;api -->
<g id="edge4" class="edge">
<title>bilibili&#45;live&#45;ws&#45;&gt;bili&#45;api</title>
<path fill="none" stroke="#000000" d="M547.0711,-533.0687C557.4263,-518.9064 572.0022,-498.9717 583.5312,-483.204"/>
<polygon fill="#000000" stroke="#000000" points="586.4996,-485.0742 589.5767,-474.936 580.849,-480.9425 586.4996,-485.0742"/>
</g>
<!-- vd -->
<g id="node13" class="node">
<title>vd</title>
<ellipse fill="none" stroke="#000000" cx="222.96" cy="-458" rx="27" ry="18"/>
<text text-anchor="middle" x="222.96" y="-453.8" font-family="Times,serif" font-size="14.00" fill="#000000">vd</text>
</g>
<!-- bilibili&#45;live&#45;ws&#45;&gt;vd -->
<g id="edge7" class="edge">
<title>bilibili&#45;live&#45;ws&#45;&gt;vd</title>
<path fill="none" stroke="#000000" d="M490.3893,-537.9708C427.9392,-519.296 314.2515,-485.2994 257.341,-468.2811"/>
<polygon fill="#000000" stroke="#000000" points="258.3111,-464.9181 247.7275,-465.4064 256.3055,-471.6247 258.3111,-464.9181"/>
</g>
<!-- txt_to_csv -->
<g id="node4" class="node">
<title>txt_to_csv</title>
<ellipse fill="none" stroke="#000000" cx="426.96" cy="-385" rx="46.9064" ry="18"/>
<text text-anchor="middle" x="426.96" y="-380.8" font-family="Times,serif" font-size="14.00" fill="#000000">txt_to_csv</text>
</g>
<!-- bilibili&#45;live&#45;noscript -->
<g id="node5" class="node">
<title>bilibili&#45;live&#45;noscript</title>
<ellipse fill="none" stroke="#000000" cx="437.96" cy="-299" rx="81.1681" ry="18"/>
<text text-anchor="middle" x="437.96" y="-294.8" font-family="Times,serif" font-size="14.00" fill="#000000">bilibili&#45;live&#45;noscript</text>
</g>
<!-- txt_to_csv&#45;&gt;bilibili&#45;live&#45;noscript -->
<g id="edge16" class="edge">
<title>txt_to_csv&#45;&gt;bilibili&#45;live&#45;noscript</title>
<path fill="none" stroke="#000000" d="M429.2928,-366.7616C430.7512,-355.3597 432.6603,-340.4342 434.3154,-327.494"/>
<polygon fill="#000000" stroke="#000000" points="437.8334,-327.5754 435.6305,-317.2121 430.89,-326.6872 437.8334,-327.5754"/>
</g>
<!-- BiliChat -->
<g id="node6" class="node">
<title>BiliChat</title>
<ellipse fill="none" stroke="#000000" cx="412.96" cy="-551" rx="40.1576" ry="18"/>
<text text-anchor="middle" x="412.96" y="-546.8" font-family="Times,serif" font-size="14.00" fill="#000000">BiliChat</text>
</g>
<!-- vtbs.moe -->
<g id="node12" class="node">
<title>vtbs.moe</title>
<ellipse fill="none" stroke="#000000" cx="255.96" cy="-34" rx="42.0717" ry="18"/>
<text text-anchor="middle" x="255.96" y="-29.8" font-family="Times,serif" font-size="14.00" fill="#000000">vtbs.moe</text>
</g>
<!-- BiliChat&#45;&gt;vtbs.moe -->
<g id="edge19" class="edge">
<title>BiliChat&#45;&gt;vtbs.moe</title>
<path fill="none" stroke="#000000" d="M431.0419,-534.7069C475.2023,-493.0264 584.96,-377.2375 584.96,-256 584.96,-256 584.96,-256 584.96,-107 584.96,-95.3678 576.3468,-94.2368 565.96,-89 521.501,-66.5847 383.324,-48.2188 307.3327,-39.4907"/>
<polygon fill="#000000" stroke="#000000" points="307.3696,-35.9726 297.039,-38.3237 306.581,-42.928 307.3696,-35.9726"/>
</g>
<!-- bilibili&#45;vtuber&#45;videos&#45;danmaku -->
<g id="node7" class="node">
<title>bilibili&#45;vtuber&#45;videos&#45;danmaku</title>
<ellipse fill="none" stroke="#000000" cx="436.96" cy="-107" rx="120.403" ry="18"/>
<text text-anchor="middle" x="436.96" y="-102.8" font-family="Times,serif" font-size="14.00" fill="#000000">bilibili&#45;vtuber&#45;videos&#45;danmaku</text>
</g>
<!-- api.bilibili.com -->
<g id="node8" class="node">
<title>api.bilibili.com</title>
<ellipse fill="none" stroke="#000000" cx="619.96" cy="-624" rx="64.2873" ry="18"/>
<text text-anchor="middle" x="619.96" y="-619.8" font-family="Times,serif" font-size="14.00" fill="#000000">api.bilibili.com</text>
</g>
<!-- api.bilibili.com&#45;&gt;bili&#45;api -->
<g id="edge2" class="edge">
<title>api.bilibili.com&#45;&gt;bili&#45;api</title>
<path fill="none" stroke="#000000" d="M617.9994,-605.9191C614.8751,-577.1059 608.7417,-520.5425 605.0309,-486.321"/>
<polygon fill="#000000" stroke="#000000" points="608.4759,-485.623 603.9182,-476.0586 601.5167,-486.3777 608.4759,-485.623"/>
</g>
<!-- api.live.bilibili.com -->
<g id="node9" class="node">
<title>api.live.bilibili.com</title>
<ellipse fill="none" stroke="#000000" cx="781.96" cy="-624" rx="79.7307" ry="18"/>
<text text-anchor="middle" x="781.96" y="-619.8" font-family="Times,serif" font-size="14.00" fill="#000000">api.live.bilibili.com</text>
</g>
<!-- api.live.bilibili.com&#45;&gt;bili&#45;api -->
<g id="edge3" class="edge">
<title>api.live.bilibili.com&#45;&gt;bili&#45;api</title>
<path fill="none" stroke="#000000" d="M762.6968,-606.2351C729.8977,-575.987 663.2383,-514.5122 626.9169,-481.0158"/>
<polygon fill="#000000" stroke="#000000" points="628.9482,-478.128 619.2243,-473.9215 624.2026,-483.2738 628.9482,-478.128"/>
</g>
<!-- broadcastlv.chat.bilibili.com -->
<g id="node10" class="node">
<title>broadcastlv.chat.bilibili.com</title>
<ellipse fill="none" stroke="#000000" cx="426.96" cy="-624" rx="110.4362" ry="18"/>
<text text-anchor="middle" x="426.96" y="-619.8" font-family="Times,serif" font-size="14.00" fill="#000000">broadcastlv.chat.bilibili.com</text>
</g>
<!-- broadcastlv.chat.bilibili.com&#45;&gt;bilibili&#45;live&#45;ws -->
<g id="edge6" class="edge">
<title>broadcastlv.chat.bilibili.com&#45;&gt;bilibili&#45;live&#45;ws</title>
<path fill="none" stroke="#000000" d="M452.8617,-606.3287C467.3693,-596.431 485.6053,-583.9896 501.1086,-573.4126"/>
<polygon fill="#000000" stroke="#000000" points="503.1113,-576.2833 509.3994,-567.7563 499.1663,-570.5008 503.1113,-576.2833"/>
</g>
<!-- broadcastlv.chat.bilibili.com&#45;&gt;BiliChat -->
<g id="edge18" class="edge">
<title>broadcastlv.chat.bilibili.com&#45;&gt;BiliChat</title>
<path fill="none" stroke="#000000" d="M423.4993,-605.9551C421.9512,-597.8828 420.0897,-588.1764 418.3647,-579.1817"/>
<polygon fill="#000000" stroke="#000000" points="421.7503,-578.2521 416.4294,-569.0904 414.8756,-579.5706 421.7503,-578.2521"/>
</g>
<!-- api.vtbs.moe&#45;&gt;bilibili&#45;vtuber&#45;videos&#45;danmaku -->
<g id="edge9" class="edge">
<title>api.vtbs.moe&#45;&gt;bilibili&#45;vtuber&#45;videos&#45;danmaku</title>
<path fill="none" stroke="#000000" d="M278.3605,-178.4113C308.8109,-164.7006 354.7529,-144.0147 389.3652,-128.4301"/>
<polygon fill="#000000" stroke="#000000" points="391.1236,-131.4769 398.8049,-124.1798 388.2496,-125.094 391.1236,-131.4769"/>
<text text-anchor="middle" x="384.0376" y="-145.8" font-family="Times,serif" font-size="14.00" fill="#000000">Vtuber List</text>
</g>
<!-- api.vtbs.moe&#45;&gt;vtbs.moe -->
<g id="edge1" class="edge">
<title>api.vtbs.moe&#45;&gt;vtbs.moe</title>
<path fill="none" stroke="#000000" d="M247.1071,-174.7607C248.8402,-147.2051 252.1402,-94.735 254.185,-62.2226"/>
<polygon fill="#000000" stroke="#000000" points="257.6916,-62.2266 254.8262,-52.0266 250.7054,-61.7872 257.6916,-62.2266"/>
</g>
<!-- api.vtbs.moe&#45;&gt;vd -->
<g id="edge8" class="edge">
<title>api.vtbs.moe&#45;&gt;vd</title>
<path fill="none" stroke="#000000" d="M265.8095,-210.2687C295.7246,-238.5096 346.7702,-296.6782 325.96,-349 310.8313,-387.0371 275.4341,-419.4668 250.3713,-438.8293"/>
<polygon fill="#000000" stroke="#000000" points="248.205,-436.0791 242.3122,-444.884 252.4096,-441.6757 248.205,-436.0791"/>
<text text-anchor="middle" x="361.0376" y="-337.8" font-family="Times,serif" font-size="14.00" fill="#000000">Vtuber List</text>
</g>
<!-- vd&#45;&gt;txt_to_csv -->
<g id="edge15" class="edge">
<title>vd&#45;&gt;txt_to_csv</title>
<path fill="none" stroke="#000000" d="M249.2351,-453.349C277.6863,-447.8223 324.0775,-437.371 361.96,-422 372.8303,-417.5893 384.1235,-411.6837 394.1872,-405.8876"/>
<polygon fill="#000000" stroke="#000000" points="396.2193,-408.7518 403.0364,-400.6414 392.6496,-402.7304 396.2193,-408.7518"/>
</g>
<!-- vd&#45;&gt;api.vtbs.moe -->
<g id="edge10" class="edge">
<title>vd&#45;&gt;api.vtbs.moe</title>
<path fill="none" stroke="#000000" d="M219.6416,-439.9521C215.8617,-418.3995 209.9185,-381.2156 207.67,-349 207.2367,-342.7929 205.6213,-340.8753 207.67,-335 211.033,-325.355 217.6917,-326.28 221.96,-317 236.1507,-286.1471 241.9552,-247.2409 244.3267,-221.3177"/>
<polygon fill="#000000" stroke="#000000" points="247.8383,-221.3113 245.1473,-211.064 240.8606,-220.7528 247.8383,-221.3113"/>
<text text-anchor="middle" x="265.105" y="-337.8" font-family="Times,serif" font-size="14.00" fill="#000000">Live danmaku event</text>
</g>
<!-- vdMonster -->
<g id="node14" class="node">
<title>vdMonster</title>
<ellipse fill="none" stroke="#000000" cx="164.96" cy="-299" rx="48.3514" ry="18"/>
<text text-anchor="middle" x="164.96" y="-294.8" font-family="Times,serif" font-size="14.00" fill="#000000">vdMonster</text>
</g>
<!-- vd&#45;&gt;vdMonster -->
<g id="edge11" class="edge">
<title>vd&#45;&gt;vdMonster</title>
<path fill="none" stroke="#000000" d="M209.6899,-442.3151C205.1174,-436.275 200.3095,-429.1148 196.96,-422 182.4864,-391.2565 173.8463,-352.9903 169.2589,-327.3776"/>
<polygon fill="#000000" stroke="#000000" points="172.6612,-326.5068 167.5358,-317.2342 165.7601,-327.6792 172.6612,-326.5068"/>
</g>
<!-- vdMonster&#45;&gt;api.vtbs.moe -->
<g id="edge17" class="edge">
<title>vdMonster&#45;&gt;api.vtbs.moe</title>
<path fill="none" stroke="#000000" d="M130.6802,-286.1736C112.1623,-277.1854 94.9949,-264.1069 105.2422,-249 105.9746,-247.9204 159.9255,-226.6395 200.8009,-210.6304"/>
<polygon fill="#000000" stroke="#000000" points="202.3089,-213.7988 210.3454,-206.8949 199.7576,-207.2803 202.3089,-213.7988"/>
<text text-anchor="middle" x="169.3189" y="-251.8" font-family="Times,serif" font-size="14.00" fill="#000000">Live danmaku analyze</text>
</g>
<!-- vdMonster&#45;&gt;nodejieba -->
<g id="edge12" class="edge">
<title>vdMonster&#45;&gt;nodejieba</title>
<path fill="none" stroke="#000000" d="M130.9573,-286.0618C119.591,-280.3894 107.6248,-272.761 98.96,-263 88.5043,-251.2216 81.6916,-235.0505 77.4072,-221.2184"/>
<polygon fill="#000000" stroke="#000000" points="80.6713,-219.8947 74.6053,-211.2083 73.9304,-221.7816 80.6713,-219.8947"/>
</g>
<!-- nodejieba&#45;&gt;api.vtbs.moe -->
<g id="edge14" class="edge">
<title>nodejieba&#45;&gt;api.vtbs.moe</title>
<path fill="none" stroke="#000000" d="M115.7354,-193C137.2534,-193 158.7713,-193 180.2893,-193"/>
<polygon fill="#000000" stroke="#000000" points="180.5128,-196.5001 190.5128,-193 180.5128,-189.5001 180.5128,-196.5001"/>
</g>
</g>
</svg>
