<?xml version="1.0" encoding="UTF-8" standalone="no"?>
<!DOCTYPE svg PUBLIC "-//W3C//DTD SVG 1.1//EN"
 "http://www.w3.org/Graphics/SVG/1.1/DTD/svg11.dtd">
<!-- Generated by graphviz version 2.40.1 (20161225.0304)
 -->
<!-- Title: %3 Pages: 1 -->
<svg width="1532pt" height="899pt"
 viewBox="0.00 0.00 1532.38 899.00" xmlns="http://www.w3.org/2000/svg" xmlns:xlink="http://www.w3.org/1999/xlink">
<g id="graph0" class="graph" transform="scale(1 1) rotate(0) translate(4 895)">
<title>%3</title>
<polygon fill="#ffffff" stroke="transparent" points="-4,4 -4,-895 1528.3794,-895 1528.3794,4 -4,4"/>
<g id="clust1" class="cluster">
<title>cluster_bilibili_package</title>
<polygon fill="none" stroke="#000000" points="620,-354 620,-790 1295,-790 1295,-354 620,-354"/>
<text text-anchor="middle" x="957.5" y="-774.8" font-family="Times,serif" font-size="14.00" fill="#000000">Extenal</text>
</g>
<g id="clust2" class="cluster">
<title>cluster_bilibili&#45;</title>
<polygon fill="none" stroke="#000000" points="727,-686 727,-760 1287,-760 1287,-686 727,-686"/>
<text text-anchor="middle" x="1007" y="-744.8" font-family="Times,serif" font-size="14.00" fill="#000000">bilibili.com</text>
</g>
<g id="clust3" class="cluster">
<title>cluster_vtbs.moe</title>
<polygon fill="none" stroke="#000000" points="23,-8 23,-428 283,-428 283,-8 23,-8"/>
<text text-anchor="middle" x="153" y="-412.8" font-family="Times,serif" font-size="14.00" fill="#000000">vtbs.moe</text>
</g>
<g id="clust4" class="cluster">
<title>cluster_open_api</title>
<polygon fill="none" stroke="#000000" points="31,-16 31,-90 183,-90 183,-16 31,-16"/>
<text text-anchor="middle" x="107" y="-74.8" font-family="Times,serif" font-size="14.00" fill="#000000">api.vtbs.moe Public API</text>
</g>
<g id="clust5" class="cluster">
<title>cluster_bilibili&#45;vtuber&#45;danmaku</title>
<polygon fill="none" stroke="#000000" points="1273,-809 1273,-883 1479,-883 1479,-809 1273,-809"/>
<text text-anchor="middle" x="1376" y="-867.8" font-family="Times,serif" font-size="14.00" fill="#000000">bilibili&#45;vtuber&#45;danmaku (inactive)</text>
</g>
<g id="clust6" class="cluster">
<title>cluster_bilibili&#45;vtuber&#45;danmaku&#45;relay</title>
<polygon fill="none" stroke="#000000" points="241,-447 241,-521 448,-521 448,-447 241,-447"/>
<text text-anchor="middle" x="344.5" y="-505.8" font-family="Times,serif" font-size="14.00" fill="#000000">bilibili&#45;vtuber&#45;live&#45;danmaku&#45;relay</text>
</g>
<g id="clust7" class="cluster">
<title>cluster_influx&#45;bilibili&#45;vtuber&#45;danmaku</title>
<polygon fill="none" stroke="#000000" points="457,-268 457,-521 612,-521 612,-268 457,-268"/>
<text text-anchor="middle" x="534.5" y="-505.8" font-family="Times,serif" font-size="14.00" fill="#000000">influx&#45;danmaku&#45;recorder</text>
</g>
<!-- dictionary -->
<g id="node1" class="node">
<title>dictionary</title>
<polygon fill="none" stroke="#000000" points="708.2592,-853 635.7408,-853 635.7408,-817 708.2592,-817 708.2592,-853"/>
<text text-anchor="middle" x="672" y="-830.8" font-family="Times,serif" font-size="14.00" fill="#000000">dictionary</text>
</g>
<!-- nodejieba -->
<g id="node11" class="node">
<title>nodejieba</title>
<ellipse fill="none" stroke="#000000" cx="672" cy="-712" rx="44.4664" ry="18"/>
<text text-anchor="middle" x="672" y="-707.8" font-family="Times,serif" font-size="14.00" fill="#000000">nodejieba</text>
</g>
<!-- dictionary&#45;&gt;nodejieba -->
<g id="edge20" class="edge">
<title>dictionary&#45;&gt;nodejieba</title>
<path fill="none" stroke="#000000" d="M672,-816.8509C672,-796.6843 672,-763.8643 672,-740.3133"/>
<polygon fill="#000000" stroke="#000000" points="675.5001,-740.2235 672,-730.2235 668.5001,-740.2236 675.5001,-740.2235"/>
</g>
<!-- txt_to_csv -->
<g id="node2" class="node">
<title>txt_to_csv</title>
<polygon fill="none" stroke="#000000" points="1377.3318,-730 1302.6682,-730 1302.6682,-694 1377.3318,-694 1377.3318,-730"/>
<text text-anchor="middle" x="1340" y="-707.8" font-family="Times,serif" font-size="14.00" fill="#000000">txt_to_csv</text>
</g>
<!-- vdb -->
<g id="node3" class="node">
<title>vdb</title>
<polygon fill="none" stroke="#000000" points="390,-398 336,-398 336,-362 390,-362 390,-398"/>
<text text-anchor="middle" x="363" y="-375.8" font-family="Times,serif" font-size="14.00" fill="#000000">vdb</text>
</g>
<!-- api.vtb.wiki -->
<g id="node7" class="node">
<title>api.vtb.wiki</title>
<polygon fill="none" stroke="#000000" points="373.3829,-312 290.6171,-312 290.6171,-276 373.3829,-276 373.3829,-312"/>
<text text-anchor="middle" x="332" y="-289.8" font-family="Times,serif" font-size="14.00" fill="#000000">api.vtb.wiki</text>
</g>
<!-- vdb&#45;&gt;api.vtb.wiki -->
<g id="edge1" class="edge">
<title>vdb&#45;&gt;api.vtb.wiki</title>
<path fill="none" stroke="#000000" stroke-dasharray="1,5" d="M356.4257,-361.7616C352.2335,-350.1316 346.7199,-334.8357 341.9921,-321.72"/>
<polygon fill="#000000" stroke="#000000" points="345.2486,-320.4327 338.5648,-312.2121 338.6633,-322.8065 345.2486,-320.4327"/>
</g>
<!-- api.vtbs.moe -->
<g id="node15" class="node">
<title>api.vtbs.moe</title>
<ellipse fill="none" stroke="#000000" cx="220" cy="-221" rx="55.1008" ry="18"/>
<text text-anchor="middle" x="220" y="-216.8" font-family="Times,serif" font-size="14.00" fill="#000000">api.vtbs.moe</text>
</g>
<!-- vdb&#45;&gt;api.vtbs.moe -->
<g id="edge17" class="edge">
<title>vdb&#45;&gt;api.vtbs.moe</title>
<path fill="none" stroke="#000000" d="M373.7282,-361.7458C386.2382,-337.801 402.728,-295.5964 382,-268 369.4892,-251.3436 320.8506,-238.6846 280.1035,-230.7243"/>
<polygon fill="#000000" stroke="#000000" points="280.6866,-227.2726 270.2101,-228.8515 279.3846,-234.1505 280.6866,-227.2726"/>
</g>
<!-- bilibili&#45;live&#45;noscript -->
<g id="node4" class="node">
<title>bilibili&#45;live&#45;noscript</title>
<polygon fill="none" stroke="#000000" points="1524.259,-657 1395.741,-657 1395.741,-621 1524.259,-621 1524.259,-657"/>
<text text-anchor="middle" x="1460" y="-634.8" font-family="Times,serif" font-size="14.00" fill="#000000">bilibili&#45;live&#45;noscript</text>
</g>
<!-- bilibili&#45;vtuber&#45;videos&#45;danmaku -->
<g id="node5" class="node">
<title>bilibili&#45;vtuber&#45;videos&#45;danmaku</title>
<polygon fill="none" stroke="#000000" points="668.1858,-153 477.8142,-153 477.8142,-117 668.1858,-117 668.1858,-153"/>
<text text-anchor="middle" x="573" y="-130.8" font-family="Times,serif" font-size="14.00" fill="#000000">bilibili&#45;vtuber&#45;videos&#45;danmaku</text>
</g>
<!-- script&#45;anti&#45;back&#45;end -->
<g id="node6" class="node">
<title>script&#45;anti&#45;back&#45;end</title>
<polygon fill="none" stroke="#000000" points="1524.2249,-730 1395.7751,-730 1395.7751,-694 1524.2249,-694 1524.2249,-730"/>
<text text-anchor="middle" x="1460" y="-707.8" font-family="Times,serif" font-size="14.00" fill="#000000">script&#45;anti&#45;back&#45;end</text>
</g>
<!-- script&#45;anti&#45;back&#45;end&#45;&gt;bilibili&#45;live&#45;noscript -->
<g id="edge25" class="edge">
<title>script&#45;anti&#45;back&#45;end&#45;&gt;bilibili&#45;live&#45;noscript</title>
<path fill="none" stroke="#000000" d="M1460,-693.9551C1460,-685.8828 1460,-676.1764 1460,-667.1817"/>
<polygon fill="#000000" stroke="#000000" points="1463.5001,-667.0903 1460,-657.0904 1456.5001,-667.0904 1463.5001,-667.0903"/>
</g>
<!-- api.vtb.wiki&#45;&gt;api.vtbs.moe -->
<g id="edge19" class="edge">
<title>api.vtb.wiki&#45;&gt;api.vtbs.moe</title>
<path fill="none" stroke="#000000" d="M304.3146,-275.9551C289.0108,-265.9802 269.8784,-253.51 253.709,-242.971"/>
<polygon fill="#000000" stroke="#000000" points="255.3627,-239.8711 245.074,-237.3429 251.5404,-245.7355 255.3627,-239.8711"/>
</g>
<!-- bili&#45;api -->
<g id="node8" class="node">
<title>bili&#45;api</title>
<ellipse fill="none" stroke="#000000" cx="780" cy="-380" rx="35.7974" ry="18"/>
<text text-anchor="middle" x="780" y="-375.8" font-family="Times,serif" font-size="14.00" fill="#000000">bili&#45;api</text>
</g>
<!-- bili&#45;api&#45;&gt;bilibili&#45;vtuber&#45;videos&#45;danmaku -->
<g id="edge14" class="edge">
<title>bili&#45;api&#45;&gt;bilibili&#45;vtuber&#45;videos&#45;danmaku</title>
<path fill="none" stroke="#000000" d="M765.7721,-363.1602C730.2967,-321.1724 637.7198,-211.6007 595.0829,-161.1368"/>
<polygon fill="#000000" stroke="#000000" points="597.5723,-158.66 588.4449,-153.2802 592.2253,-163.1777 597.5723,-158.66"/>
</g>
<!-- bili&#45;api&#45;&gt;api.vtbs.moe -->
<g id="edge9" class="edge">
<title>bili&#45;api&#45;&gt;api.vtbs.moe</title>
<path fill="none" stroke="#000000" d="M751.1568,-369.0625C735.9704,-362.726 717.364,-354.0238 702,-344 659.2796,-316.1281 661.0761,-291.8751 616,-268 560.1605,-238.4239 382.6127,-227.1296 285.3149,-223.0831"/>
<polygon fill="#000000" stroke="#000000" points="285.428,-219.5849 275.2955,-222.6802 285.1467,-226.5793 285.428,-219.5849"/>
</g>
<!-- bilibili&#45;live&#45;ws -->
<g id="node9" class="node">
<title>bilibili&#45;live&#45;ws</title>
<ellipse fill="none" stroke="#000000" cx="862" cy="-566" rx="62.8425" ry="18"/>
<text text-anchor="middle" x="862" y="-561.8" font-family="Times,serif" font-size="14.00" fill="#000000">bilibili&#45;live&#45;ws</text>
</g>
<!-- bilibili&#45;live&#45;ws&#45;&gt;bili&#45;api -->
<g id="edge8" class="edge">
<title>bilibili&#45;live&#45;ws&#45;&gt;bili&#45;api</title>
<path fill="none" stroke="#000000" d="M853.9882,-547.8269C839.5237,-515.0171 808.9785,-445.7318 792.0071,-407.2356"/>
<polygon fill="#000000" stroke="#000000" points="795.0403,-405.4393 787.8036,-397.7009 788.6351,-408.2631 795.0403,-405.4393"/>
</g>
<!-- vd -->
<g id="node22" class="node">
<title>vd</title>
<ellipse fill="none" stroke="#000000" cx="410" cy="-473" rx="27" ry="18"/>
<text text-anchor="middle" x="410" y="-468.8" font-family="Times,serif" font-size="14.00" fill="#000000">vd</text>
</g>
<!-- bilibili&#45;live&#45;ws&#45;&gt;vd -->
<g id="edge11" class="edge">
<title>bilibili&#45;live&#45;ws&#45;&gt;vd</title>
<path fill="none" stroke="#000000" d="M799.435,-564.5347C700.2028,-561.3151 511.9232,-551.2978 453,-521 442.5946,-515.6496 433.5148,-506.6604 426.414,-497.8982"/>
<polygon fill="#000000" stroke="#000000" points="429.0459,-495.575 420.2337,-489.6931 423.4545,-499.7865 429.0459,-495.575"/>
</g>
<!-- BiliChat -->
<g id="node10" class="node">
<title>BiliChat</title>
<ellipse fill="none" stroke="#000000" cx="1090" cy="-566" rx="40.1576" ry="18"/>
<text text-anchor="middle" x="1090" y="-561.8" font-family="Times,serif" font-size="14.00" fill="#000000">BiliChat</text>
</g>
<!-- vtbs.moe -->
<g id="node18" class="node">
<title>vtbs.moe</title>
<ellipse fill="none" stroke="#000000" cx="233" cy="-42" rx="42.0717" ry="18"/>
<text text-anchor="middle" x="233" y="-37.8" font-family="Times,serif" font-size="14.00" fill="#000000">vtbs.moe</text>
</g>
<!-- BiliChat&#45;&gt;vtbs.moe -->
<g id="edge28" class="edge">
<title>BiliChat&#45;&gt;vtbs.moe</title>
<path fill="none" stroke="#000000" d="M1072.8991,-549.5608C1056.7538,-532.198 1035,-503.2004 1035,-473 1035,-473 1035,-473 1035,-135 1035,-59.3268 464.3185,-45.1452 285.7498,-42.56"/>
<polygon fill="#000000" stroke="#000000" points="285.6003,-39.0577 275.5528,-42.419 285.5033,-46.0571 285.6003,-39.0577"/>
</g>
<!-- Hawk -->
<g id="node16" class="node">
<title>Hawk</title>
<ellipse fill="none" stroke="#000000" cx="84" cy="-380" rx="31.4549" ry="18"/>
<text text-anchor="middle" x="84" y="-375.8" font-family="Times,serif" font-size="14.00" fill="#000000">Hawk</text>
</g>
<!-- nodejieba&#45;&gt;Hawk -->
<g id="edge23" class="edge">
<title>nodejieba&#45;&gt;Hawk</title>
<path fill="none" stroke="#000000" d="M627.9082,-709.531C478.4063,-700.8714 0,-670.6853 0,-639 0,-639 0,-639 0,-473 0,-440.4463 28.6951,-414.1765 52.5423,-397.9657"/>
<polygon fill="#000000" stroke="#000000" points="54.5575,-400.8305 61.0466,-392.4554 50.7511,-394.9559 54.5575,-400.8305"/>
</g>
<!-- api.bilibili.com -->
<g id="node12" class="node">
<title>api.bilibili.com</title>
<ellipse fill="none" stroke="#000000" cx="799" cy="-712" rx="64.2873" ry="18"/>
<text text-anchor="middle" x="799" y="-707.8" font-family="Times,serif" font-size="14.00" fill="#000000">api.bilibili.com</text>
</g>
<!-- api.bilibili.com&#45;&gt;bili&#45;api -->
<g id="edge6" class="edge">
<title>api.bilibili.com&#45;&gt;bili&#45;api</title>
<path fill="none" stroke="#000000" d="M791.5997,-694.0372C786.2648,-679.4634 780,-658.2509 780,-639 780,-639 780,-639 780,-473 780,-451.27 780,-426.6839 780,-408.2508"/>
<polygon fill="#000000" stroke="#000000" points="783.5001,-408.1767 780,-398.1767 776.5001,-408.1768 783.5001,-408.1767"/>
</g>
<!-- api.live.bilibili.com -->
<g id="node13" class="node">
<title>api.live.bilibili.com</title>
<ellipse fill="none" stroke="#000000" cx="961" cy="-712" rx="79.7307" ry="18"/>
<text text-anchor="middle" x="961" y="-707.8" font-family="Times,serif" font-size="14.00" fill="#000000">api.live.bilibili.com</text>
</g>
<!-- api.live.bilibili.com&#45;&gt;bili&#45;api -->
<g id="edge7" class="edge">
<title>api.live.bilibili.com&#45;&gt;bili&#45;api</title>
<path fill="none" stroke="#000000" d="M957.4946,-693.7764C954.9675,-679.055 952,-657.7713 952,-639 952,-639 952,-639 952,-473 952,-415.358 876.3284,-393.2671 825.3694,-384.9256"/>
<polygon fill="#000000" stroke="#000000" points="825.6329,-381.4258 815.2218,-383.3903 824.5856,-388.347 825.6329,-381.4258"/>
</g>
<!-- broadcastlv.chat.bilibili.com -->
<g id="node14" class="node">
<title>broadcastlv.chat.bilibili.com</title>
<ellipse fill="none" stroke="#000000" cx="1169" cy="-712" rx="110.4362" ry="18"/>
<text text-anchor="middle" x="1169" y="-707.8" font-family="Times,serif" font-size="14.00" fill="#000000">broadcastlv.chat.bilibili.com</text>
</g>
<!-- broadcastlv.chat.bilibili.com&#45;&gt;bilibili&#45;live&#45;ws -->
<g id="edge10" class="edge">
<title>broadcastlv.chat.bilibili.com&#45;&gt;bilibili&#45;live&#45;ws</title>
<path fill="none" stroke="#000000" d="M1133.1824,-694.9662C1076.1298,-667.8337 964.8715,-614.9226 904.0993,-586.0212"/>
<polygon fill="#000000" stroke="#000000" points="905.3292,-582.7305 894.7953,-581.5964 902.3229,-589.052 905.3292,-582.7305"/>
</g>
<!-- broadcastlv.chat.bilibili.com&#45;&gt;BiliChat -->
<g id="edge27" class="edge">
<title>broadcastlv.chat.bilibili.com&#45;&gt;BiliChat</title>
<path fill="none" stroke="#000000" d="M1159.1543,-693.8042C1145.3449,-668.283 1120.1399,-621.7016 1104.2731,-592.3781"/>
<polygon fill="#000000" stroke="#000000" points="1107.3131,-590.6418 1099.4759,-583.5124 1101.1566,-593.9731 1107.3131,-590.6418"/>
</g>
<!-- api.vtbs.moe&#45;&gt;bilibili&#45;vtuber&#45;videos&#45;danmaku -->
<g id="edge13" class="edge">
<title>api.vtbs.moe&#45;&gt;bilibili&#45;vtuber&#45;videos&#45;danmaku</title>
<path fill="none" stroke="#000000" d="M264.3503,-210.1951C320.59,-196.4937 418.7148,-172.5879 489.2432,-155.4053"/>
<polygon fill="#000000" stroke="#000000" points="490.1173,-158.7948 499.0047,-153.0272 488.4604,-151.9938 490.1173,-158.7948"/>
<text text-anchor="middle" x="435.0879" y="-173.8" font-family="Times,serif" font-size="14.00" fill="#000000">vtbs.js</text>
</g>
<!-- api.vtbs.moe&#45;&gt;vtbs.moe -->
<g id="edge4" class="edge">
<title>api.vtbs.moe&#45;&gt;vtbs.moe</title>
<path fill="none" stroke="#000000" d="M221.3181,-202.8515C223.5858,-171.6258 228.2417,-107.5184 230.9406,-70.3564"/>
<polygon fill="#000000" stroke="#000000" points="234.4448,-70.4239 231.6785,-60.1966 227.4632,-69.9168 234.4448,-70.4239"/>
</g>
<!-- /v1 -->
<g id="node19" class="node">
<title>/v1</title>
<ellipse fill="none" stroke="#000000" cx="146" cy="-42" rx="27" ry="18"/>
<text text-anchor="middle" x="146" y="-37.8" font-family="Times,serif" font-size="14.00" fill="#000000">/v1</text>
</g>
<!-- api.vtbs.moe&#45;&gt;/v1 -->
<g id="edge30" class="edge">
<title>api.vtbs.moe&#45;&gt;/v1</title>
<path fill="none" stroke="#000000" stroke-dasharray="1,5" d="M212.4973,-202.8515C199.4322,-171.2481 172.4426,-105.9625 157.1701,-69.0197"/>
<polygon fill="#000000" stroke="#000000" points="160.2496,-67.3073 153.1945,-59.403 153.7806,-69.9816 160.2496,-67.3073"/>
</g>
<!-- /vds -->
<g id="node20" class="node">
<title>/vds</title>
<ellipse fill="none" stroke="#000000" cx="74" cy="-42" rx="27" ry="18"/>
<text text-anchor="middle" x="74" y="-37.8" font-family="Times,serif" font-size="14.00" fill="#000000">/vds</text>
</g>
<!-- api.vtbs.moe&#45;&gt;/vds -->
<g id="edge31" class="edge">
<title>api.vtbs.moe&#45;&gt;/vds</title>
<path fill="none" stroke="#000000" stroke-dasharray="1,5" d="M204.7411,-203.4574C183.2092,-178.5623 142.8675,-131.4017 110,-90 104.1345,-82.6116 97.9138,-74.4436 92.3231,-66.9722"/>
<polygon fill="#000000" stroke="#000000" points="94.8826,-64.5486 86.1086,-58.61 89.2642,-68.724 94.8826,-64.5486"/>
</g>
<!-- api.vtbs.moe&#45;&gt;vd -->
<g id="edge12" class="edge">
<title>api.vtbs.moe&#45;&gt;vd</title>
<path fill="none" stroke="#000000" d="M172.1129,-230.1374C145.0672,-237.0999 111.8172,-248.8499 87,-268 28.7038,-312.9842 -4.7871,-372.8471 44,-428 65.5774,-452.3929 284.0806,-466.4385 372.8295,-471.175"/>
<polygon fill="#000000" stroke="#000000" points="372.8181,-474.6791 382.9873,-471.7066 373.1839,-467.6887 372.8181,-474.6791"/>
<text text-anchor="middle" x="50.0879" y="-332.8" font-family="Times,serif" font-size="14.00" fill="#000000">vtbs.js</text>
</g>
<!-- eagle -->
<g id="node23" class="node">
<title>eagle</title>
<ellipse fill="none" stroke="#000000" cx="501" cy="-473" rx="28.524" ry="18"/>
<text text-anchor="middle" x="501" y="-468.8" font-family="Times,serif" font-size="14.00" fill="#000000">eagle</text>
</g>
<!-- api.vtbs.moe&#45;&gt;eagle -->
<g id="edge18" class="edge">
<title>api.vtbs.moe&#45;&gt;eagle</title>
<path fill="none" stroke="#000000" d="M274.1735,-225.1236C360.8921,-232.2809 522.9223,-248.1561 540,-268 584.2533,-319.4211 542.8978,-405.3038 517.4979,-447.7181"/>
<polygon fill="#000000" stroke="#000000" points="514.4637,-445.9705 512.2045,-456.3217 520.4257,-449.6387 514.4637,-445.9705"/>
</g>
<!-- Hawk&#45;&gt;api.vtbs.moe -->
<g id="edge3" class="edge">
<title>Hawk&#45;&gt;api.vtbs.moe</title>
<path fill="none" stroke="#000000" d="M83.6562,-361.9105C84.1518,-337.7631 88.4922,-294.921 111.1963,-268 124.7008,-251.9872 144.6704,-241.2774 163.8277,-234.1852"/>
<polygon fill="#000000" stroke="#000000" points="165.1085,-237.4462 173.4329,-230.8922 162.8383,-230.8245 165.1085,-237.4462"/>
<text text-anchor="middle" x="163.9019" y="-289.8" font-family="Times,serif" font-size="14.00" fill="#000000">Danmaku Analyze</text>
</g>
<!-- Snake -->
<g id="node17" class="node">
<title>Snake</title>
<ellipse fill="none" stroke="#000000" cx="227" cy="-380" rx="31.9393" ry="18"/>
<text text-anchor="middle" x="227" y="-375.8" font-family="Times,serif" font-size="14.00" fill="#000000">Snake</text>
</g>
<!-- Snake&#45;&gt;api.vtbs.moe -->
<g id="edge2" class="edge">
<title>Snake&#45;&gt;api.vtbs.moe</title>
<path fill="none" stroke="#000000" d="M224.6957,-361.8535C223.0774,-348.1766 221.0536,-328.9444 220.1895,-312 219.1183,-290.9953 219.11,-267.2281 219.3487,-249.2516"/>
<polygon fill="#000000" stroke="#000000" points="222.85,-249.1996 219.5168,-239.1427 215.8509,-249.0831 222.85,-249.1996"/>
<text text-anchor="middle" x="250.9053" y="-289.8" font-family="Times,serif" font-size="14.00" fill="#000000">Live Event</text>
</g>
<!-- vdMonster -->
<g id="node21" class="node">
<title>vdMonster</title>
<ellipse fill="none" stroke="#000000" cx="1376" cy="-835" rx="48.3514" ry="18"/>
<text text-anchor="middle" x="1376" y="-830.8" font-family="Times,serif" font-size="14.00" fill="#000000">vdMonster</text>
</g>
<!-- vdMonster&#45;&gt;txt_to_csv -->
<g id="edge26" class="edge">
<title>vdMonster&#45;&gt;txt_to_csv</title>
<path fill="none" stroke="#000000" d="M1370.6881,-816.8509C1364.7591,-796.5935 1355.0932,-763.5684 1348.1938,-739.9956"/>
<polygon fill="#000000" stroke="#000000" points="1351.5019,-738.8377 1345.3337,-730.2235 1344.7837,-740.8041 1351.5019,-738.8377"/>
</g>
<!-- vdMonster&#45;&gt;script&#45;anti&#45;back&#45;end -->
<g id="edge24" class="edge">
<title>vdMonster&#45;&gt;script&#45;anti&#45;back&#45;end</title>
<path fill="none" stroke="#000000" d="M1388.0352,-817.3771C1402.0954,-796.7889 1425.5041,-762.5118 1441.7909,-738.6633"/>
<polygon fill="#000000" stroke="#000000" points="1444.6892,-740.6255 1447.4385,-730.3936 1438.9086,-736.6777 1444.6892,-740.6255"/>
</g>
<!-- vd&#45;&gt;api.vtbs.moe -->
<g id="edge29" class="edge">
<title>vd&#45;&gt;api.vtbs.moe</title>
<path fill="none" stroke="#000000" stroke-dasharray="1,5" d="M414.359,-454.9726C422.432,-417.2233 435.8188,-328.3699 400,-268 387.8321,-247.4918 329.8123,-235.0049 282.8855,-228.109"/>
<polygon fill="#000000" stroke="#000000" points="283.1482,-224.6115 272.7573,-226.6804 282.1704,-231.5429 283.1482,-224.6115"/>
</g>
<!-- vd&#45;&gt;Snake -->
<g id="edge15" class="edge">
<title>vd&#45;&gt;Snake</title>
<path fill="none" stroke="#000000" d="M388.2889,-461.9665C356.4314,-445.7766 296.7854,-415.4647 259.6354,-396.5852"/>
<polygon fill="#000000" stroke="#000000" points="261.2063,-393.4575 250.7057,-392.0472 258.0349,-399.6979 261.2063,-393.4575"/>
</g>
<!-- vd&#45;&gt;eagle -->
<g id="edge16" class="edge">
<title>vd&#45;&gt;eagle</title>
<path fill="none" stroke="#000000" d="M437.0156,-473C445.3079,-473 453.6001,-473 461.8924,-473"/>
<polygon fill="#000000" stroke="#000000" points="462.0071,-476.5001 472.0071,-473 462.007,-469.5001 462.0071,-476.5001"/>
</g>
<!-- falcon -->
<g id="node24" class="node">
<title>falcon</title>
<ellipse fill="none" stroke="#000000" cx="499" cy="-294" rx="32.4063" ry="18"/>
<text text-anchor="middle" x="499" y="-289.8" font-family="Times,serif" font-size="14.00" fill="#000000">falcon</text>
</g>
<!-- eagle&#45;&gt;falcon -->
<g id="edge5" class="edge">
<title>eagle&#45;&gt;falcon</title>
<path fill="none" stroke="#000000" d="M500.7972,-454.8515C500.4483,-423.6258 499.732,-359.5184 499.3168,-322.3564"/>
<polygon fill="#000000" stroke="#000000" points="502.8149,-322.1568 499.2033,-312.1966 495.8154,-322.2351 502.8149,-322.1568"/>
</g>
<!-- falcon&#45;&gt;api.vtbs.moe -->
<g id="edge22" class="edge">
<title>falcon&#45;&gt;api.vtbs.moe</title>
<path fill="none" stroke="#000000" d="M483.3743,-277.9696C475.0638,-270.4026 464.2531,-261.9626 453,-257 423.4552,-243.9709 341.8243,-233.3274 283.5328,-227.0781"/>
<polygon fill="#000000" stroke="#000000" points="283.6135,-223.5673 273.3018,-226.0004 282.8801,-230.5288 283.6135,-223.5673"/>
</g>
<!-- falcon&#45;&gt;Hawk -->
<g id="edge21" class="edge">
<title>falcon&#45;&gt;Hawk</title>
<path fill="none" stroke="#000000" d="M467.7739,-299.3436C411.3189,-309.1471 288.6042,-331.1105 186,-354 164.8335,-358.7219 141.3722,-364.6532 122.2922,-369.6579"/>
<polygon fill="#000000" stroke="#000000" points="121.2419,-366.3152 112.4681,-372.2541 123.0304,-373.0829 121.2419,-366.3152"/>
</g>
</g>
</svg>
