<?xml version="1.0" encoding="UTF-8" standalone="no"?>
<!DOCTYPE svg PUBLIC "-//W3C//DTD SVG 1.1//EN"
 "http://www.w3.org/Graphics/SVG/1.1/DTD/svg11.dtd">
<!-- Generated by graphviz version 2.40.1 (20161225.0304)
 -->
<!-- Title: %3 Pages: 1 -->
<svg width="1394pt" height="899pt"
 viewBox="0.00 0.00 1394.18 899.00" xmlns="http://www.w3.org/2000/svg" xmlns:xlink="http://www.w3.org/1999/xlink">
<g id="graph0" class="graph" transform="scale(1 1) rotate(0) translate(4 895)">
<title>%3</title>
<polygon fill="#ffffff" stroke="transparent" points="-4,4 -4,-895 1390.1801,-895 1390.1801,4 -4,4"/>
<g id="clust1" class="cluster">
<title>cluster_bilibili_package</title>
<polygon fill="none" stroke="#000000" points="480.8007,-354 480.8007,-790 1156.8007,-790 1156.8007,-354 480.8007,-354"/>
<text text-anchor="middle" x="818.8007" y="-774.8" font-family="Times,serif" font-size="14.00" fill="#000000">Extenal</text>
</g>
<g id="clust2" class="cluster">
<title>cluster_bilibili&#45;</title>
<polygon fill="none" stroke="#000000" points="587.8007,-686 587.8007,-760 1148.8007,-760 1148.8007,-686 587.8007,-686"/>
<text text-anchor="middle" x="868.3007" y="-744.8" font-family="Times,serif" font-size="14.00" fill="#000000">bilibili.com</text>
</g>
<g id="clust3" class="cluster">
<title>cluster_vtbs.moe</title>
<polygon fill="none" stroke="#000000" points="181.8007,-8 181.8007,-428 441.8007,-428 441.8007,-8 181.8007,-8"/>
<text text-anchor="middle" x="311.8007" y="-412.8" font-family="Times,serif" font-size="14.00" fill="#000000">vtbs.moe</text>
</g>
<g id="clust4" class="cluster">
<title>cluster_open_api</title>
<polygon fill="none" stroke="#000000" points="281.8007,-16 281.8007,-90 433.8007,-90 433.8007,-16 281.8007,-16"/>
<text text-anchor="middle" x="357.8007" y="-74.8" font-family="Times,serif" font-size="14.00" fill="#000000">api.vtbs.moe Public API</text>
</g>
<g id="clust5" class="cluster">
<title>cluster_bilibili&#45;vtuber&#45;danmaku</title>
<polygon fill="none" stroke="#000000" points="1134.8007,-809 1134.8007,-883 1340.8007,-883 1340.8007,-809 1134.8007,-809"/>
<text text-anchor="middle" x="1237.8007" y="-867.8" font-family="Times,serif" font-size="14.00" fill="#000000">bilibili&#45;vtuber&#45;danmaku (inactive)</text>
</g>
<g id="clust6" class="cluster">
<title>cluster_bilibili&#45;vtuber&#45;danmaku&#45;relay</title>
<polygon fill="none" stroke="#000000" points="259.8007,-447 259.8007,-521 466.8007,-521 466.8007,-447 259.8007,-447"/>
<text text-anchor="middle" x="363.3007" y="-505.8" font-family="Times,serif" font-size="14.00" fill="#000000">bilibili&#45;vtuber&#45;live&#45;danmaku&#45;relay</text>
</g>
<g id="clust7" class="cluster">
<title>cluster_influx&#45;bilibili&#45;vtuber&#45;danmaku</title>
<polygon fill="none" stroke="#000000" points="18.8007,-268 18.8007,-521 173.8007,-521 173.8007,-268 18.8007,-268"/>
<text text-anchor="middle" x="96.3007" y="-505.8" font-family="Times,serif" font-size="14.00" fill="#000000">influx&#45;danmaku&#45;recorder</text>
</g>
<!-- dictionary -->
<g id="node1" class="node">
<title>dictionary</title>
<polygon fill="none" stroke="#000000" points="569.0599,-853 496.5415,-853 496.5415,-817 569.0599,-817 569.0599,-853"/>
<text text-anchor="middle" x="532.8007" y="-830.8" font-family="Times,serif" font-size="14.00" fill="#000000">dictionary</text>
</g>
<!-- nodejieba -->
<g id="node10" class="node">
<title>nodejieba</title>
<ellipse fill="none" stroke="#000000" cx="532.8007" cy="-712" rx="44.4664" ry="18"/>
<text text-anchor="middle" x="532.8007" y="-707.8" font-family="Times,serif" font-size="14.00" fill="#000000">nodejieba</text>
</g>
<!-- dictionary&#45;&gt;nodejieba -->
<g id="edge18" class="edge">
<title>dictionary&#45;&gt;nodejieba</title>
<path fill="none" stroke="#000000" d="M532.8007,-816.8509C532.8007,-796.6843 532.8007,-763.8643 532.8007,-740.3133"/>
<polygon fill="#000000" stroke="#000000" points="536.3008,-740.2235 532.8007,-730.2235 529.3008,-740.2236 536.3008,-740.2235"/>
</g>
<!-- txt_to_csv -->
<g id="node2" class="node">
<title>txt_to_csv</title>
<polygon fill="none" stroke="#000000" points="1239.1325,-730 1164.4689,-730 1164.4689,-694 1239.1325,-694 1239.1325,-730"/>
<text text-anchor="middle" x="1201.8007" y="-707.8" font-family="Times,serif" font-size="14.00" fill="#000000">txt_to_csv</text>
</g>
<!-- bilibili&#45;live&#45;noscript -->
<g id="node3" class="node">
<title>bilibili&#45;live&#45;noscript</title>
<polygon fill="none" stroke="#000000" points="1386.0597,-657 1257.5417,-657 1257.5417,-621 1386.0597,-621 1386.0597,-657"/>
<text text-anchor="middle" x="1321.8007" y="-634.8" font-family="Times,serif" font-size="14.00" fill="#000000">bilibili&#45;live&#45;noscript</text>
</g>
<!-- bilibili&#45;vtuber&#45;videos&#45;danmaku -->
<g id="node4" class="node">
<title>bilibili&#45;vtuber&#45;videos&#45;danmaku</title>
<polygon fill="none" stroke="#000000" points="699.9865,-153 509.6149,-153 509.6149,-117 699.9865,-117 699.9865,-153"/>
<text text-anchor="middle" x="604.8007" y="-130.8" font-family="Times,serif" font-size="14.00" fill="#000000">bilibili&#45;vtuber&#45;videos&#45;danmaku</text>
</g>
<!-- script&#45;anti&#45;back&#45;end -->
<g id="node5" class="node">
<title>script&#45;anti&#45;back&#45;end</title>
<polygon fill="none" stroke="#000000" points="1386.0256,-730 1257.5758,-730 1257.5758,-694 1386.0256,-694 1386.0256,-730"/>
<text text-anchor="middle" x="1321.8007" y="-707.8" font-family="Times,serif" font-size="14.00" fill="#000000">script&#45;anti&#45;back&#45;end</text>
</g>
<!-- script&#45;anti&#45;back&#45;end&#45;&gt;bilibili&#45;live&#45;noscript -->
<g id="edge23" class="edge">
<title>script&#45;anti&#45;back&#45;end&#45;&gt;bilibili&#45;live&#45;noscript</title>
<path fill="none" stroke="#000000" d="M1321.8007,-693.9551C1321.8007,-685.8828 1321.8007,-676.1764 1321.8007,-667.1817"/>
<polygon fill="#000000" stroke="#000000" points="1325.3008,-667.0903 1321.8007,-657.0904 1318.3008,-667.0904 1325.3008,-667.0903"/>
</g>
<!-- api.vtb.wiki -->
<g id="node6" class="node">
<title>api.vtb.wiki</title>
<polygon fill="none" stroke="#000000" points="624.1836,-312 541.4178,-312 541.4178,-276 624.1836,-276 624.1836,-312"/>
<text text-anchor="middle" x="582.8007" y="-289.8" font-family="Times,serif" font-size="14.00" fill="#000000">api.vtb.wiki</text>
</g>
<!-- api.vtbs.moe -->
<g id="node14" class="node">
<title>api.vtbs.moe</title>
<ellipse fill="none" stroke="#000000" cx="359.8007" cy="-221" rx="55.1008" ry="18"/>
<text text-anchor="middle" x="359.8007" y="-216.8" font-family="Times,serif" font-size="14.00" fill="#000000">api.vtbs.moe</text>
</g>
<!-- api.vtb.wiki&#45;&gt;api.vtbs.moe -->
<g id="edge17" class="edge">
<title>api.vtb.wiki&#45;&gt;api.vtbs.moe</title>
<path fill="none" stroke="#000000" d="M560.1122,-275.8803C550.6024,-269.0674 539.1346,-261.8138 527.8007,-257 494.356,-242.7951 454.7002,-233.9574 422.3173,-228.5954"/>
<polygon fill="#000000" stroke="#000000" points="422.5003,-225.0809 412.076,-226.9743 421.4058,-231.9948 422.5003,-225.0809"/>
</g>
<!-- bili&#45;api -->
<g id="node7" class="node">
<title>bili&#45;api</title>
<ellipse fill="none" stroke="#000000" cx="691.8007" cy="-380" rx="35.7974" ry="18"/>
<text text-anchor="middle" x="691.8007" y="-375.8" font-family="Times,serif" font-size="14.00" fill="#000000">bili&#45;api</text>
</g>
<!-- bili&#45;api&#45;&gt;bilibili&#45;vtuber&#45;videos&#45;danmaku -->
<g id="edge13" class="edge">
<title>bili&#45;api&#45;&gt;bilibili&#45;vtuber&#45;videos&#45;danmaku</title>
<path fill="none" stroke="#000000" d="M685.4034,-361.9846C670.3514,-319.5968 632.6139,-213.3244 614.6293,-162.6783"/>
<polygon fill="#000000" stroke="#000000" points="617.852,-161.2941 611.2074,-153.0418 611.2556,-163.6366 617.852,-161.2941"/>
</g>
<!-- bili&#45;api&#45;&gt;api.vtbs.moe -->
<g id="edge8" class="edge">
<title>bili&#45;api&#45;&gt;api.vtbs.moe</title>
<path fill="none" stroke="#000000" d="M660.0764,-371.5969C626.1049,-361.4842 571.8276,-342.0201 532.8007,-312 508.2066,-293.0818 515.606,-274.2294 489.8007,-257 469.5264,-243.4634 444.2455,-234.9831 421.3819,-229.6852"/>
<polygon fill="#000000" stroke="#000000" points="421.9276,-226.2225 411.4145,-227.5362 420.4522,-233.0653 421.9276,-226.2225"/>
</g>
<!-- bilibili&#45;live&#45;ws -->
<g id="node8" class="node">
<title>bilibili&#45;live&#45;ws</title>
<ellipse fill="none" stroke="#000000" cx="691.8007" cy="-566" rx="62.8425" ry="18"/>
<text text-anchor="middle" x="691.8007" y="-561.8" font-family="Times,serif" font-size="14.00" fill="#000000">bilibili&#45;live&#45;ws</text>
</g>
<!-- bilibili&#45;live&#45;ws&#45;&gt;bili&#45;api -->
<g id="edge7" class="edge">
<title>bilibili&#45;live&#45;ws&#45;&gt;bili&#45;api</title>
<path fill="none" stroke="#000000" d="M691.8007,-547.8269C691.8007,-515.3238 691.8007,-447.024 691.8007,-408.3233"/>
<polygon fill="#000000" stroke="#000000" points="695.3008,-408.2469 691.8007,-398.2469 688.3008,-408.2469 695.3008,-408.2469"/>
</g>
<!-- vd -->
<g id="node21" class="node">
<title>vd</title>
<ellipse fill="none" stroke="#000000" cx="424.8007" cy="-473" rx="27" ry="18"/>
<text text-anchor="middle" x="424.8007" y="-468.8" font-family="Times,serif" font-size="14.00" fill="#000000">vd</text>
</g>
<!-- bilibili&#45;live&#45;ws&#45;&gt;vd -->
<g id="edge10" class="edge">
<title>bilibili&#45;live&#45;ws&#45;&gt;vd</title>
<path fill="none" stroke="#000000" d="M639.9012,-555.8578C578.638,-543.7787 484.0888,-524.7561 476.8007,-521 465.0266,-514.9319 453.9469,-505.4616 445.0649,-496.5308"/>
<polygon fill="#000000" stroke="#000000" points="447.5745,-494.0908 438.154,-489.2425 442.495,-498.9073 447.5745,-494.0908"/>
</g>
<!-- BiliChat -->
<g id="node9" class="node">
<title>BiliChat</title>
<ellipse fill="none" stroke="#000000" cx="549.8007" cy="-566" rx="40.1576" ry="18"/>
<text text-anchor="middle" x="549.8007" y="-561.8" font-family="Times,serif" font-size="14.00" fill="#000000">BiliChat</text>
</g>
<!-- vtbs.moe -->
<g id="node17" class="node">
<title>vtbs.moe</title>
<ellipse fill="none" stroke="#000000" cx="231.8007" cy="-42" rx="42.0717" ry="18"/>
<text text-anchor="middle" x="231.8007" y="-37.8" font-family="Times,serif" font-size="14.00" fill="#000000">vtbs.moe</text>
</g>
<!-- BiliChat&#45;&gt;vtbs.moe -->
<g id="edge26" class="edge">
<title>BiliChat&#45;&gt;vtbs.moe</title>
<path fill="none" stroke="#000000" d="M509.5477,-565.2026C391.6271,-562.5125 52.8633,-552.1249 14.8007,-521 -2.4021,-506.9327 .8007,-495.2222 .8007,-473 .8007,-473 .8007,-473 .8007,-135 .8007,-96.0889 115.0154,-65.9168 182.822,-51.4329"/>
<polygon fill="#000000" stroke="#000000" points="183.8058,-54.8029 192.8759,-49.3273 182.3708,-47.9516 183.8058,-54.8029"/>
</g>
<!-- Hawk -->
<g id="node15" class="node">
<title>Hawk</title>
<ellipse fill="none" stroke="#000000" cx="220.8007" cy="-380" rx="31.4549" ry="18"/>
<text text-anchor="middle" x="220.8007" y="-375.8" font-family="Times,serif" font-size="14.00" fill="#000000">Hawk</text>
</g>
<!-- nodejieba&#45;&gt;Hawk -->
<g id="edge21" class="edge">
<title>nodejieba&#45;&gt;Hawk</title>
<path fill="none" stroke="#000000" d="M488.2709,-710.5088C403.832,-706.4627 228.8007,-691.7176 228.8007,-639 228.8007,-639 228.8007,-639 228.8007,-473 228.8007,-451.1897 226.5896,-426.6078 224.4923,-408.1966"/>
<polygon fill="#000000" stroke="#000000" points="227.9519,-407.6502 223.2881,-398.1371 221.0016,-408.4822 227.9519,-407.6502"/>
</g>
<!-- api.bilibili.com -->
<g id="node11" class="node">
<title>api.bilibili.com</title>
<ellipse fill="none" stroke="#000000" cx="898.8007" cy="-712" rx="64.2873" ry="18"/>
<text text-anchor="middle" x="898.8007" y="-707.8" font-family="Times,serif" font-size="14.00" fill="#000000">api.bilibili.com</text>
</g>
<!-- api.bilibili.com&#45;&gt;bili&#45;api -->
<g id="edge5" class="edge">
<title>api.bilibili.com&#45;&gt;bili&#45;api</title>
<path fill="none" stroke="#000000" d="M872.083,-695.3313C854.9124,-682.3523 835.8007,-662.6043 835.8007,-639 835.8007,-639 835.8007,-639 835.8007,-473 835.8007,-424.6467 777.7973,-400.2093 735.4161,-388.8073"/>
<polygon fill="#000000" stroke="#000000" points="736.1157,-385.3741 725.5623,-386.3108 734.3964,-392.1597 736.1157,-385.3741"/>
</g>
<!-- api.live.bilibili.com -->
<g id="node12" class="node">
<title>api.live.bilibili.com</title>
<ellipse fill="none" stroke="#000000" cx="1060.8007" cy="-712" rx="79.7307" ry="18"/>
<text text-anchor="middle" x="1060.8007" y="-707.8" font-family="Times,serif" font-size="14.00" fill="#000000">api.live.bilibili.com</text>
</g>
<!-- api.live.bilibili.com&#45;&gt;bili&#45;api -->
<g id="edge6" class="edge">
<title>api.live.bilibili.com&#45;&gt;bili&#45;api</title>
<path fill="none" stroke="#000000" d="M1012.0154,-697.7002C985.3931,-686.5757 957.8007,-668.0409 957.8007,-639 957.8007,-639 957.8007,-639 957.8007,-473 957.8007,-426.6848 812.2863,-398.0061 736.51,-386.2117"/>
<polygon fill="#000000" stroke="#000000" points="736.7155,-382.7028 726.3029,-384.6594 735.663,-389.6232 736.7155,-382.7028"/>
</g>
<!-- broadcastlv.chat.bilibili.com -->
<g id="node13" class="node">
<title>broadcastlv.chat.bilibili.com</title>
<ellipse fill="none" stroke="#000000" cx="705.8007" cy="-712" rx="110.4362" ry="18"/>
<text text-anchor="middle" x="705.8007" y="-707.8" font-family="Times,serif" font-size="14.00" fill="#000000">broadcastlv.chat.bilibili.com</text>
</g>
<!-- broadcastlv.chat.bilibili.com&#45;&gt;bilibili&#45;live&#45;ws -->
<g id="edge9" class="edge">
<title>broadcastlv.chat.bilibili.com&#45;&gt;bilibili&#45;live&#45;ws</title>
<path fill="none" stroke="#000000" d="M704.0559,-693.8042C701.6666,-668.8868 697.3522,-623.8938 694.5324,-594.4877"/>
<polygon fill="#000000" stroke="#000000" points="698.0061,-594.0453 693.5675,-584.4251 691.0381,-594.7136 698.0061,-594.0453"/>
</g>
<!-- broadcastlv.chat.bilibili.com&#45;&gt;BiliChat -->
<g id="edge25" class="edge">
<title>broadcastlv.chat.bilibili.com&#45;&gt;BiliChat</title>
<path fill="none" stroke="#000000" d="M686.6721,-694.0975C658.4705,-667.7038 605.7215,-618.3361 574.5881,-589.1984"/>
<polygon fill="#000000" stroke="#000000" points="576.8594,-586.5305 567.1666,-582.2527 572.0762,-591.6413 576.8594,-586.5305"/>
</g>
<!-- api.vtbs.moe&#45;&gt;bilibili&#45;vtuber&#45;videos&#45;danmaku -->
<g id="edge12" class="edge">
<title>api.vtbs.moe&#45;&gt;bilibili&#45;vtuber&#45;videos&#45;danmaku</title>
<path fill="none" stroke="#000000" d="M397.545,-207.751C436.5177,-194.0708 497.9392,-172.5106 543.8156,-156.407"/>
<polygon fill="#000000" stroke="#000000" points="545.0792,-159.6729 553.3555,-153.0583 542.7607,-153.068 545.0792,-159.6729"/>
<text text-anchor="middle" x="514.8886" y="-173.8" font-family="Times,serif" font-size="14.00" fill="#000000">vtbs.js</text>
</g>
<!-- api.vtbs.moe&#45;&gt;vtbs.moe -->
<g id="edge3" class="edge">
<title>api.vtbs.moe&#45;&gt;vtbs.moe</title>
<path fill="none" stroke="#000000" d="M347.0596,-203.1824C324.287,-171.3363 276.5268,-104.5466 250.1969,-67.7259"/>
<polygon fill="#000000" stroke="#000000" points="252.9652,-65.5799 244.3015,-59.4815 247.2712,-69.6517 252.9652,-65.5799"/>
</g>
<!-- /v1 -->
<g id="node18" class="node">
<title>/v1</title>
<ellipse fill="none" stroke="#000000" cx="322.8007" cy="-42" rx="27" ry="18"/>
<text text-anchor="middle" x="322.8007" y="-37.8" font-family="Times,serif" font-size="14.00" fill="#000000">/v1</text>
</g>
<!-- api.vtbs.moe&#45;&gt;/v1 -->
<g id="edge28" class="edge">
<title>api.vtbs.moe&#45;&gt;/v1</title>
<path fill="none" stroke="#000000" stroke-dasharray="1,5" d="M356.0493,-202.8515C349.5782,-171.5449 336.2749,-107.186 328.6025,-70.0681"/>
<polygon fill="#000000" stroke="#000000" points="331.9589,-69.0149 326.507,-59.9304 325.1038,-70.4319 331.9589,-69.0149"/>
</g>
<!-- /vds -->
<g id="node19" class="node">
<title>/vds</title>
<ellipse fill="none" stroke="#000000" cx="394.8007" cy="-42" rx="27" ry="18"/>
<text text-anchor="middle" x="394.8007" y="-37.8" font-family="Times,serif" font-size="14.00" fill="#000000">/vds</text>
</g>
<!-- api.vtbs.moe&#45;&gt;/vds -->
<g id="edge29" class="edge">
<title>api.vtbs.moe&#45;&gt;/vds</title>
<path fill="none" stroke="#000000" stroke-dasharray="1,5" d="M363.3493,-202.8515C369.4707,-171.5449 382.0548,-107.186 389.3125,-70.0681"/>
<polygon fill="#000000" stroke="#000000" points="392.8107,-70.4163 391.2948,-59.9304 385.9408,-69.0729 392.8107,-70.4163"/>
</g>
<!-- api.vtbs.moe&#45;&gt;vd -->
<g id="edge11" class="edge">
<title>api.vtbs.moe&#45;&gt;vd</title>
<path fill="none" stroke="#000000" d="M391.4537,-236.0313C403.9007,-243.7181 416.8554,-254.3652 423.8007,-268 425.7742,-271.8744 425.317,-389.3489 424.9904,-444.686"/>
<polygon fill="#000000" stroke="#000000" points="421.4895,-444.8515 424.9276,-454.8729 428.4893,-444.8947 421.4895,-444.8515"/>
<text text-anchor="middle" x="442.8886" y="-332.8" font-family="Times,serif" font-size="14.00" fill="#000000">vtbs.js</text>
</g>
<!-- eagle -->
<g id="node22" class="node">
<title>eagle</title>
<ellipse fill="none" stroke="#000000" cx="136.8007" cy="-473" rx="28.524" ry="18"/>
<text text-anchor="middle" x="136.8007" y="-468.8" font-family="Times,serif" font-size="14.00" fill="#000000">eagle</text>
</g>
<!-- api.vtbs.moe&#45;&gt;eagle -->
<g id="edge16" class="edge">
<title>api.vtbs.moe&#45;&gt;eagle</title>
<path fill="none" stroke="#000000" d="M309.3885,-228.5139C281.1678,-234.9352 246.9178,-246.6852 222.8007,-268 169.5014,-315.1062 148.3718,-400.6387 140.7171,-444.853"/>
<polygon fill="#000000" stroke="#000000" points="137.2334,-444.471 139.088,-454.9023 144.1432,-445.5913 137.2334,-444.471"/>
</g>
<!-- Hawk&#45;&gt;api.vtbs.moe -->
<g id="edge2" class="edge">
<title>Hawk&#45;&gt;api.vtbs.moe</title>
<path fill="none" stroke="#000000" d="M220.6158,-361.8767C221.3242,-337.691 226.0439,-294.8057 248.997,-268 262.9542,-251.7001 283.5444,-240.9143 303.1999,-233.8417"/>
<polygon fill="#000000" stroke="#000000" points="304.3616,-237.1438 312.7407,-230.66 302.147,-230.5034 304.3616,-237.1438"/>
<text text-anchor="middle" x="300.7026" y="-289.8" font-family="Times,serif" font-size="14.00" fill="#000000">Danmaku Analyze</text>
</g>
<!-- Snake -->
<g id="node16" class="node">
<title>Snake</title>
<ellipse fill="none" stroke="#000000" cx="355.8007" cy="-380" rx="31.9393" ry="18"/>
<text text-anchor="middle" x="355.8007" y="-375.8" font-family="Times,serif" font-size="14.00" fill="#000000">Snake</text>
</g>
<!-- Snake&#45;&gt;api.vtbs.moe -->
<g id="edge1" class="edge">
<title>Snake&#45;&gt;api.vtbs.moe</title>
<path fill="none" stroke="#000000" d="M356.2596,-361.7607C356.9528,-334.2051 358.2728,-281.735 359.0907,-249.2226"/>
<polygon fill="#000000" stroke="#000000" points="362.5945,-249.1115 359.3472,-239.0266 355.5967,-248.9354 362.5945,-249.1115"/>
<text text-anchor="middle" x="388.706" y="-289.8" font-family="Times,serif" font-size="14.00" fill="#000000">Live Event</text>
</g>
<!-- vdMonster -->
<g id="node20" class="node">
<title>vdMonster</title>
<ellipse fill="none" stroke="#000000" cx="1237.8007" cy="-835" rx="48.3514" ry="18"/>
<text text-anchor="middle" x="1237.8007" y="-830.8" font-family="Times,serif" font-size="14.00" fill="#000000">vdMonster</text>
</g>
<!-- vdMonster&#45;&gt;txt_to_csv -->
<g id="edge24" class="edge">
<title>vdMonster&#45;&gt;txt_to_csv</title>
<path fill="none" stroke="#000000" d="M1232.4888,-816.8509C1226.5598,-796.5935 1216.8939,-763.5684 1209.9946,-739.9956"/>
<polygon fill="#000000" stroke="#000000" points="1213.3026,-738.8377 1207.1344,-730.2235 1206.5844,-740.8041 1213.3026,-738.8377"/>
</g>
<!-- vdMonster&#45;&gt;script&#45;anti&#45;back&#45;end -->
<g id="edge22" class="edge">
<title>vdMonster&#45;&gt;script&#45;anti&#45;back&#45;end</title>
<path fill="none" stroke="#000000" d="M1249.8359,-817.3771C1263.8961,-796.7889 1287.3048,-762.5118 1303.5916,-738.6633"/>
<polygon fill="#000000" stroke="#000000" points="1306.4899,-740.6255 1309.2393,-730.3936 1300.7093,-736.6777 1306.4899,-740.6255"/>
</g>
<!-- vd&#45;&gt;api.vtbs.moe -->
<g id="edge27" class="edge">
<title>vd&#45;&gt;api.vtbs.moe</title>
<path fill="none" stroke="#000000" stroke-dasharray="1,5" d="M434.2128,-456.001C447.808,-429.382 470.4177,-376.1305 461.8007,-330 455.3284,-295.3506 456.9098,-280.6808 430.8007,-257 423.2766,-250.1757 414.2203,-244.3024 405.1319,-239.3967"/>
<polygon fill="#000000" stroke="#000000" points="406.5905,-236.2122 396.0883,-234.8141 403.4264,-242.4563 406.5905,-236.2122"/>
</g>
<!-- vd&#45;&gt;Snake -->
<g id="edge14" class="edge">
<title>vd&#45;&gt;Snake</title>
<path fill="none" stroke="#000000" d="M412.7818,-456.8006C402.1287,-442.4421 386.4103,-421.2564 374.1793,-404.7712"/>
<polygon fill="#000000" stroke="#000000" points="376.9158,-402.5855 368.1465,-396.6399 371.2941,-406.7564 376.9158,-402.5855"/>
</g>
<!-- vd&#45;&gt;eagle -->
<g id="edge15" class="edge">
<title>vd&#45;&gt;eagle</title>
<path fill="none" stroke="#000000" d="M397.734,-473C323.8859,-473 250.0378,-473 176.1897,-473"/>
<polygon fill="#000000" stroke="#000000" points="175.7695,-469.5001 165.7695,-473 175.7694,-476.5001 175.7695,-469.5001"/>
</g>
<!-- falcon -->
<g id="node23" class="node">
<title>falcon</title>
<ellipse fill="none" stroke="#000000" cx="101.8007" cy="-294" rx="32.4063" ry="18"/>
<text text-anchor="middle" x="101.8007" y="-289.8" font-family="Times,serif" font-size="14.00" fill="#000000">falcon</text>
</g>
<!-- eagle&#45;&gt;falcon -->
<g id="edge4" class="edge">
<title>eagle&#45;&gt;falcon</title>
<path fill="none" stroke="#000000" d="M133.2521,-454.8515C127.1307,-423.5449 114.5466,-359.186 107.2889,-322.0681"/>
<polygon fill="#000000" stroke="#000000" points="110.6607,-321.0729 105.3067,-311.9304 103.7908,-322.4163 110.6607,-321.0729"/>
</g>
<!-- falcon&#45;&gt;api.vtbs.moe -->
<g id="edge20" class="edge">
<title>falcon&#45;&gt;api.vtbs.moe</title>
<path fill="none" stroke="#000000" d="M117.458,-278.0405C125.7765,-270.4916 136.585,-262.0463 147.8007,-257 173.8675,-245.2717 244.6042,-234.6934 297.2438,-228.0858"/>
<polygon fill="#000000" stroke="#000000" points="297.6838,-231.5581 307.1792,-226.8585 296.8255,-224.611 297.6838,-231.5581"/>
</g>
<!-- falcon&#45;&gt;Hawk -->
<g id="edge19" class="edge">
<title>falcon&#45;&gt;Hawk</title>
<path fill="none" stroke="#000000" d="M121.8781,-308.5097C141.378,-322.602 171.1488,-344.1171 192.9379,-359.8638"/>
<polygon fill="#000000" stroke="#000000" points="190.9952,-362.7782 201.1503,-365.7988 195.0954,-357.1047 190.9952,-362.7782"/>
</g>
</g>
</svg>
