<?xml version="1.0" encoding="UTF-8" standalone="no"?>
<!DOCTYPE svg PUBLIC "-//W3C//DTD SVG 1.1//EN"
 "http://www.w3.org/Graphics/SVG/1.1/DTD/svg11.dtd">
<!-- Generated by graphviz version 2.40.1 (20161225.0304)
 -->
<!-- Title: %3 Pages: 1 -->
<svg width="1455pt" height="826pt"
 viewBox="0.00 0.00 1455.00 826.00" xmlns="http://www.w3.org/2000/svg" xmlns:xlink="http://www.w3.org/1999/xlink">
<g id="graph0" class="graph" transform="scale(1 1) rotate(0) translate(4 822)">
<title>%3</title>
<polygon fill="#ffffff" stroke="transparent" points="-4,4 -4,-822 1451,-822 1451,4 -4,4"/>
<g id="clust1" class="cluster">
<title>cluster_bilibili_package</title>
<polygon fill="none" stroke="#000000" points="764,-354 764,-755 1439,-755 1439,-354 764,-354"/>
<text text-anchor="middle" x="1101.5" y="-739.8" font-family="Times,serif" font-size="14.00" fill="#000000">Extenal</text>
</g>
<g id="clust2" class="cluster">
<title>cluster_bilibili&#45;</title>
<polygon fill="none" stroke="#000000" points="871,-651 871,-725 1431,-725 1431,-651 871,-651"/>
<text text-anchor="middle" x="1151" y="-709.8" font-family="Times,serif" font-size="14.00" fill="#000000">bilibili.com</text>
</g>
<g id="clust3" class="cluster">
<title>cluster_vtbs.moe</title>
<polygon fill="none" stroke="#000000" points="8,-8 8,-428 332,-428 332,-8 8,-8"/>
<text text-anchor="middle" x="170" y="-412.8" font-family="Times,serif" font-size="14.00" fill="#000000">vtbs.moe</text>
</g>
<g id="clust4" class="cluster">
<title>cluster_open_api</title>
<polygon fill="none" stroke="#000000" points="16,-16 16,-90 230,-90 230,-16 16,-16"/>
<text text-anchor="middle" x="123" y="-74.8" font-family="Times,serif" font-size="14.00" fill="#000000">api.vtbs.moe Public API</text>
</g>
<g id="clust5" class="cluster">
<title>cluster_bilibili&#45;vtuber&#45;danmaku</title>
<polygon fill="none" stroke="#000000" points="340,-268 340,-521 489,-521 489,-268 340,-268"/>
<text text-anchor="middle" x="414.5" y="-505.8" font-family="Times,serif" font-size="14.00" fill="#000000">bilibili&#45;vtuber&#45;danmaku</text>
</g>
<!-- dictionary -->
<g id="node1" class="node">
<title>dictionary</title>
<polygon fill="none" stroke="#000000" points="852.2592,-818 779.7408,-818 779.7408,-782 852.2592,-782 852.2592,-818"/>
<text text-anchor="middle" x="816" y="-795.8" font-family="Times,serif" font-size="14.00" fill="#000000">dictionary</text>
</g>
<!-- nodejieba -->
<g id="node9" class="node">
<title>nodejieba</title>
<ellipse fill="none" stroke="#000000" cx="816" cy="-677" rx="44.4664" ry="18"/>
<text text-anchor="middle" x="816" y="-672.8" font-family="Times,serif" font-size="14.00" fill="#000000">nodejieba</text>
</g>
<!-- dictionary&#45;&gt;nodejieba -->
<g id="edge16" class="edge">
<title>dictionary&#45;&gt;nodejieba</title>
<path fill="none" stroke="#000000" d="M816,-781.8509C816,-761.6843 816,-728.8643 816,-705.3133"/>
<polygon fill="#000000" stroke="#000000" points="819.5001,-705.2235 816,-695.2235 812.5001,-705.2236 819.5001,-705.2235"/>
</g>
<!-- txt_to_csv -->
<g id="node2" class="node">
<title>txt_to_csv</title>
<polygon fill="none" stroke="#000000" points="718.3318,-398 643.6682,-398 643.6682,-362 718.3318,-362 718.3318,-398"/>
<text text-anchor="middle" x="681" y="-375.8" font-family="Times,serif" font-size="14.00" fill="#000000">txt_to_csv</text>
</g>
<!-- bilibili&#45;live&#45;noscript -->
<g id="node3" class="node">
<title>bilibili&#45;live&#45;noscript</title>
<polygon fill="none" stroke="#000000" points="625.259,-312 496.741,-312 496.741,-276 625.259,-276 625.259,-312"/>
<text text-anchor="middle" x="561" y="-289.8" font-family="Times,serif" font-size="14.00" fill="#000000">bilibili&#45;live&#45;noscript</text>
</g>
<!-- bilibili&#45;vtuber&#45;videos&#45;danmaku -->
<g id="node4" class="node">
<title>bilibili&#45;vtuber&#45;videos&#45;danmaku</title>
<polygon fill="none" stroke="#000000" points="937.1858,-153 746.8142,-153 746.8142,-117 937.1858,-117 937.1858,-153"/>
<text text-anchor="middle" x="842" y="-130.8" font-family="Times,serif" font-size="14.00" fill="#000000">bilibili&#45;vtuber&#45;videos&#45;danmaku</text>
</g>
<!-- script&#45;anti&#45;back&#45;end -->
<g id="node5" class="node">
<title>script&#45;anti&#45;back&#45;end</title>
<polygon fill="none" stroke="#000000" points="625.2249,-398 496.7751,-398 496.7751,-362 625.2249,-362 625.2249,-398"/>
<text text-anchor="middle" x="561" y="-375.8" font-family="Times,serif" font-size="14.00" fill="#000000">script&#45;anti&#45;back&#45;end</text>
</g>
<!-- script&#45;anti&#45;back&#45;end&#45;&gt;bilibili&#45;live&#45;noscript -->
<g id="edge20" class="edge">
<title>script&#45;anti&#45;back&#45;end&#45;&gt;bilibili&#45;live&#45;noscript</title>
<path fill="none" stroke="#000000" d="M561,-361.7616C561,-350.3597 561,-335.4342 561,-322.494"/>
<polygon fill="#000000" stroke="#000000" points="564.5001,-322.2121 561,-312.2121 557.5001,-322.2121 564.5001,-322.2121"/>
</g>
<!-- bili&#45;api -->
<g id="node6" class="node">
<title>bili&#45;api</title>
<ellipse fill="none" stroke="#000000" cx="929" cy="-380" rx="35.7974" ry="18"/>
<text text-anchor="middle" x="929" y="-375.8" font-family="Times,serif" font-size="14.00" fill="#000000">bili&#45;api</text>
</g>
<!-- bili&#45;api&#45;&gt;bilibili&#45;vtuber&#45;videos&#45;danmaku -->
<g id="edge12" class="edge">
<title>bili&#45;api&#45;&gt;bilibili&#45;vtuber&#45;videos&#45;danmaku</title>
<path fill="none" stroke="#000000" d="M922.6027,-361.9846C907.5507,-319.5968 869.8131,-213.3244 851.8286,-162.6783"/>
<polygon fill="#000000" stroke="#000000" points="855.0513,-161.2941 848.4067,-153.0418 848.4548,-163.6366 855.0513,-161.2941"/>
</g>
<!-- api.vtbs.moe -->
<g id="node13" class="node">
<title>api.vtbs.moe</title>
<ellipse fill="none" stroke="#000000" cx="262" cy="-221" rx="55.1008" ry="18"/>
<text text-anchor="middle" x="262" y="-216.8" font-family="Times,serif" font-size="14.00" fill="#000000">api.vtbs.moe</text>
</g>
<!-- bili&#45;api&#45;&gt;api.vtbs.moe -->
<g id="edge7" class="edge">
<title>bili&#45;api&#45;&gt;api.vtbs.moe</title>
<path fill="none" stroke="#000000" d="M910.4463,-364.4473C873.8917,-334.1586 793.2282,-269.1539 760,-257 720.4085,-242.5185 453.4274,-229.2582 327.4991,-223.7252"/>
<polygon fill="#000000" stroke="#000000" points="327.3643,-220.216 317.2213,-223.277 327.0592,-227.2094 327.3643,-220.216"/>
</g>
<!-- bilibili&#45;live&#45;ws -->
<g id="node7" class="node">
<title>bilibili&#45;live&#45;ws</title>
<ellipse fill="none" stroke="#000000" cx="1031" cy="-566" rx="62.8425" ry="18"/>
<text text-anchor="middle" x="1031" y="-561.8" font-family="Times,serif" font-size="14.00" fill="#000000">bilibili&#45;live&#45;ws</text>
</g>
<!-- bilibili&#45;live&#45;ws&#45;&gt;bili&#45;api -->
<g id="edge6" class="edge">
<title>bilibili&#45;live&#45;ws&#45;&gt;bili&#45;api</title>
<path fill="none" stroke="#000000" d="M1021.2198,-548.1655C1003.2006,-515.307 964.6767,-445.0575 943.5695,-406.568"/>
<polygon fill="#000000" stroke="#000000" points="946.4789,-404.5941 938.6016,-397.5089 940.3412,-407.96 946.4789,-404.5941"/>
</g>
<!-- vd -->
<g id="node20" class="node">
<title>vd</title>
<ellipse fill="none" stroke="#000000" cx="443" cy="-473" rx="27" ry="18"/>
<text text-anchor="middle" x="443" y="-468.8" font-family="Times,serif" font-size="14.00" fill="#000000">vd</text>
</g>
<!-- bilibili&#45;live&#45;ws&#45;&gt;vd -->
<g id="edge9" class="edge">
<title>bilibili&#45;live&#45;ws&#45;&gt;vd</title>
<path fill="none" stroke="#000000" d="M975.9467,-557.2926C857.1043,-538.4961 579.223,-494.5455 479.4637,-478.7672"/>
<polygon fill="#000000" stroke="#000000" points="479.9807,-475.3056 469.5567,-477.2003 478.8871,-482.2196 479.9807,-475.3056"/>
</g>
<!-- BiliChat -->
<g id="node8" class="node">
<title>BiliChat</title>
<ellipse fill="none" stroke="#000000" cx="1232" cy="-566" rx="40.1576" ry="18"/>
<text text-anchor="middle" x="1232" y="-561.8" font-family="Times,serif" font-size="14.00" fill="#000000">BiliChat</text>
</g>
<!-- vtbs.moe -->
<g id="node16" class="node">
<title>vtbs.moe</title>
<ellipse fill="none" stroke="#000000" cx="282" cy="-42" rx="42.0717" ry="18"/>
<text text-anchor="middle" x="282" y="-37.8" font-family="Times,serif" font-size="14.00" fill="#000000">vtbs.moe</text>
</g>
<!-- BiliChat&#45;&gt;vtbs.moe -->
<g id="edge22" class="edge">
<title>BiliChat&#45;&gt;vtbs.moe</title>
<path fill="none" stroke="#000000" d="M1195.1739,-558.799C1152.8041,-548.124 1089,-523.6413 1089,-473 1089,-473 1089,-473 1089,-135 1089,-58.8181 514.1087,-44.9839 334.7731,-42.5217"/>
<polygon fill="#000000" stroke="#000000" points="334.5794,-39.0189 324.5344,-42.3877 334.4877,-46.0183 334.5794,-39.0189"/>
</g>
<!-- Hawk -->
<g id="node14" class="node">
<title>Hawk</title>
<ellipse fill="none" stroke="#000000" cx="211" cy="-380" rx="31.4549" ry="18"/>
<text text-anchor="middle" x="211" y="-375.8" font-family="Times,serif" font-size="14.00" fill="#000000">Hawk</text>
</g>
<!-- nodejieba&#45;&gt;Hawk -->
<g id="edge17" class="edge">
<title>nodejieba&#45;&gt;Hawk</title>
<path fill="none" stroke="#000000" d="M771.5982,-674.7253C642.9398,-667.8425 279,-646.1909 279,-621.5 279,-621.5 279,-621.5 279,-473 279,-464.8236 251.2574,-429.1502 231.2124,-404.442"/>
<polygon fill="#000000" stroke="#000000" points="233.7959,-402.0721 224.7608,-396.5387 228.3732,-406.4987 233.7959,-402.0721"/>
</g>
<!-- api.bilibili.com -->
<g id="node10" class="node">
<title>api.bilibili.com</title>
<ellipse fill="none" stroke="#000000" cx="943" cy="-677" rx="64.2873" ry="18"/>
<text text-anchor="middle" x="943" y="-672.8" font-family="Times,serif" font-size="14.00" fill="#000000">api.bilibili.com</text>
</g>
<!-- api.bilibili.com&#45;&gt;bili&#45;api -->
<g id="edge4" class="edge">
<title>api.bilibili.com&#45;&gt;bili&#45;api</title>
<path fill="none" stroke="#000000" d="M936,-658.7898C932.5,-648.0947 929,-634.2197 929,-621.5 929,-621.5 929,-621.5 929,-473 929,-451.27 929,-426.6839 929,-408.2508"/>
<polygon fill="#000000" stroke="#000000" points="932.5001,-408.1767 929,-398.1767 925.5001,-408.1768 932.5001,-408.1767"/>
</g>
<!-- api.live.bilibili.com -->
<g id="node11" class="node">
<title>api.live.bilibili.com</title>
<ellipse fill="none" stroke="#000000" cx="1105" cy="-677" rx="79.7307" ry="18"/>
<text text-anchor="middle" x="1105" y="-672.8" font-family="Times,serif" font-size="14.00" fill="#000000">api.live.bilibili.com</text>
</g>
<!-- api.live.bilibili.com&#45;&gt;bili&#45;api -->
<g id="edge5" class="edge">
<title>api.live.bilibili.com&#45;&gt;bili&#45;api</title>
<path fill="none" stroke="#000000" d="M1057.3472,-662.4011C1011.4705,-648 949,-627.3211 949,-621.5 949,-621.5 949,-621.5 949,-473 949,-450.6693 943.4205,-425.9831 938.1554,-407.6594"/>
<polygon fill="#000000" stroke="#000000" points="941.4593,-406.4929 935.2185,-397.9312 934.758,-408.516 941.4593,-406.4929"/>
</g>
<!-- broadcastlv.chat.bilibili.com -->
<g id="node12" class="node">
<title>broadcastlv.chat.bilibili.com</title>
<ellipse fill="none" stroke="#000000" cx="1313" cy="-677" rx="110.4362" ry="18"/>
<text text-anchor="middle" x="1313" y="-672.8" font-family="Times,serif" font-size="14.00" fill="#000000">broadcastlv.chat.bilibili.com</text>
</g>
<!-- broadcastlv.chat.bilibili.com&#45;&gt;bilibili&#45;live&#45;ws -->
<g id="edge8" class="edge">
<title>broadcastlv.chat.bilibili.com&#45;&gt;bilibili&#45;live&#45;ws</title>
<path fill="none" stroke="#000000" d="M1270.4764,-660.262C1218.6201,-639.8504 1131.2694,-605.4677 1077.6215,-584.351"/>
<polygon fill="#000000" stroke="#000000" points="1078.5997,-580.9747 1068.0126,-580.5688 1076.0358,-587.4883 1078.5997,-580.9747"/>
</g>
<!-- broadcastlv.chat.bilibili.com&#45;&gt;BiliChat -->
<g id="edge21" class="edge">
<title>broadcastlv.chat.bilibili.com&#45;&gt;BiliChat</title>
<path fill="none" stroke="#000000" d="M1299.6245,-658.6706C1286.2566,-640.3516 1265.592,-612.0334 1250.6235,-591.5211"/>
<polygon fill="#000000" stroke="#000000" points="1253.3171,-589.2748 1244.5951,-583.26 1247.6626,-593.4011 1253.3171,-589.2748"/>
</g>
<!-- api.vtbs.moe&#45;&gt;bilibili&#45;vtuber&#45;videos&#45;danmaku -->
<g id="edge11" class="edge">
<title>api.vtbs.moe&#45;&gt;bilibili&#45;vtuber&#45;videos&#45;danmaku</title>
<path fill="none" stroke="#000000" d="M312.4566,-213.5185C406.7108,-199.5429 611.3085,-169.206 736.7909,-150.6"/>
<polygon fill="#000000" stroke="#000000" points="737.4293,-154.0437 746.8077,-149.1147 736.4025,-147.1194 737.4293,-154.0437"/>
<text text-anchor="middle" x="605.0879" y="-173.8" font-family="Times,serif" font-size="14.00" fill="#000000">vtbs.js</text>
</g>
<!-- api.vtbs.moe&#45;&gt;vtbs.moe -->
<g id="edge3" class="edge">
<title>api.vtbs.moe&#45;&gt;vtbs.moe</title>
<path fill="none" stroke="#000000" d="M264.0278,-202.8515C267.5167,-171.6258 274.6795,-107.5184 278.8317,-70.3564"/>
<polygon fill="#000000" stroke="#000000" points="282.3347,-70.5234 279.9669,-60.1966 275.378,-69.7461 282.3347,-70.5234"/>
</g>
<!-- /v1 -->
<g id="node17" class="node">
<title>/v1</title>
<ellipse fill="none" stroke="#000000" cx="51" cy="-42" rx="27" ry="18"/>
<text text-anchor="middle" x="51" y="-37.8" font-family="Times,serif" font-size="14.00" fill="#000000">/v1</text>
</g>
<!-- api.vtbs.moe&#45;&gt;/v1 -->
<g id="edge25" class="edge">
<title>api.vtbs.moe&#45;&gt;/v1</title>
<path fill="none" stroke="#000000" stroke-dasharray="1,5" d="M236.1694,-205.0316C200.3568,-182.1772 134.6551,-137.6116 87,-90 80.2205,-83.2267 73.6643,-75.1224 68.0465,-67.5187"/>
<polygon fill="#000000" stroke="#000000" points="70.5804,-65.0434 61.9257,-58.9322 64.8803,-69.1067 70.5804,-65.0434"/>
</g>
<!-- /vd -->
<g id="node18" class="node">
<title>/vd</title>
<ellipse fill="none" stroke="#000000" cx="123" cy="-42" rx="27" ry="18"/>
<text text-anchor="middle" x="123" y="-37.8" font-family="Times,serif" font-size="14.00" fill="#000000">/vd</text>
</g>
<!-- api.vtbs.moe&#45;&gt;/vd -->
<g id="edge26" class="edge">
<title>api.vtbs.moe&#45;&gt;/vd</title>
<path fill="none" stroke="#000000" stroke-dasharray="1,5" d="M247.8766,-203.3018C227.9101,-178.2219 190.3662,-130.8429 159,-90 153.2542,-82.5182 147.0684,-74.3229 141.4729,-66.8552"/>
<polygon fill="#000000" stroke="#000000" points="144.0266,-64.4255 135.2374,-58.5094 138.419,-68.6153 144.0266,-64.4255"/>
</g>
<!-- /vds -->
<g id="node19" class="node">
<title>/vds</title>
<ellipse fill="none" stroke="#000000" cx="195" cy="-42" rx="27" ry="18"/>
<text text-anchor="middle" x="195" y="-37.8" font-family="Times,serif" font-size="14.00" fill="#000000">/vds</text>
</g>
<!-- api.vtbs.moe&#45;&gt;/vds -->
<g id="edge27" class="edge">
<title>api.vtbs.moe&#45;&gt;/vds</title>
<path fill="none" stroke="#000000" stroke-dasharray="1,5" d="M255.207,-202.8515C243.4082,-171.3293 219.0668,-106.298 205.2204,-69.3051"/>
<polygon fill="#000000" stroke="#000000" points="208.3959,-67.8044 201.6124,-59.6659 201.84,-70.2583 208.3959,-67.8044"/>
</g>
<!-- api.vtbs.moe&#45;&gt;vd -->
<g id="edge10" class="edge">
<title>api.vtbs.moe&#45;&gt;vd</title>
<path fill="none" stroke="#000000" d="M316.8405,-223.8218C406.2282,-229.1007 578.9022,-242.3301 634,-268 685.0307,-291.775 704.4437,-302.419 727,-354 740.1774,-384.1336 748.3588,-402.9904 727,-428 711.1251,-446.5883 553.2921,-463.075 480.02,-469.7946"/>
<polygon fill="#000000" stroke="#000000" points="479.4941,-466.3278 469.8499,-470.7143 480.1245,-473.2994 479.4941,-466.3278"/>
<text text-anchor="middle" x="740.0879" y="-332.8" font-family="Times,serif" font-size="14.00" fill="#000000">vtbs.js</text>
</g>
<!-- Hawk&#45;&gt;api.vtbs.moe -->
<g id="edge2" class="edge">
<title>Hawk&#45;&gt;api.vtbs.moe</title>
<path fill="none" stroke="#000000" d="M194.3863,-364.4355C172.6445,-342.1245 139.5998,-300.1943 160.1963,-268 170.5085,-251.881 187.9109,-241.2111 205.4382,-234.1822"/>
<polygon fill="#000000" stroke="#000000" points="206.95,-237.3563 215.1442,-230.6403 204.5503,-230.7805 206.95,-237.3563"/>
<text text-anchor="middle" x="212.9019" y="-289.8" font-family="Times,serif" font-size="14.00" fill="#000000">Danmaku Analyze</text>
</g>
<!-- Snake -->
<g id="node15" class="node">
<title>Snake</title>
<ellipse fill="none" stroke="#000000" cx="292" cy="-380" rx="31.9393" ry="18"/>
<text text-anchor="middle" x="292" y="-375.8" font-family="Times,serif" font-size="14.00" fill="#000000">Snake</text>
</g>
<!-- Snake&#45;&gt;api.vtbs.moe -->
<g id="edge1" class="edge">
<title>Snake&#45;&gt;api.vtbs.moe</title>
<path fill="none" stroke="#000000" d="M286.7077,-362.2422C282.7992,-348.602 277.5888,-329.2415 274.1895,-312 270.0848,-291.181 266.9529,-267.4064 264.892,-249.3799"/>
<polygon fill="#000000" stroke="#000000" points="268.3487,-248.7939 263.7756,-239.2369 261.3907,-249.5598 268.3487,-248.7939"/>
<text text-anchor="middle" x="305.9053" y="-289.8" font-family="Times,serif" font-size="14.00" fill="#000000">Live Event</text>
</g>
<!-- vd&#45;&gt;txt_to_csv -->
<g id="edge18" class="edge">
<title>vd&#45;&gt;txt_to_csv</title>
<path fill="none" stroke="#000000" d="M470.0292,-471.3681C508.6688,-468.0259 580.8883,-457.9638 634,-428 644.0072,-422.3543 653.2726,-413.9454 660.8852,-405.7362"/>
<polygon fill="#000000" stroke="#000000" points="663.6867,-407.8499 667.6477,-398.0233 658.4233,-403.235 663.6867,-407.8499"/>
</g>
<!-- vd&#45;&gt;script&#45;anti&#45;back&#45;end -->
<g id="edge19" class="edge">
<title>vd&#45;&gt;script&#45;anti&#45;back&#45;end</title>
<path fill="none" stroke="#000000" d="M460.6658,-459.077C478.9089,-444.6989 507.7477,-421.97 529.8348,-404.5624"/>
<polygon fill="#000000" stroke="#000000" points="532.2457,-407.1187 537.9332,-398.1798 527.9127,-401.6209 532.2457,-407.1187"/>
</g>
<!-- vd&#45;&gt;api.vtbs.moe -->
<g id="edge23" class="edge">
<title>vd&#45;&gt;api.vtbs.moe</title>
<path fill="none" stroke="#000000" stroke-dasharray="1,5" d="M415.9371,-472.351C354.1433,-470.2877 205.356,-461.8398 171,-428 119.9032,-377.6709 117.581,-331.9758 150,-268 156.0485,-256.0638 183.6268,-244.411 209.9011,-235.6943"/>
<polygon fill="#000000" stroke="#000000" points="211.0274,-239.0088 219.4798,-232.6207 208.8886,-232.3435 211.0274,-239.0088"/>
</g>
<!-- vd&#45;&gt;Hawk -->
<g id="edge14" class="edge">
<title>vd&#45;&gt;Hawk</title>
<path fill="none" stroke="#000000" d="M417.8829,-466.3671C388.1685,-458.6219 337.1546,-445.6437 293,-436 274.4353,-431.9454 267.3747,-437.6413 251,-428 241.6057,-422.4687 233.4226,-413.8826 226.9477,-405.4928"/>
<polygon fill="#000000" stroke="#000000" points="229.7344,-403.3728 221.0605,-397.2888 224.0471,-407.454 229.7344,-403.3728"/>
</g>
<!-- vd&#45;&gt;Snake -->
<g id="edge15" class="edge">
<title>vd&#45;&gt;Snake</title>
<path fill="none" stroke="#000000" d="M418.1031,-465.911C395.3783,-458.6864 361.5403,-445.9831 336,-428 326.8491,-421.5568 318.1956,-412.9185 311.0233,-404.7466"/>
<polygon fill="#000000" stroke="#000000" points="313.4895,-402.2405 304.3812,-396.8286 308.1266,-406.7393 313.4895,-402.2405"/>
</g>
<!-- vdMonster -->
<g id="node21" class="node">
<title>vdMonster</title>
<ellipse fill="none" stroke="#000000" cx="413" cy="-294" rx="48.3514" ry="18"/>
<text text-anchor="middle" x="413" y="-289.8" font-family="Times,serif" font-size="14.00" fill="#000000">vdMonster</text>
</g>
<!-- vd&#45;&gt;vdMonster -->
<g id="edge13" class="edge">
<title>vd&#45;&gt;vdMonster</title>
<path fill="none" stroke="#000000" d="M439.9583,-454.8515C434.725,-423.6258 423.9807,-359.5184 417.7525,-322.3564"/>
<polygon fill="#000000" stroke="#000000" points="421.1546,-321.4805 416.0497,-312.1966 414.2509,-322.6376 421.1546,-321.4805"/>
</g>
<!-- vdMonster&#45;&gt;api.vtbs.moe -->
<g id="edge24" class="edge">
<title>vdMonster&#45;&gt;api.vtbs.moe</title>
<path fill="none" stroke="#000000" stroke-dasharray="1,5" d="M383.1673,-279.5775C359.973,-268.3645 327.5683,-252.6986 302.1055,-240.3888"/>
<polygon fill="#000000" stroke="#000000" points="303.595,-237.2213 293.0685,-236.0199 300.5482,-243.5235 303.595,-237.2213"/>
</g>
</g>
</svg>
