<?xml version="1.0" encoding="UTF-8" standalone="no"?>
<!DOCTYPE svg PUBLIC "-//W3C//DTD SVG 1.1//EN"
 "http://www.w3.org/Graphics/SVG/1.1/DTD/svg11.dtd">
<!-- Generated by graphviz version 2.40.1 (20161225.0304)
 -->
<!-- Title: %3 Pages: 1 -->
<svg width="1687pt" height="899pt"
 viewBox="0.00 0.00 1687.38 899.00" xmlns="http://www.w3.org/2000/svg" xmlns:xlink="http://www.w3.org/1999/xlink">
<g id="graph0" class="graph" transform="scale(1 1) rotate(0) translate(4 895)">
<title>%3</title>
<polygon fill="#ffffff" stroke="transparent" points="-4,4 -4,-895 1683.3794,-895 1683.3794,4 -4,4"/>
<g id="clust1" class="cluster">
<title>cluster_bilibili_package</title>
<polygon fill="none" stroke="#000000" points="775,-354 775,-790 1450,-790 1450,-354 775,-354"/>
<text text-anchor="middle" x="1112.5" y="-774.8" font-family="Times,serif" font-size="14.00" fill="#000000">Extenal</text>
</g>
<g id="clust2" class="cluster">
<title>cluster_bilibili&#45;</title>
<polygon fill="none" stroke="#000000" points="882,-686 882,-760 1442,-760 1442,-686 882,-686"/>
<text text-anchor="middle" x="1162" y="-744.8" font-family="Times,serif" font-size="14.00" fill="#000000">bilibili.com</text>
</g>
<g id="clust3" class="cluster">
<title>cluster_vtbs.moe</title>
<polygon fill="none" stroke="#000000" points="8,-8 8,-428 438,-428 438,-8 8,-8"/>
<text text-anchor="middle" x="223" y="-412.8" font-family="Times,serif" font-size="14.00" fill="#000000">vtbs.moe</text>
</g>
<g id="clust4" class="cluster">
<title>cluster_open_api</title>
<polygon fill="none" stroke="#000000" points="16,-16 16,-90 336,-90 336,-16 16,-16"/>
<text text-anchor="middle" x="176" y="-74.8" font-family="Times,serif" font-size="14.00" fill="#000000">api.vtbs.moe Public API</text>
</g>
<g id="clust5" class="cluster">
<title>cluster_bilibili&#45;vtuber&#45;danmaku</title>
<polygon fill="none" stroke="#000000" points="1428,-809 1428,-883 1634,-883 1634,-809 1428,-809"/>
<text text-anchor="middle" x="1531" y="-867.8" font-family="Times,serif" font-size="14.00" fill="#000000">bilibili&#45;vtuber&#45;danmaku (inactive)</text>
</g>
<g id="clust6" class="cluster">
<title>cluster_bilibili&#45;vtuber&#45;danmaku&#45;relay</title>
<polygon fill="none" stroke="#000000" points="396,-447 396,-521 603,-521 603,-447 396,-447"/>
<text text-anchor="middle" x="499.5" y="-505.8" font-family="Times,serif" font-size="14.00" fill="#000000">bilibili&#45;vtuber&#45;live&#45;danmaku&#45;relay</text>
</g>
<g id="clust7" class="cluster">
<title>cluster_influx&#45;bilibili&#45;vtuber&#45;danmaku</title>
<polygon fill="none" stroke="#000000" points="612,-268 612,-521 767,-521 767,-268 612,-268"/>
<text text-anchor="middle" x="689.5" y="-505.8" font-family="Times,serif" font-size="14.00" fill="#000000">influx&#45;danmaku&#45;recorder</text>
</g>
<!-- dictionary -->
<g id="node1" class="node">
<title>dictionary</title>
<polygon fill="none" stroke="#000000" points="863.2592,-853 790.7408,-853 790.7408,-817 863.2592,-817 863.2592,-853"/>
<text text-anchor="middle" x="827" y="-830.8" font-family="Times,serif" font-size="14.00" fill="#000000">dictionary</text>
</g>
<!-- nodejieba -->
<g id="node11" class="node">
<title>nodejieba</title>
<ellipse fill="none" stroke="#000000" cx="827" cy="-712" rx="44.4664" ry="18"/>
<text text-anchor="middle" x="827" y="-707.8" font-family="Times,serif" font-size="14.00" fill="#000000">nodejieba</text>
</g>
<!-- dictionary&#45;&gt;nodejieba -->
<g id="edge20" class="edge">
<title>dictionary&#45;&gt;nodejieba</title>
<path fill="none" stroke="#000000" d="M827,-816.8509C827,-796.6843 827,-763.8643 827,-740.3133"/>
<polygon fill="#000000" stroke="#000000" points="830.5001,-740.2235 827,-730.2235 823.5001,-740.2236 830.5001,-740.2235"/>
</g>
<!-- txt_to_csv -->
<g id="node2" class="node">
<title>txt_to_csv</title>
<polygon fill="none" stroke="#000000" points="1532.3318,-730 1457.6682,-730 1457.6682,-694 1532.3318,-694 1532.3318,-730"/>
<text text-anchor="middle" x="1495" y="-707.8" font-family="Times,serif" font-size="14.00" fill="#000000">txt_to_csv</text>
</g>
<!-- vdb -->
<g id="node3" class="node">
<title>vdb</title>
<polygon fill="none" stroke="#000000" points="540,-398 486,-398 486,-362 540,-362 540,-398"/>
<text text-anchor="middle" x="513" y="-375.8" font-family="Times,serif" font-size="14.00" fill="#000000">vdb</text>
</g>
<!-- api.vtb.wiki -->
<g id="node7" class="node">
<title>api.vtb.wiki</title>
<polygon fill="none" stroke="#000000" points="528.3829,-312 445.6171,-312 445.6171,-276 528.3829,-276 528.3829,-312"/>
<text text-anchor="middle" x="487" y="-289.8" font-family="Times,serif" font-size="14.00" fill="#000000">api.vtb.wiki</text>
</g>
<!-- vdb&#45;&gt;api.vtb.wiki -->
<g id="edge1" class="edge">
<title>vdb&#45;&gt;api.vtb.wiki</title>
<path fill="none" stroke="#000000" stroke-dasharray="1,5" d="M507.4861,-361.7616C504.0045,-350.2456 499.4363,-335.1353 495.4973,-322.1064"/>
<polygon fill="#000000" stroke="#000000" points="498.7502,-320.7713 492.506,-312.2121 492.0497,-322.7971 498.7502,-320.7713"/>
</g>
<!-- api.vtbs.moe -->
<g id="node15" class="node">
<title>api.vtbs.moe</title>
<ellipse fill="none" stroke="#000000" cx="375" cy="-221" rx="55.1008" ry="18"/>
<text text-anchor="middle" x="375" y="-216.8" font-family="Times,serif" font-size="14.00" fill="#000000">api.vtbs.moe</text>
</g>
<!-- vdb&#45;&gt;api.vtbs.moe -->
<g id="edge17" class="edge">
<title>vdb&#45;&gt;api.vtbs.moe</title>
<path fill="none" stroke="#000000" d="M524.9647,-361.8146C539.0105,-337.9459 557.9,-295.8253 537,-268 524.4892,-251.3436 475.8506,-238.6846 435.1035,-230.7243"/>
<polygon fill="#000000" stroke="#000000" points="435.6866,-227.2726 425.2101,-228.8515 434.3846,-234.1505 435.6866,-227.2726"/>
</g>
<!-- bilibili&#45;live&#45;noscript -->
<g id="node4" class="node">
<title>bilibili&#45;live&#45;noscript</title>
<polygon fill="none" stroke="#000000" points="1679.259,-657 1550.741,-657 1550.741,-621 1679.259,-621 1679.259,-657"/>
<text text-anchor="middle" x="1615" y="-634.8" font-family="Times,serif" font-size="14.00" fill="#000000">bilibili&#45;live&#45;noscript</text>
</g>
<!-- bilibili&#45;vtuber&#45;videos&#45;danmaku -->
<g id="node5" class="node">
<title>bilibili&#45;vtuber&#45;videos&#45;danmaku</title>
<polygon fill="none" stroke="#000000" points="827.1858,-153 636.8142,-153 636.8142,-117 827.1858,-117 827.1858,-153"/>
<text text-anchor="middle" x="732" y="-130.8" font-family="Times,serif" font-size="14.00" fill="#000000">bilibili&#45;vtuber&#45;videos&#45;danmaku</text>
</g>
<!-- script&#45;anti&#45;back&#45;end -->
<g id="node6" class="node">
<title>script&#45;anti&#45;back&#45;end</title>
<polygon fill="none" stroke="#000000" points="1679.2249,-730 1550.7751,-730 1550.7751,-694 1679.2249,-694 1679.2249,-730"/>
<text text-anchor="middle" x="1615" y="-707.8" font-family="Times,serif" font-size="14.00" fill="#000000">script&#45;anti&#45;back&#45;end</text>
</g>
<!-- script&#45;anti&#45;back&#45;end&#45;&gt;bilibili&#45;live&#45;noscript -->
<g id="edge25" class="edge">
<title>script&#45;anti&#45;back&#45;end&#45;&gt;bilibili&#45;live&#45;noscript</title>
<path fill="none" stroke="#000000" d="M1615,-693.9551C1615,-685.8828 1615,-676.1764 1615,-667.1817"/>
<polygon fill="#000000" stroke="#000000" points="1618.5001,-667.0903 1615,-657.0904 1611.5001,-667.0904 1618.5001,-667.0903"/>
</g>
<!-- api.vtb.wiki&#45;&gt;api.vtbs.moe -->
<g id="edge19" class="edge">
<title>api.vtb.wiki&#45;&gt;api.vtbs.moe</title>
<path fill="none" stroke="#000000" d="M459.3146,-275.9551C444.0108,-265.9802 424.8784,-253.51 408.709,-242.971"/>
<polygon fill="#000000" stroke="#000000" points="410.3627,-239.8711 400.074,-237.3429 406.5404,-245.7355 410.3627,-239.8711"/>
</g>
<!-- bili&#45;api -->
<g id="node8" class="node">
<title>bili&#45;api</title>
<ellipse fill="none" stroke="#000000" cx="935" cy="-380" rx="35.7974" ry="18"/>
<text text-anchor="middle" x="935" y="-375.8" font-family="Times,serif" font-size="14.00" fill="#000000">bili&#45;api</text>
</g>
<!-- bili&#45;api&#45;&gt;bilibili&#45;vtuber&#45;videos&#45;danmaku -->
<g id="edge14" class="edge">
<title>bili&#45;api&#45;&gt;bilibili&#45;vtuber&#45;videos&#45;danmaku</title>
<path fill="none" stroke="#000000" d="M921.047,-363.1602C886.2571,-321.1724 795.4691,-211.6007 753.6562,-161.1368"/>
<polygon fill="#000000" stroke="#000000" points="756.2218,-158.7474 747.1465,-153.2802 750.8316,-163.2135 756.2218,-158.7474"/>
</g>
<!-- bili&#45;api&#45;&gt;api.vtbs.moe -->
<g id="edge9" class="edge">
<title>bili&#45;api&#45;&gt;api.vtbs.moe</title>
<path fill="none" stroke="#000000" d="M906.1568,-369.0625C890.9704,-362.726 872.364,-354.0238 857,-344 814.2796,-316.1281 816.0761,-291.8751 771,-268 715.1605,-238.4239 537.6127,-227.1296 440.3149,-223.0831"/>
<polygon fill="#000000" stroke="#000000" points="440.428,-219.5849 430.2955,-222.6802 440.1467,-226.5793 440.428,-219.5849"/>
</g>
<!-- bilibili&#45;live&#45;ws -->
<g id="node9" class="node">
<title>bilibili&#45;live&#45;ws</title>
<ellipse fill="none" stroke="#000000" cx="1017" cy="-566" rx="62.8425" ry="18"/>
<text text-anchor="middle" x="1017" y="-561.8" font-family="Times,serif" font-size="14.00" fill="#000000">bilibili&#45;live&#45;ws</text>
</g>
<!-- bilibili&#45;live&#45;ws&#45;&gt;bili&#45;api -->
<g id="edge8" class="edge">
<title>bilibili&#45;live&#45;ws&#45;&gt;bili&#45;api</title>
<path fill="none" stroke="#000000" d="M1008.9882,-547.8269C994.5237,-515.0171 963.9785,-445.7318 947.0071,-407.2356"/>
<polygon fill="#000000" stroke="#000000" points="950.0403,-405.4393 942.8036,-397.7009 943.6351,-408.2631 950.0403,-405.4393"/>
</g>
<!-- vd -->
<g id="node24" class="node">
<title>vd</title>
<ellipse fill="none" stroke="#000000" cx="567" cy="-473" rx="27" ry="18"/>
<text text-anchor="middle" x="567" y="-468.8" font-family="Times,serif" font-size="14.00" fill="#000000">vd</text>
</g>
<!-- bilibili&#45;live&#45;ws&#45;&gt;vd -->
<g id="edge11" class="edge">
<title>bilibili&#45;live&#45;ws&#45;&gt;vd</title>
<path fill="none" stroke="#000000" d="M954.3527,-564.6924C855.0037,-561.6969 666.5616,-551.991 608,-521 598.1195,-515.7712 589.6037,-507.089 582.9336,-498.5354"/>
<polygon fill="#000000" stroke="#000000" points="585.5824,-496.2243 576.8966,-490.1573 579.9032,-500.3166 585.5824,-496.2243"/>
</g>
<!-- BiliChat -->
<g id="node10" class="node">
<title>BiliChat</title>
<ellipse fill="none" stroke="#000000" cx="1245" cy="-566" rx="40.1576" ry="18"/>
<text text-anchor="middle" x="1245" y="-561.8" font-family="Times,serif" font-size="14.00" fill="#000000">BiliChat</text>
</g>
<!-- vtbs.moe -->
<g id="node18" class="node">
<title>vtbs.moe</title>
<ellipse fill="none" stroke="#000000" cx="388" cy="-42" rx="42.0717" ry="18"/>
<text text-anchor="middle" x="388" y="-37.8" font-family="Times,serif" font-size="14.00" fill="#000000">vtbs.moe</text>
</g>
<!-- BiliChat&#45;&gt;vtbs.moe -->
<g id="edge28" class="edge">
<title>BiliChat&#45;&gt;vtbs.moe</title>
<path fill="none" stroke="#000000" d="M1227.8991,-549.5608C1211.7538,-532.198 1190,-503.2004 1190,-473 1190,-473 1190,-473 1190,-135 1190,-59.3268 619.3185,-45.1452 440.7498,-42.56"/>
<polygon fill="#000000" stroke="#000000" points="440.6003,-39.0577 430.5528,-42.419 440.5033,-46.0571 440.6003,-39.0577"/>
</g>
<!-- Hawk -->
<g id="node16" class="node">
<title>Hawk</title>
<ellipse fill="none" stroke="#000000" cx="239" cy="-380" rx="31.4549" ry="18"/>
<text text-anchor="middle" x="239" y="-375.8" font-family="Times,serif" font-size="14.00" fill="#000000">Hawk</text>
</g>
<!-- nodejieba&#45;&gt;Hawk -->
<g id="edge23" class="edge">
<title>nodejieba&#45;&gt;Hawk</title>
<path fill="none" stroke="#000000" d="M782.9082,-709.531C633.4063,-700.8714 155,-670.6853 155,-639 155,-639 155,-639 155,-473 155,-440.4463 183.6951,-414.1765 207.5423,-397.9657"/>
<polygon fill="#000000" stroke="#000000" points="209.5575,-400.8305 216.0466,-392.4554 205.7511,-394.9559 209.5575,-400.8305"/>
</g>
<!-- api.bilibili.com -->
<g id="node12" class="node">
<title>api.bilibili.com</title>
<ellipse fill="none" stroke="#000000" cx="954" cy="-712" rx="64.2873" ry="18"/>
<text text-anchor="middle" x="954" y="-707.8" font-family="Times,serif" font-size="14.00" fill="#000000">api.bilibili.com</text>
</g>
<!-- api.bilibili.com&#45;&gt;bili&#45;api -->
<g id="edge6" class="edge">
<title>api.bilibili.com&#45;&gt;bili&#45;api</title>
<path fill="none" stroke="#000000" d="M946.5997,-694.0372C941.2648,-679.4634 935,-658.2509 935,-639 935,-639 935,-639 935,-473 935,-451.27 935,-426.6839 935,-408.2508"/>
<polygon fill="#000000" stroke="#000000" points="938.5001,-408.1767 935,-398.1767 931.5001,-408.1768 938.5001,-408.1767"/>
</g>
<!-- api.live.bilibili.com -->
<g id="node13" class="node">
<title>api.live.bilibili.com</title>
<ellipse fill="none" stroke="#000000" cx="1116" cy="-712" rx="79.7307" ry="18"/>
<text text-anchor="middle" x="1116" y="-707.8" font-family="Times,serif" font-size="14.00" fill="#000000">api.live.bilibili.com</text>
</g>
<!-- api.live.bilibili.com&#45;&gt;bili&#45;api -->
<g id="edge7" class="edge">
<title>api.live.bilibili.com&#45;&gt;bili&#45;api</title>
<path fill="none" stroke="#000000" d="M1112.4946,-693.7764C1109.9675,-679.055 1107,-657.7713 1107,-639 1107,-639 1107,-639 1107,-473 1107,-415.358 1031.3284,-393.2671 980.3694,-384.9256"/>
<polygon fill="#000000" stroke="#000000" points="980.6329,-381.4258 970.2218,-383.3903 979.5856,-388.347 980.6329,-381.4258"/>
</g>
<!-- broadcastlv.chat.bilibili.com -->
<g id="node14" class="node">
<title>broadcastlv.chat.bilibili.com</title>
<ellipse fill="none" stroke="#000000" cx="1324" cy="-712" rx="110.4362" ry="18"/>
<text text-anchor="middle" x="1324" y="-707.8" font-family="Times,serif" font-size="14.00" fill="#000000">broadcastlv.chat.bilibili.com</text>
</g>
<!-- broadcastlv.chat.bilibili.com&#45;&gt;bilibili&#45;live&#45;ws -->
<g id="edge10" class="edge">
<title>broadcastlv.chat.bilibili.com&#45;&gt;bilibili&#45;live&#45;ws</title>
<path fill="none" stroke="#000000" d="M1288.1824,-694.9662C1231.1298,-667.8337 1119.8715,-614.9226 1059.0993,-586.0212"/>
<polygon fill="#000000" stroke="#000000" points="1060.3292,-582.7305 1049.7953,-581.5964 1057.3229,-589.052 1060.3292,-582.7305"/>
</g>
<!-- broadcastlv.chat.bilibili.com&#45;&gt;BiliChat -->
<g id="edge27" class="edge">
<title>broadcastlv.chat.bilibili.com&#45;&gt;BiliChat</title>
<path fill="none" stroke="#000000" d="M1314.1543,-693.8042C1300.3449,-668.283 1275.1399,-621.7016 1259.2731,-592.3781"/>
<polygon fill="#000000" stroke="#000000" points="1262.3131,-590.6418 1254.4759,-583.5124 1256.1566,-593.9731 1262.3131,-590.6418"/>
</g>
<!-- api.vtbs.moe&#45;&gt;bilibili&#45;vtuber&#45;videos&#45;danmaku -->
<g id="edge13" class="edge">
<title>api.vtbs.moe&#45;&gt;bilibili&#45;vtuber&#45;videos&#45;danmaku</title>
<path fill="none" stroke="#000000" d="M419.4925,-210.2819C476.2611,-196.6066 575.6448,-172.6654 647.1099,-155.4497"/>
<polygon fill="#000000" stroke="#000000" points="648.0991,-158.8116 657.0013,-153.0669 646.4597,-152.0063 648.0991,-158.8116"/>
<text text-anchor="middle" x="592.0879" y="-173.8" font-family="Times,serif" font-size="14.00" fill="#000000">vtbs.js</text>
</g>
<!-- api.vtbs.moe&#45;&gt;vtbs.moe -->
<g id="edge4" class="edge">
<title>api.vtbs.moe&#45;&gt;vtbs.moe</title>
<path fill="none" stroke="#000000" d="M376.3181,-202.8515C378.5858,-171.6258 383.2417,-107.5184 385.9406,-70.3564"/>
<polygon fill="#000000" stroke="#000000" points="389.4448,-70.4239 386.6785,-60.1966 382.4632,-69.9168 389.4448,-70.4239"/>
</g>
<!-- /v1 -->
<g id="node19" class="node">
<title>/v1</title>
<ellipse fill="none" stroke="#000000" cx="301" cy="-42" rx="27" ry="18"/>
<text text-anchor="middle" x="301" y="-37.8" font-family="Times,serif" font-size="14.00" fill="#000000">/v1</text>
</g>
<!-- api.vtbs.moe&#45;&gt;/v1 -->
<g id="edge30" class="edge">
<title>api.vtbs.moe&#45;&gt;/v1</title>
<path fill="none" stroke="#000000" stroke-dasharray="1,5" d="M367.4973,-202.8515C354.4322,-171.2481 327.4426,-105.9625 312.1701,-69.0197"/>
<polygon fill="#000000" stroke="#000000" points="315.2496,-67.3073 308.1945,-59.403 308.7806,-69.9816 315.2496,-67.3073"/>
</g>
<!-- /v2 -->
<g id="node20" class="node">
<title>/v2</title>
<ellipse fill="none" stroke="#000000" cx="51" cy="-42" rx="27" ry="18"/>
<text text-anchor="middle" x="51" y="-37.8" font-family="Times,serif" font-size="14.00" fill="#000000">/v2</text>
</g>
<!-- api.vtbs.moe&#45;&gt;/v2 -->
<g id="edge31" class="edge">
<title>api.vtbs.moe&#45;&gt;/v2</title>
<path fill="none" stroke="#000000" stroke-dasharray="1,5" d="M330.631,-210.1969C269.5108,-193.4072 158.8358,-155.9229 87,-90 79.673,-83.2761 72.8042,-74.8917 67.0709,-67.0204"/>
<polygon fill="#000000" stroke="#000000" points="69.918,-64.9843 61.3273,-58.7835 64.1761,-68.9881 69.918,-64.9843"/>
</g>
<!-- /vds -->
<g id="node21" class="node">
<title>/vds</title>
<ellipse fill="none" stroke="#000000" cx="123" cy="-42" rx="27" ry="18"/>
<text text-anchor="middle" x="123" y="-37.8" font-family="Times,serif" font-size="14.00" fill="#000000">/vds</text>
</g>
<!-- api.vtbs.moe&#45;&gt;/vds -->
<g id="edge32" class="edge">
<title>api.vtbs.moe&#45;&gt;/vds</title>
<path fill="none" stroke="#000000" stroke-dasharray="1,5" d="M342.7975,-206.347C298.2186,-185.037 216.6852,-142.2747 159,-90 151.631,-83.3221 144.7515,-74.9495 139.0213,-67.0748"/>
<polygon fill="#000000" stroke="#000000" points="141.8693,-65.0398 133.2857,-58.8291 136.1228,-69.037 141.8693,-65.0398"/>
</g>
<!-- /endpoint -->
<g id="node22" class="node">
<title>/endpoint</title>
<ellipse fill="none" stroke="#000000" cx="212" cy="-42" rx="43.5233" ry="18"/>
<text text-anchor="middle" x="212" y="-37.8" font-family="Times,serif" font-size="14.00" fill="#000000">/endpoint</text>
</g>
<!-- api.vtbs.moe&#45;&gt;/endpoint -->
<g id="edge33" class="edge">
<title>api.vtbs.moe&#45;&gt;/endpoint</title>
<path fill="none" stroke="#000000" stroke-dasharray="1,5" d="M359.0741,-203.5108C329.9544,-171.5327 268.0482,-103.5499 234.589,-66.8064"/>
<polygon fill="#000000" stroke="#000000" points="236.8329,-64.072 227.5121,-59.0348 231.6572,-68.7851 236.8329,-64.072"/>
</g>
<!-- api.vtbs.moe&#45;&gt;vd -->
<g id="edge12" class="edge">
<title>api.vtbs.moe&#45;&gt;vd</title>
<path fill="none" stroke="#000000" d="M326.7373,-230.0414C299.4831,-236.9718 265.9831,-248.7218 241,-268 182.7941,-312.9144 150.2128,-372.9996 199,-428 220.7273,-452.4943 440.4056,-466.4801 529.6304,-471.1879"/>
<polygon fill="#000000" stroke="#000000" points="529.6752,-474.6948 539.8427,-471.7161 530.0369,-467.7041 529.6752,-474.6948"/>
<text text-anchor="middle" x="203.0879" y="-332.8" font-family="Times,serif" font-size="14.00" fill="#000000">vtbs.js</text>
</g>
<!-- eagle -->
<g id="node25" class="node">
<title>eagle</title>
<ellipse fill="none" stroke="#000000" cx="658" cy="-473" rx="28.524" ry="18"/>
<text text-anchor="middle" x="658" y="-468.8" font-family="Times,serif" font-size="14.00" fill="#000000">eagle</text>
</g>
<!-- api.vtbs.moe&#45;&gt;eagle -->
<g id="edge18" class="edge">
<title>api.vtbs.moe&#45;&gt;eagle</title>
<path fill="none" stroke="#000000" d="M429.1735,-225.1236C515.8921,-232.2809 677.9223,-248.1561 695,-268 739.176,-319.3313 698.9264,-405.2556 674.126,-447.6987"/>
<polygon fill="#000000" stroke="#000000" points="671.1034,-445.9335 668.9557,-456.3084 677.1045,-449.5373 671.1034,-445.9335"/>
</g>
<!-- Hawk&#45;&gt;api.vtbs.moe -->
<g id="edge3" class="edge">
<title>Hawk&#45;&gt;api.vtbs.moe</title>
<path fill="none" stroke="#000000" d="M238.6562,-361.9105C239.1518,-337.7631 243.4922,-294.921 266.1963,-268 279.7008,-251.9872 299.6704,-241.2774 318.8277,-234.1852"/>
<polygon fill="#000000" stroke="#000000" points="320.1085,-237.4462 328.4329,-230.8922 317.8383,-230.8245 320.1085,-237.4462"/>
<text text-anchor="middle" x="317.9019" y="-289.8" font-family="Times,serif" font-size="14.00" fill="#000000">Danmaku Analyze</text>
</g>
<!-- Snake -->
<g id="node17" class="node">
<title>Snake</title>
<ellipse fill="none" stroke="#000000" cx="382" cy="-380" rx="31.9393" ry="18"/>
<text text-anchor="middle" x="382" y="-375.8" font-family="Times,serif" font-size="14.00" fill="#000000">Snake</text>
</g>
<!-- Snake&#45;&gt;api.vtbs.moe -->
<g id="edge2" class="edge">
<title>Snake&#45;&gt;api.vtbs.moe</title>
<path fill="none" stroke="#000000" d="M379.6957,-361.8535C378.0774,-348.1766 376.0536,-328.9444 375.1895,-312 374.1183,-290.9953 374.11,-267.2281 374.3487,-249.2516"/>
<polygon fill="#000000" stroke="#000000" points="377.85,-249.1996 374.5168,-239.1427 370.8509,-249.0831 377.85,-249.1996"/>
<text text-anchor="middle" x="405.9053" y="-289.8" font-family="Times,serif" font-size="14.00" fill="#000000">Live Event</text>
</g>
<!-- vdMonster -->
<g id="node23" class="node">
<title>vdMonster</title>
<ellipse fill="none" stroke="#000000" cx="1531" cy="-835" rx="48.3514" ry="18"/>
<text text-anchor="middle" x="1531" y="-830.8" font-family="Times,serif" font-size="14.00" fill="#000000">vdMonster</text>
</g>
<!-- vdMonster&#45;&gt;txt_to_csv -->
<g id="edge26" class="edge">
<title>vdMonster&#45;&gt;txt_to_csv</title>
<path fill="none" stroke="#000000" d="M1525.6881,-816.8509C1519.7591,-796.5935 1510.0932,-763.5684 1503.1938,-739.9956"/>
<polygon fill="#000000" stroke="#000000" points="1506.5019,-738.8377 1500.3337,-730.2235 1499.7837,-740.8041 1506.5019,-738.8377"/>
</g>
<!-- vdMonster&#45;&gt;script&#45;anti&#45;back&#45;end -->
<g id="edge24" class="edge">
<title>vdMonster&#45;&gt;script&#45;anti&#45;back&#45;end</title>
<path fill="none" stroke="#000000" d="M1543.0352,-817.3771C1557.0954,-796.7889 1580.5041,-762.5118 1596.7909,-738.6633"/>
<polygon fill="#000000" stroke="#000000" points="1599.6892,-740.6255 1602.4385,-730.3936 1593.9086,-736.6777 1599.6892,-740.6255"/>
</g>
<!-- vd&#45;&gt;api.vtbs.moe -->
<g id="edge29" class="edge">
<title>vd&#45;&gt;api.vtbs.moe</title>
<path fill="none" stroke="#000000" stroke-dasharray="1,5" d="M571.139,-454.9497C578.7602,-417.1572 591.1308,-328.2264 555,-268 542.7325,-247.5513 484.728,-235.0552 437.8319,-228.1409"/>
<polygon fill="#000000" stroke="#000000" points="438.1027,-224.6444 427.7108,-226.7081 437.1215,-231.5753 438.1027,-224.6444"/>
</g>
<!-- vd&#45;&gt;Snake -->
<g id="edge15" class="edge">
<title>vd&#45;&gt;Snake</title>
<path fill="none" stroke="#000000" d="M545.1636,-462.1138C526.9296,-453.0159 500.2567,-439.6895 477,-428 456.3322,-417.6118 433.1619,-405.9058 414.8782,-396.6548"/>
<polygon fill="#000000" stroke="#000000" points="416.3044,-393.4539 405.8015,-392.0608 413.1433,-399.6995 416.3044,-393.4539"/>
</g>
<!-- vd&#45;&gt;eagle -->
<g id="edge16" class="edge">
<title>vd&#45;&gt;eagle</title>
<path fill="none" stroke="#000000" d="M594.0156,-473C602.3079,-473 610.6001,-473 618.8924,-473"/>
<polygon fill="#000000" stroke="#000000" points="619.0071,-476.5001 629.0071,-473 619.007,-469.5001 619.0071,-476.5001"/>
</g>
<!-- falcon -->
<g id="node26" class="node">
<title>falcon</title>
<ellipse fill="none" stroke="#000000" cx="654" cy="-294" rx="32.4063" ry="18"/>
<text text-anchor="middle" x="654" y="-289.8" font-family="Times,serif" font-size="14.00" fill="#000000">falcon</text>
</g>
<!-- eagle&#45;&gt;falcon -->
<g id="edge5" class="edge">
<title>eagle&#45;&gt;falcon</title>
<path fill="none" stroke="#000000" d="M657.5944,-454.8515C656.8967,-423.6258 655.4641,-359.5184 654.6337,-322.3564"/>
<polygon fill="#000000" stroke="#000000" points="658.1293,-322.1159 654.4066,-312.1966 651.131,-322.2723 658.1293,-322.1159"/>
</g>
<!-- falcon&#45;&gt;api.vtbs.moe -->
<g id="edge22" class="edge">
<title>falcon&#45;&gt;api.vtbs.moe</title>
<path fill="none" stroke="#000000" d="M638.3743,-277.9696C630.0638,-270.4026 619.2531,-261.9626 608,-257 578.4552,-243.9709 496.8243,-233.3274 438.5328,-227.0781"/>
<polygon fill="#000000" stroke="#000000" points="438.6135,-223.5673 428.3018,-226.0004 437.8801,-230.5288 438.6135,-223.5673"/>
</g>
<!-- falcon&#45;&gt;Hawk -->
<g id="edge21" class="edge">
<title>falcon&#45;&gt;Hawk</title>
<path fill="none" stroke="#000000" d="M622.7739,-299.3436C566.3189,-309.1471 443.6042,-331.1105 341,-354 319.8335,-358.7219 296.3722,-364.6532 277.2922,-369.6579"/>
<polygon fill="#000000" stroke="#000000" points="276.2419,-366.3152 267.4681,-372.2541 278.0304,-373.0829 276.2419,-366.3152"/>
</g>
</g>
</svg>
