<?xml version="1.0" encoding="UTF-8" standalone="no"?>
<!DOCTYPE svg PUBLIC "-//W3C//DTD SVG 1.1//EN"
 "http://www.w3.org/Graphics/SVG/1.1/DTD/svg11.dtd">
<!-- Generated by graphviz version 2.40.1 (20161225.0304)
 -->
<!-- Title: %3 Pages: 1 -->
<svg width="1545pt" height="862pt"
 viewBox="0.00 0.00 1545.00 862.00" xmlns="http://www.w3.org/2000/svg" xmlns:xlink="http://www.w3.org/1999/xlink">
<g id="graph0" class="graph" transform="scale(1 1) rotate(0) translate(4 858)">
<title>%3</title>
<polygon fill="#ffffff" stroke="transparent" points="-4,4 -4,-858 1541,-858 1541,4 -4,4"/>
<g id="clust1" class="cluster">
<title>cluster_bilibili_package</title>
<polygon fill="none" stroke="#000000" points="503,-352 503,-753 1178,-753 1178,-352 503,-352"/>
<text text-anchor="middle" x="840.5" y="-737.8" font-family="Times,serif" font-size="14.00" fill="#000000">Extenal</text>
</g>
<g id="clust2" class="cluster">
<title>cluster_bilibili&#45;</title>
<polygon fill="none" stroke="#000000" points="610,-649 610,-723 1170,-723 1170,-649 610,-649"/>
<text text-anchor="middle" x="890" y="-707.8" font-family="Times,serif" font-size="14.00" fill="#000000">bilibili.com</text>
</g>
<g id="clust3" class="cluster">
<title>cluster_vtbs.moe</title>
<polygon fill="none" stroke="#000000" points="171,-8 171,-426 495,-426 495,-8 171,-8"/>
<text text-anchor="middle" x="333" y="-410.8" font-family="Times,serif" font-size="14.00" fill="#000000">vtbs.moe</text>
</g>
<g id="clust4" class="cluster">
<title>cluster_open_api</title>
<polygon fill="none" stroke="#000000" points="179,-16 179,-90 393,-90 393,-16 179,-16"/>
<text text-anchor="middle" x="286" y="-74.8" font-family="Times,serif" font-size="14.00" fill="#000000">api.vtbs.moe Public API</text>
</g>
<g id="clust5" class="cluster">
<title>cluster_bilibili&#45;vtuber&#45;danmaku</title>
<polygon fill="none" stroke="#000000" points="1323,-772 1323,-846 1529,-846 1529,-772 1323,-772"/>
<text text-anchor="middle" x="1426" y="-830.8" font-family="Times,serif" font-size="14.00" fill="#000000">bilibili&#45;vtuber&#45;danmaku (inactive)</text>
</g>
<g id="clust6" class="cluster">
<title>cluster_bilibili&#45;vtuber&#45;danmaku&#45;relay</title>
<polygon fill="none" stroke="#000000" points="255,-445 255,-519 462,-519 462,-445 255,-445"/>
<text text-anchor="middle" x="358.5" y="-503.8" font-family="Times,serif" font-size="14.00" fill="#000000">bilibili&#45;vtuber&#45;live&#45;danmaku&#45;relay</text>
</g>
<g id="clust7" class="cluster">
<title>cluster_influx&#45;bilibili&#45;vtuber&#45;danmaku</title>
<polygon fill="none" stroke="#000000" points="8,-109 8,-183 163,-183 163,-109 8,-109"/>
<text text-anchor="middle" x="85.5" y="-167.8" font-family="Times,serif" font-size="14.00" fill="#000000">influx&#45;danmaku&#45;recorder</text>
</g>
<!-- dictionary -->
<g id="node1" class="node">
<title>dictionary</title>
<polygon fill="none" stroke="#000000" points="591.2592,-816 518.7408,-816 518.7408,-780 591.2592,-780 591.2592,-816"/>
<text text-anchor="middle" x="555" y="-793.8" font-family="Times,serif" font-size="14.00" fill="#000000">dictionary</text>
</g>
<!-- nodejieba -->
<g id="node9" class="node">
<title>nodejieba</title>
<ellipse fill="none" stroke="#000000" cx="555" cy="-675" rx="44.4664" ry="18"/>
<text text-anchor="middle" x="555" y="-670.8" font-family="Times,serif" font-size="14.00" fill="#000000">nodejieba</text>
</g>
<!-- dictionary&#45;&gt;nodejieba -->
<g id="edge17" class="edge">
<title>dictionary&#45;&gt;nodejieba</title>
<path fill="none" stroke="#000000" d="M555,-779.8509C555,-759.6843 555,-726.8643 555,-703.3133"/>
<polygon fill="#000000" stroke="#000000" points="558.5001,-703.2235 555,-693.2235 551.5001,-703.2236 558.5001,-703.2235"/>
</g>
<!-- txt_to_csv -->
<g id="node2" class="node">
<title>txt_to_csv</title>
<polygon fill="none" stroke="#000000" points="925.3318,-816 850.6682,-816 850.6682,-780 925.3318,-780 925.3318,-816"/>
<text text-anchor="middle" x="888" y="-793.8" font-family="Times,serif" font-size="14.00" fill="#000000">txt_to_csv</text>
</g>
<!-- bilibili&#45;live&#45;noscript -->
<g id="node3" class="node">
<title>bilibili&#45;live&#45;noscript</title>
<polygon fill="none" stroke="#000000" points="1314.259,-693 1185.741,-693 1185.741,-657 1314.259,-657 1314.259,-693"/>
<text text-anchor="middle" x="1250" y="-670.8" font-family="Times,serif" font-size="14.00" fill="#000000">bilibili&#45;live&#45;noscript</text>
</g>
<!-- bilibili&#45;vtuber&#45;videos&#45;danmaku -->
<g id="node4" class="node">
<title>bilibili&#45;vtuber&#45;videos&#45;danmaku</title>
<polygon fill="none" stroke="#000000" points="713.1858,-153 522.8142,-153 522.8142,-117 713.1858,-117 713.1858,-153"/>
<text text-anchor="middle" x="618" y="-130.8" font-family="Times,serif" font-size="14.00" fill="#000000">bilibili&#45;vtuber&#45;videos&#45;danmaku</text>
</g>
<!-- script&#45;anti&#45;back&#45;end -->
<g id="node5" class="node">
<title>script&#45;anti&#45;back&#45;end</title>
<polygon fill="none" stroke="#000000" points="1314.2249,-816 1185.7751,-816 1185.7751,-780 1314.2249,-780 1314.2249,-816"/>
<text text-anchor="middle" x="1250" y="-793.8" font-family="Times,serif" font-size="14.00" fill="#000000">script&#45;anti&#45;back&#45;end</text>
</g>
<!-- script&#45;anti&#45;back&#45;end&#45;&gt;bilibili&#45;live&#45;noscript -->
<g id="edge19" class="edge">
<title>script&#45;anti&#45;back&#45;end&#45;&gt;bilibili&#45;live&#45;noscript</title>
<path fill="none" stroke="#000000" d="M1250,-779.8509C1250,-759.6843 1250,-726.8643 1250,-703.3133"/>
<polygon fill="#000000" stroke="#000000" points="1253.5001,-703.2235 1250,-693.2235 1246.5001,-703.2236 1253.5001,-703.2235"/>
</g>
<!-- bili&#45;api -->
<g id="node6" class="node">
<title>bili&#45;api</title>
<ellipse fill="none" stroke="#000000" cx="664" cy="-378" rx="35.7974" ry="18"/>
<text text-anchor="middle" x="664" y="-373.8" font-family="Times,serif" font-size="14.00" fill="#000000">bili&#45;api</text>
</g>
<!-- bili&#45;api&#45;&gt;bilibili&#45;vtuber&#45;videos&#45;danmaku -->
<g id="edge12" class="edge">
<title>bili&#45;api&#45;&gt;bilibili&#45;vtuber&#45;videos&#45;danmaku</title>
<path fill="none" stroke="#000000" d="M660.5425,-359.7355C652.5643,-317.5896 632.8244,-213.3115 623.3035,-163.0163"/>
<polygon fill="#000000" stroke="#000000" points="626.7338,-162.3194 621.4348,-153.145 619.856,-163.6215 626.7338,-162.3194"/>
</g>
<!-- api.vtbs.moe -->
<g id="node13" class="node">
<title>api.vtbs.moe</title>
<ellipse fill="none" stroke="#000000" cx="409" cy="-241" rx="55.1008" ry="18"/>
<text text-anchor="middle" x="409" y="-236.8" font-family="Times,serif" font-size="14.00" fill="#000000">api.vtbs.moe</text>
</g>
<!-- bili&#45;api&#45;&gt;api.vtbs.moe -->
<g id="edge7" class="edge">
<title>bili&#45;api&#45;&gt;api.vtbs.moe</title>
<path fill="none" stroke="#000000" d="M642.3108,-363.5253C610.8608,-342.8717 550.3991,-304.4154 496,-277 482.9617,-270.4291 468.4306,-264.061 455.0357,-258.554"/>
<polygon fill="#000000" stroke="#000000" points="456.1034,-255.2104 445.5206,-254.7057 453.4788,-261.6998 456.1034,-255.2104"/>
</g>
<!-- bilibili&#45;live&#45;ws -->
<g id="node7" class="node">
<title>bilibili&#45;live&#45;ws</title>
<ellipse fill="none" stroke="#000000" cx="746" cy="-564" rx="62.8425" ry="18"/>
<text text-anchor="middle" x="746" y="-559.8" font-family="Times,serif" font-size="14.00" fill="#000000">bilibili&#45;live&#45;ws</text>
</g>
<!-- bilibili&#45;live&#45;ws&#45;&gt;bili&#45;api -->
<g id="edge6" class="edge">
<title>bilibili&#45;live&#45;ws&#45;&gt;bili&#45;api</title>
<path fill="none" stroke="#000000" d="M737.9882,-545.8269C723.5237,-513.0171 692.9785,-443.7318 676.0071,-405.2356"/>
<polygon fill="#000000" stroke="#000000" points="679.0403,-403.4393 671.8036,-395.7009 672.6351,-406.2631 679.0403,-403.4393"/>
</g>
<!-- vd -->
<g id="node21" class="node">
<title>vd</title>
<ellipse fill="none" stroke="#000000" cx="410" cy="-471" rx="27" ry="18"/>
<text text-anchor="middle" x="410" y="-466.8" font-family="Times,serif" font-size="14.00" fill="#000000">vd</text>
</g>
<!-- bilibili&#45;live&#45;ws&#45;&gt;vd -->
<g id="edge9" class="edge">
<title>bilibili&#45;live&#45;ws&#45;&gt;vd</title>
<path fill="none" stroke="#000000" d="M686.2667,-558.4361C635.3868,-552.4518 560.9008,-540.7164 499,-519 477.615,-511.4976 455.1659,-499.3557 438.1638,-489.1613"/>
<polygon fill="#000000" stroke="#000000" points="439.6748,-485.9823 429.32,-483.74 436.0164,-491.9503 439.6748,-485.9823"/>
</g>
<!-- BiliChat -->
<g id="node8" class="node">
<title>BiliChat</title>
<ellipse fill="none" stroke="#000000" cx="977" cy="-564" rx="40.1576" ry="18"/>
<text text-anchor="middle" x="977" y="-559.8" font-family="Times,serif" font-size="14.00" fill="#000000">BiliChat</text>
</g>
<!-- vtbs.moe -->
<g id="node16" class="node">
<title>vtbs.moe</title>
<ellipse fill="none" stroke="#000000" cx="445" cy="-42" rx="42.0717" ry="18"/>
<text text-anchor="middle" x="445" y="-37.8" font-family="Times,serif" font-size="14.00" fill="#000000">vtbs.moe</text>
</g>
<!-- BiliChat&#45;&gt;vtbs.moe -->
<g id="edge21" class="edge">
<title>BiliChat&#45;&gt;vtbs.moe</title>
<path fill="none" stroke="#000000" d="M959.8991,-547.5608C943.7538,-530.198 922,-501.2004 922,-471 922,-471 922,-471 922,-135 922,-92.0186 619.7786,-58.5384 496.4616,-46.6663"/>
<polygon fill="#000000" stroke="#000000" points="496.7832,-43.1812 486.4962,-45.7166 496.119,-50.1496 496.7832,-43.1812"/>
</g>
<!-- Hawk -->
<g id="node14" class="node">
<title>Hawk</title>
<ellipse fill="none" stroke="#000000" cx="212" cy="-378" rx="31.4549" ry="18"/>
<text text-anchor="middle" x="212" y="-373.8" font-family="Times,serif" font-size="14.00" fill="#000000">Hawk</text>
</g>
<!-- nodejieba&#45;&gt;Hawk -->
<g id="edge18" class="edge">
<title>nodejieba&#45;&gt;Hawk</title>
<path fill="none" stroke="#000000" d="M510.5119,-673.8184C401.1466,-670.3238 128,-657.7655 128,-619.5 128,-619.5 128,-619.5 128,-471 128,-438.4463 156.6951,-412.1765 180.5423,-395.9657"/>
<polygon fill="#000000" stroke="#000000" points="182.5575,-398.8305 189.0466,-390.4554 178.7511,-392.9559 182.5575,-398.8305"/>
</g>
<!-- api.bilibili.com -->
<g id="node10" class="node">
<title>api.bilibili.com</title>
<ellipse fill="none" stroke="#000000" cx="682" cy="-675" rx="64.2873" ry="18"/>
<text text-anchor="middle" x="682" y="-670.8" font-family="Times,serif" font-size="14.00" fill="#000000">api.bilibili.com</text>
</g>
<!-- api.bilibili.com&#45;&gt;bili&#45;api -->
<g id="edge4" class="edge">
<title>api.bilibili.com&#45;&gt;bili&#45;api</title>
<path fill="none" stroke="#000000" d="M673,-656.9743C668.5,-646.3408 664,-632.4658 664,-619.5 664,-619.5 664,-619.5 664,-471 664,-449.27 664,-424.6839 664,-406.2508"/>
<polygon fill="#000000" stroke="#000000" points="667.5001,-406.1767 664,-396.1767 660.5001,-406.1768 667.5001,-406.1767"/>
</g>
<!-- api.live.bilibili.com -->
<g id="node11" class="node">
<title>api.live.bilibili.com</title>
<ellipse fill="none" stroke="#000000" cx="844" cy="-675" rx="79.7307" ry="18"/>
<text text-anchor="middle" x="844" y="-670.8" font-family="Times,serif" font-size="14.00" fill="#000000">api.live.bilibili.com</text>
</g>
<!-- api.live.bilibili.com&#45;&gt;bili&#45;api -->
<g id="edge5" class="edge">
<title>api.live.bilibili.com&#45;&gt;bili&#45;api</title>
<path fill="none" stroke="#000000" d="M841,-656.5539C839.5,-645.7802 838,-631.9052 838,-619.5 838,-619.5 838,-619.5 838,-471 838,-412.5567 760.7044,-390.7056 709.1489,-382.6312"/>
<polygon fill="#000000" stroke="#000000" points="709.6097,-379.1615 699.2115,-381.1932 708.6072,-386.0893 709.6097,-379.1615"/>
</g>
<!-- broadcastlv.chat.bilibili.com -->
<g id="node12" class="node">
<title>broadcastlv.chat.bilibili.com</title>
<ellipse fill="none" stroke="#000000" cx="1052" cy="-675" rx="110.4362" ry="18"/>
<text text-anchor="middle" x="1052" y="-670.8" font-family="Times,serif" font-size="14.00" fill="#000000">broadcastlv.chat.bilibili.com</text>
</g>
<!-- broadcastlv.chat.bilibili.com&#45;&gt;bilibili&#45;live&#45;ws -->
<g id="edge8" class="edge">
<title>broadcastlv.chat.bilibili.com&#45;&gt;bilibili&#45;live&#45;ws</title>
<path fill="none" stroke="#000000" d="M1006.5191,-658.502C949.7036,-637.8925 852.8903,-602.7739 794.638,-581.6432"/>
<polygon fill="#000000" stroke="#000000" points="795.5246,-578.2417 784.9304,-578.1218 793.1375,-584.8221 795.5246,-578.2417"/>
</g>
<!-- broadcastlv.chat.bilibili.com&#45;&gt;BiliChat -->
<g id="edge20" class="edge">
<title>broadcastlv.chat.bilibili.com&#45;&gt;BiliChat</title>
<path fill="none" stroke="#000000" d="M1039.6153,-656.6706C1027.2928,-638.4334 1008.2744,-610.2861 994.43,-589.7963"/>
<polygon fill="#000000" stroke="#000000" points="997.1608,-587.5864 988.6622,-581.26 991.3607,-591.5054 997.1608,-587.5864"/>
</g>
<!-- api.vtbs.moe&#45;&gt;bilibili&#45;vtuber&#45;videos&#45;danmaku -->
<g id="edge11" class="edge">
<title>api.vtbs.moe&#45;&gt;bilibili&#45;vtuber&#45;videos&#45;danmaku</title>
<path fill="none" stroke="#000000" d="M438.9446,-225.8128C474.0241,-208.0212 532.4919,-178.3677 573.0284,-157.8086"/>
<polygon fill="#000000" stroke="#000000" points="574.8198,-160.8245 582.1552,-153.1797 571.6535,-154.5815 574.8198,-160.8245"/>
<text text-anchor="middle" x="525.0879" y="-193.8" font-family="Times,serif" font-size="14.00" fill="#000000">vtbs.js</text>
</g>
<!-- api.vtbs.moe&#45;&gt;vtbs.moe -->
<g id="edge3" class="edge">
<title>api.vtbs.moe&#45;&gt;vtbs.moe</title>
<path fill="none" stroke="#000000" d="M412.2583,-222.9891C418.5475,-188.2237 432.4011,-111.6438 439.9144,-70.112"/>
<polygon fill="#000000" stroke="#000000" points="443.387,-70.5769 441.7232,-60.1136 436.4988,-69.3308 443.387,-70.5769"/>
</g>
<!-- /v1 -->
<g id="node17" class="node">
<title>/v1</title>
<ellipse fill="none" stroke="#000000" cx="358" cy="-42" rx="27" ry="18"/>
<text text-anchor="middle" x="358" y="-37.8" font-family="Times,serif" font-size="14.00" fill="#000000">/v1</text>
</g>
<!-- api.vtbs.moe&#45;&gt;/v1 -->
<g id="edge23" class="edge">
<title>api.vtbs.moe&#45;&gt;/v1</title>
<path fill="none" stroke="#000000" stroke-dasharray="1,5" d="M404.3841,-222.9891C395.4329,-188.0617 375.6653,-110.9291 365.0564,-69.5337"/>
<polygon fill="#000000" stroke="#000000" points="368.4418,-68.6448 362.5687,-59.8268 361.6609,-70.3827 368.4418,-68.6448"/>
</g>
<!-- /vds -->
<g id="node19" class="node">
<title>/vds</title>
<ellipse fill="none" stroke="#000000" cx="214" cy="-42" rx="27" ry="18"/>
<text text-anchor="middle" x="214" y="-37.8" font-family="Times,serif" font-size="14.00" fill="#000000">/vds</text>
</g>
<!-- api.vtbs.moe&#45;&gt;/vds -->
<g id="edge24" class="edge">
<title>api.vtbs.moe&#45;&gt;/vds</title>
<path fill="none" stroke="#000000" stroke-dasharray="1,5" d="M389.1414,-224.0819C358.0016,-197.1376 296.4469,-142.1783 250,-90 243.6281,-82.8418 237.1866,-74.6294 231.5484,-67.0449"/>
<polygon fill="#000000" stroke="#000000" points="234.0658,-64.5559 225.3511,-58.5306 228.4063,-68.6754 234.0658,-64.5559"/>
</g>
<!-- api.vtbs.moe&#45;&gt;vd -->
<g id="edge10" class="edge">
<title>api.vtbs.moe&#45;&gt;vd</title>
<path fill="none" stroke="#000000" d="M412.3316,-259.261C414.1088,-269.9314 416.1088,-283.6814 417,-296 420.7319,-347.5837 416.4145,-407.8755 413.0966,-442.5318"/>
<polygon fill="#000000" stroke="#000000" points="409.5783,-442.5409 412.0659,-452.8395 416.5436,-443.2374 409.5783,-442.5409"/>
<text text-anchor="middle" x="436.0879" y="-330.8" font-family="Times,serif" font-size="14.00" fill="#000000">vtbs.js</text>
</g>
<!-- eagle -->
<g id="node22" class="node">
<title>eagle</title>
<ellipse fill="none" stroke="#000000" cx="126" cy="-135" rx="28.524" ry="18"/>
<text text-anchor="middle" x="126" y="-130.8" font-family="Times,serif" font-size="14.00" fill="#000000">eagle</text>
</g>
<!-- api.vtbs.moe&#45;&gt;eagle -->
<g id="edge16" class="edge">
<title>api.vtbs.moe&#45;&gt;eagle</title>
<path fill="none" stroke="#000000" d="M354.3686,-237.5819C302.7569,-232.2162 224.8422,-218.4284 167,-183 157.6075,-177.2471 149.2707,-168.6135 142.6084,-160.2476"/>
<polygon fill="#000000" stroke="#000000" points="145.3091,-158.0143 136.5271,-152.0875 139.6963,-162.1972 145.3091,-158.0143"/>
</g>
<!-- Hawk&#45;&gt;api.vtbs.moe -->
<g id="edge2" class="edge">
<title>Hawk&#45;&gt;api.vtbs.moe</title>
<path fill="none" stroke="#000000" d="M214.3212,-359.8549C217.6164,-341.3704 225.3752,-313.0667 243.1963,-296 271.0065,-269.367 312.0154,-255.6231 346.2902,-248.5344"/>
<polygon fill="#000000" stroke="#000000" points="347.0652,-251.9496 356.2241,-246.6238 345.743,-245.0756 347.0652,-251.9496"/>
<text text-anchor="middle" x="295.9019" y="-298.8" font-family="Times,serif" font-size="14.00" fill="#000000">Danmaku Analyze</text>
</g>
<!-- Snake -->
<g id="node15" class="node">
<title>Snake</title>
<ellipse fill="none" stroke="#000000" cx="356" cy="-378" rx="31.9393" ry="18"/>
<text text-anchor="middle" x="356" y="-373.8" font-family="Times,serif" font-size="14.00" fill="#000000">Snake</text>
</g>
<!-- Snake&#45;&gt;api.vtbs.moe -->
<g id="edge1" class="edge">
<title>Snake&#45;&gt;api.vtbs.moe</title>
<path fill="none" stroke="#000000" d="M351.9432,-359.9809C348.966,-342.849 346.7488,-316.6968 355.1895,-296 360.0764,-284.0171 368.9704,-273.2273 378.139,-264.4435"/>
<polygon fill="#000000" stroke="#000000" points="380.7135,-266.8361 385.8232,-257.5548 376.0409,-261.6239 380.7135,-266.8361"/>
<text text-anchor="middle" x="385.9053" y="-298.8" font-family="Times,serif" font-size="14.00" fill="#000000">Live Event</text>
</g>
<!-- /vd -->
<g id="node18" class="node">
<title>/vd</title>
<ellipse fill="none" stroke="#000000" cx="286" cy="-42" rx="27" ry="18"/>
<text text-anchor="middle" x="286" y="-37.8" font-family="Times,serif" font-size="14.00" fill="#000000">/vd</text>
</g>
<!-- vdMonster -->
<g id="node20" class="node">
<title>vdMonster</title>
<ellipse fill="none" stroke="#000000" cx="1427" cy="-798" rx="48.3514" ry="18"/>
<text text-anchor="middle" x="1427" y="-793.8" font-family="Times,serif" font-size="14.00" fill="#000000">vdMonster</text>
</g>
<!-- vd&#45;&gt;api.vtbs.moe -->
<g id="edge22" class="edge">
<title>vd&#45;&gt;api.vtbs.moe</title>
<path fill="none" stroke="#000000" stroke-dasharray="1,5" d="M422.1554,-454.4888C440.0785,-428.0917 470.2229,-374.6093 458,-328 452.2121,-305.929 439.4223,-283.5547 428.3609,-267.0237"/>
<polygon fill="#000000" stroke="#000000" points="431.0174,-264.7117 422.449,-258.48 425.2611,-268.6948 431.0174,-264.7117"/>
</g>
<!-- vd&#45;&gt;Hawk -->
<g id="edge13" class="edge">
<title>vd&#45;&gt;Hawk</title>
<path fill="none" stroke="#000000" d="M387.6718,-460.5125C353.0285,-444.2406 286.1105,-412.8095 245.6087,-393.7859"/>
<polygon fill="#000000" stroke="#000000" points="246.9467,-390.5475 236.4074,-389.4641 243.9707,-396.8835 246.9467,-390.5475"/>
</g>
<!-- vd&#45;&gt;Snake -->
<g id="edge14" class="edge">
<title>vd&#45;&gt;Snake</title>
<path fill="none" stroke="#000000" d="M400.0956,-453.9424C392.0017,-440.0028 380.4258,-420.0667 371.1655,-404.1183"/>
<polygon fill="#000000" stroke="#000000" points="374.0727,-402.1549 366.0245,-395.2644 368.0192,-405.6698 374.0727,-402.1549"/>
</g>
<!-- vd&#45;&gt;eagle -->
<g id="edge15" class="edge">
<title>vd&#45;&gt;eagle</title>
<path fill="none" stroke="#000000" d="M383.084,-469.5036C326.6411,-465.8267 198.5082,-454.4855 167,-426 150.5157,-411.0971 153,-400.2222 153,-378 153,-378 153,-378 153,-241 153,-213.5826 144.4125,-183.3761 136.9236,-162.2468"/>
<polygon fill="#000000" stroke="#000000" points="140.1282,-160.8213 133.3779,-152.6553 133.5624,-163.2485 140.1282,-160.8213"/>
</g>
</g>
</svg>
