<?xml version="1.0" encoding="UTF-8" standalone="no"?>
<!DOCTYPE svg PUBLIC "-//W3C//DTD SVG 1.1//EN"
 "http://www.w3.org/Graphics/SVG/1.1/DTD/svg11.dtd">
<!-- Generated by graphviz version 2.40.1 (20161225.0304)
 -->
<!-- Title: %3 Pages: 1 -->
<svg width="1174pt" height="899pt"
 viewBox="0.00 0.00 1174.49 899.00" xmlns="http://www.w3.org/2000/svg" xmlns:xlink="http://www.w3.org/1999/xlink">
<g id="graph0" class="graph" transform="scale(1 1) rotate(0) translate(4 895)">
<title>%3</title>
<polygon fill="#ffffff" stroke="transparent" points="-4,4 -4,-895 1170.4868,-895 1170.4868,4 -4,4"/>
<g id="clust1" class="cluster">
<title>cluster_bilibili_package</title>
<polygon fill="none" stroke="#000000" points="8,-354 8,-790 683,-790 683,-354 8,-354"/>
<text text-anchor="middle" x="345.5" y="-774.8" font-family="Times,serif" font-size="14.00" fill="#000000">Extenal</text>
</g>
<g id="clust2" class="cluster">
<title>cluster_bilibili&#45;</title>
<polygon fill="none" stroke="#000000" points="16,-686 16,-760 576,-760 576,-686 16,-686"/>
<text text-anchor="middle" x="296" y="-744.8" font-family="Times,serif" font-size="14.00" fill="#000000">bilibili.com</text>
</g>
<g id="clust3" class="cluster">
<title>cluster_vtbs.moe</title>
<polygon fill="none" stroke="#000000" points="722,-8 722,-428 982,-428 982,-8 722,-8"/>
<text text-anchor="middle" x="852" y="-412.8" font-family="Times,serif" font-size="14.00" fill="#000000">vtbs.moe</text>
</g>
<g id="clust4" class="cluster">
<title>cluster_open_api</title>
<polygon fill="none" stroke="#000000" points="730,-16 730,-90 882,-90 882,-16 730,-16"/>
<text text-anchor="middle" x="806" y="-74.8" font-family="Times,serif" font-size="14.00" fill="#000000">api.vtbs.moe Public API</text>
</g>
<g id="clust5" class="cluster">
<title>cluster_bilibili&#45;vtuber&#45;danmaku</title>
<polygon fill="none" stroke="#000000" points="908,-809 908,-883 1114,-883 1114,-809 908,-809"/>
<text text-anchor="middle" x="1011" y="-867.8" font-family="Times,serif" font-size="14.00" fill="#000000">bilibili&#45;vtuber&#45;danmaku (inactive)</text>
</g>
<g id="clust6" class="cluster">
<title>cluster_bilibili&#45;vtuber&#45;danmaku&#45;relay</title>
<polygon fill="none" stroke="#000000" points="698,-447 698,-521 905,-521 905,-447 698,-447"/>
<text text-anchor="middle" x="801.5" y="-505.8" font-family="Times,serif" font-size="14.00" fill="#000000">bilibili&#45;vtuber&#45;live&#45;danmaku&#45;relay</text>
</g>
<g id="clust7" class="cluster">
<title>cluster_influx&#45;bilibili&#45;vtuber&#45;danmaku</title>
<polygon fill="none" stroke="#000000" points="990,-268 990,-521 1145,-521 1145,-268 990,-268"/>
<text text-anchor="middle" x="1067.5" y="-505.8" font-family="Times,serif" font-size="14.00" fill="#000000">influx&#45;danmaku&#45;recorder</text>
</g>
<!-- dictionary -->
<g id="node1" class="node">
<title>dictionary</title>
<polygon fill="none" stroke="#000000" points="667.2592,-853 594.7408,-853 594.7408,-817 667.2592,-817 667.2592,-853"/>
<text text-anchor="middle" x="631" y="-830.8" font-family="Times,serif" font-size="14.00" fill="#000000">dictionary</text>
</g>
<!-- nodejieba -->
<g id="node9" class="node">
<title>nodejieba</title>
<ellipse fill="none" stroke="#000000" cx="631" cy="-712" rx="44.4664" ry="18"/>
<text text-anchor="middle" x="631" y="-707.8" font-family="Times,serif" font-size="14.00" fill="#000000">nodejieba</text>
</g>
<!-- dictionary&#45;&gt;nodejieba -->
<g id="edge17" class="edge">
<title>dictionary&#45;&gt;nodejieba</title>
<path fill="none" stroke="#000000" d="M631,-816.8509C631,-796.6843 631,-763.8643 631,-740.3133"/>
<polygon fill="#000000" stroke="#000000" points="634.5001,-740.2235 631,-730.2235 627.5001,-740.2236 634.5001,-740.2235"/>
</g>
<!-- txt_to_csv -->
<g id="node2" class="node">
<title>txt_to_csv</title>
<polygon fill="none" stroke="#000000" points="1012.3318,-730 937.6682,-730 937.6682,-694 1012.3318,-694 1012.3318,-730"/>
<text text-anchor="middle" x="975" y="-707.8" font-family="Times,serif" font-size="14.00" fill="#000000">txt_to_csv</text>
</g>
<!-- bilibili&#45;live&#45;noscript -->
<g id="node3" class="node">
<title>bilibili&#45;live&#45;noscript</title>
<polygon fill="none" stroke="#000000" points="1159.259,-657 1030.741,-657 1030.741,-621 1159.259,-621 1159.259,-657"/>
<text text-anchor="middle" x="1095" y="-634.8" font-family="Times,serif" font-size="14.00" fill="#000000">bilibili&#45;live&#45;noscript</text>
</g>
<!-- bilibili&#45;vtuber&#45;videos&#45;danmaku -->
<g id="node4" class="node">
<title>bilibili&#45;vtuber&#45;videos&#45;danmaku</title>
<polygon fill="none" stroke="#000000" points="616.1858,-153 425.8142,-153 425.8142,-117 616.1858,-117 616.1858,-153"/>
<text text-anchor="middle" x="521" y="-130.8" font-family="Times,serif" font-size="14.00" fill="#000000">bilibili&#45;vtuber&#45;videos&#45;danmaku</text>
</g>
<!-- script&#45;anti&#45;back&#45;end -->
<g id="node5" class="node">
<title>script&#45;anti&#45;back&#45;end</title>
<polygon fill="none" stroke="#000000" points="1159.2249,-730 1030.7751,-730 1030.7751,-694 1159.2249,-694 1159.2249,-730"/>
<text text-anchor="middle" x="1095" y="-707.8" font-family="Times,serif" font-size="14.00" fill="#000000">script&#45;anti&#45;back&#45;end</text>
</g>
<!-- script&#45;anti&#45;back&#45;end&#45;&gt;bilibili&#45;live&#45;noscript -->
<g id="edge22" class="edge">
<title>script&#45;anti&#45;back&#45;end&#45;&gt;bilibili&#45;live&#45;noscript</title>
<path fill="none" stroke="#000000" d="M1095,-693.9551C1095,-685.8828 1095,-676.1764 1095,-667.1817"/>
<polygon fill="#000000" stroke="#000000" points="1098.5001,-667.0903 1095,-657.0904 1091.5001,-667.0904 1098.5001,-667.0903"/>
</g>
<!-- bili&#45;api -->
<g id="node6" class="node">
<title>bili&#45;api</title>
<ellipse fill="none" stroke="#000000" cx="479" cy="-380" rx="35.7974" ry="18"/>
<text text-anchor="middle" x="479" y="-375.8" font-family="Times,serif" font-size="14.00" fill="#000000">bili&#45;api</text>
</g>
<!-- bili&#45;api&#45;&gt;bilibili&#45;vtuber&#45;videos&#45;danmaku -->
<g id="edge13" class="edge">
<title>bili&#45;api&#45;&gt;bilibili&#45;vtuber&#45;videos&#45;danmaku</title>
<path fill="none" stroke="#000000" d="M482.0884,-361.9846C489.3397,-319.6853 507.4969,-213.7678 516.2007,-162.9962"/>
<polygon fill="#000000" stroke="#000000" points="519.6671,-163.4895 517.9071,-153.0418 512.7677,-162.3067 519.6671,-163.4895"/>
</g>
<!-- api.vtbs.moe -->
<g id="node13" class="node">
<title>api.vtbs.moe</title>
<ellipse fill="none" stroke="#000000" cx="785" cy="-221" rx="55.1008" ry="18"/>
<text text-anchor="middle" x="785" y="-216.8" font-family="Times,serif" font-size="14.00" fill="#000000">api.vtbs.moe</text>
</g>
<!-- bili&#45;api&#45;&gt;api.vtbs.moe -->
<g id="edge8" class="edge">
<title>bili&#45;api&#45;&gt;api.vtbs.moe</title>
<path fill="none" stroke="#000000" d="M500.5889,-365.4195C543.5311,-336.5794 638.5707,-273.6007 674,-257 692.2716,-248.4387 713.1276,-241.0899 731.7912,-235.306"/>
<polygon fill="#000000" stroke="#000000" points="733.0519,-238.5815 741.6139,-232.3412 731.0291,-231.8801 733.0519,-238.5815"/>
</g>
<!-- bilibili&#45;live&#45;ws -->
<g id="node7" class="node">
<title>bilibili&#45;live&#45;ws</title>
<ellipse fill="none" stroke="#000000" cx="479" cy="-566" rx="62.8425" ry="18"/>
<text text-anchor="middle" x="479" y="-561.8" font-family="Times,serif" font-size="14.00" fill="#000000">bilibili&#45;live&#45;ws</text>
</g>
<!-- bilibili&#45;live&#45;ws&#45;&gt;bili&#45;api -->
<g id="edge7" class="edge">
<title>bilibili&#45;live&#45;ws&#45;&gt;bili&#45;api</title>
<path fill="none" stroke="#000000" d="M479,-547.8269C479,-515.3238 479,-447.024 479,-408.3233"/>
<polygon fill="#000000" stroke="#000000" points="482.5001,-408.2469 479,-398.2469 475.5001,-408.2469 482.5001,-408.2469"/>
</g>
<!-- vd -->
<g id="node20" class="node">
<title>vd</title>
<ellipse fill="none" stroke="#000000" cx="739" cy="-473" rx="27" ry="18"/>
<text text-anchor="middle" x="739" y="-468.8" font-family="Times,serif" font-size="14.00" fill="#000000">vd</text>
</g>
<!-- bilibili&#45;live&#45;ws&#45;&gt;vd -->
<g id="edge10" class="edge">
<title>bilibili&#45;live&#45;ws&#45;&gt;vd</title>
<path fill="none" stroke="#000000" d="M531.4654,-556.1422C588.4624,-545.1971 673.2716,-528.1339 687,-521 698.7536,-514.8923 709.8301,-505.4157 718.7152,-496.491"/>
<polygon fill="#000000" stroke="#000000" points="721.2813,-498.8715 725.63,-489.2102 716.2056,-494.0509 721.2813,-498.8715"/>
</g>
<!-- BiliChat -->
<g id="node8" class="node">
<title>BiliChat</title>
<ellipse fill="none" stroke="#000000" cx="628" cy="-566" rx="40.1576" ry="18"/>
<text text-anchor="middle" x="628" y="-561.8" font-family="Times,serif" font-size="14.00" fill="#000000">BiliChat</text>
</g>
<!-- vtbs.moe -->
<g id="node16" class="node">
<title>vtbs.moe</title>
<ellipse fill="none" stroke="#000000" cx="932" cy="-42" rx="42.0717" ry="18"/>
<text text-anchor="middle" x="932" y="-37.8" font-family="Times,serif" font-size="14.00" fill="#000000">vtbs.moe</text>
</g>
<!-- BiliChat&#45;&gt;vtbs.moe -->
<g id="edge25" class="edge">
<title>BiliChat&#45;&gt;vtbs.moe</title>
<path fill="none" stroke="#000000" d="M668.2,-565.315C784.2728,-562.9569 1113.9243,-553.4402 1149,-521 1176.9473,-495.1526 1163,-474.5675 1163,-436.5 1163,-436.5 1163,-436.5 1163,-135 1163,-96.0889 1048.7853,-65.9168 980.9787,-51.4329"/>
<polygon fill="#000000" stroke="#000000" points="981.4299,-47.9516 970.9248,-49.3273 979.995,-54.8029 981.4299,-47.9516"/>
</g>
<!-- Hawk -->
<g id="node14" class="node">
<title>Hawk</title>
<ellipse fill="none" stroke="#000000" cx="943" cy="-380" rx="31.4549" ry="18"/>
<text text-anchor="middle" x="943" y="-375.8" font-family="Times,serif" font-size="14.00" fill="#000000">Hawk</text>
</g>
<!-- nodejieba&#45;&gt;Hawk -->
<g id="edge20" class="edge">
<title>nodejieba&#45;&gt;Hawk</title>
<path fill="none" stroke="#000000" d="M674.1879,-707.2342C765.9462,-696.524 972,-669.12 972,-639 972,-639 972,-639 972,-473 972,-449.8826 963.7325,-424.9385 956.0261,-406.7088"/>
<polygon fill="#000000" stroke="#000000" points="959.1166,-405.0445 951.8585,-397.3263 952.7193,-407.8861 959.1166,-405.0445"/>
</g>
<!-- api.bilibili.com -->
<g id="node10" class="node">
<title>api.bilibili.com</title>
<ellipse fill="none" stroke="#000000" cx="88" cy="-712" rx="64.2873" ry="18"/>
<text text-anchor="middle" x="88" y="-707.8" font-family="Times,serif" font-size="14.00" fill="#000000">api.bilibili.com</text>
</g>
<!-- api.bilibili.com&#45;&gt;bili&#45;api -->
<g id="edge5" class="edge">
<title>api.bilibili.com&#45;&gt;bili&#45;api</title>
<path fill="none" stroke="#000000" d="M106.71,-694.6946C119.4453,-680.9724 134,-660.5711 134,-639 134,-639 134,-639 134,-473 134,-411.7128 339.5329,-389.6297 433.3188,-382.7433"/>
<polygon fill="#000000" stroke="#000000" points="433.6503,-386.2287 443.3784,-382.0317 433.1563,-379.2462 433.6503,-386.2287"/>
</g>
<!-- api.live.bilibili.com -->
<g id="node11" class="node">
<title>api.live.bilibili.com</title>
<ellipse fill="none" stroke="#000000" cx="250" cy="-712" rx="79.7307" ry="18"/>
<text text-anchor="middle" x="250" y="-707.8" font-family="Times,serif" font-size="14.00" fill="#000000">api.live.bilibili.com</text>
</g>
<!-- api.live.bilibili.com&#45;&gt;bili&#45;api -->
<g id="edge6" class="edge">
<title>api.live.bilibili.com&#45;&gt;bili&#45;api</title>
<path fill="none" stroke="#000000" d="M278.7566,-695.0753C296.5422,-682.2294 316,-662.7488 316,-639 316,-639 316,-639 316,-473 316,-418.4013 385.8478,-395.4325 434.0972,-386.0794"/>
<polygon fill="#000000" stroke="#000000" points="434.8144,-389.5066 444.0324,-384.2837 433.5693,-382.6182 434.8144,-389.5066"/>
</g>
<!-- broadcastlv.chat.bilibili.com -->
<g id="node12" class="node">
<title>broadcastlv.chat.bilibili.com</title>
<ellipse fill="none" stroke="#000000" cx="458" cy="-712" rx="110.4362" ry="18"/>
<text text-anchor="middle" x="458" y="-707.8" font-family="Times,serif" font-size="14.00" fill="#000000">broadcastlv.chat.bilibili.com</text>
</g>
<!-- broadcastlv.chat.bilibili.com&#45;&gt;bilibili&#45;live&#45;ws -->
<g id="edge9" class="edge">
<title>broadcastlv.chat.bilibili.com&#45;&gt;bilibili&#45;live&#45;ws</title>
<path fill="none" stroke="#000000" d="M460.6172,-693.8042C464.2012,-668.8868 470.6728,-623.8938 474.9025,-594.4877"/>
<polygon fill="#000000" stroke="#000000" points="478.3904,-594.8216 476.3498,-584.4251 471.4617,-593.8249 478.3904,-594.8216"/>
</g>
<!-- broadcastlv.chat.bilibili.com&#45;&gt;BiliChat -->
<g id="edge24" class="edge">
<title>broadcastlv.chat.bilibili.com&#45;&gt;BiliChat</title>
<path fill="none" stroke="#000000" d="M478.8453,-694.0975C509.7901,-667.5215 567.8561,-617.653 601.6879,-588.5975"/>
<polygon fill="#000000" stroke="#000000" points="604.025,-591.2039 609.3309,-582.0334 599.4643,-585.8935 604.025,-591.2039"/>
</g>
<!-- api.vtbs.moe&#45;&gt;bilibili&#45;vtuber&#45;videos&#45;danmaku -->
<g id="edge12" class="edge">
<title>api.vtbs.moe&#45;&gt;bilibili&#45;vtuber&#45;videos&#45;danmaku</title>
<path fill="none" stroke="#000000" d="M745.7616,-208.2178C703.7477,-194.5315 636.3823,-172.5867 586.3435,-156.2861"/>
<polygon fill="#000000" stroke="#000000" points="587.1718,-152.875 576.5794,-153.1054 585.0036,-159.5307 587.1718,-152.875"/>
<text text-anchor="middle" x="686.0879" y="-173.8" font-family="Times,serif" font-size="14.00" fill="#000000">vtbs.js</text>
</g>
<!-- api.vtbs.moe&#45;&gt;vtbs.moe -->
<g id="edge3" class="edge">
<title>api.vtbs.moe&#45;&gt;vtbs.moe</title>
<path fill="none" stroke="#000000" d="M799.3626,-203.5108C825.6239,-171.5327 881.4535,-103.5499 911.6283,-66.8064"/>
<polygon fill="#000000" stroke="#000000" points="914.3689,-68.9841 918.0106,-59.0348 908.9592,-64.5415 914.3689,-68.9841"/>
</g>
<!-- /v1 -->
<g id="node17" class="node">
<title>/v1</title>
<ellipse fill="none" stroke="#000000" cx="841" cy="-42" rx="27" ry="18"/>
<text text-anchor="middle" x="841" y="-37.8" font-family="Times,serif" font-size="14.00" fill="#000000">/v1</text>
</g>
<!-- api.vtbs.moe&#45;&gt;/v1 -->
<g id="edge27" class="edge">
<title>api.vtbs.moe&#45;&gt;/v1</title>
<path fill="none" stroke="#000000" stroke-dasharray="1,5" d="M790.6778,-202.8515C800.5394,-171.3293 820.8844,-106.298 832.4576,-69.3051"/>
<polygon fill="#000000" stroke="#000000" points="835.8277,-70.2548 835.4732,-59.6659 829.147,-68.1647 835.8277,-70.2548"/>
</g>
<!-- /vds -->
<g id="node18" class="node">
<title>/vds</title>
<ellipse fill="none" stroke="#000000" cx="769" cy="-42" rx="27" ry="18"/>
<text text-anchor="middle" x="769" y="-37.8" font-family="Times,serif" font-size="14.00" fill="#000000">/vds</text>
</g>
<!-- api.vtbs.moe&#45;&gt;/vds -->
<g id="edge28" class="edge">
<title>api.vtbs.moe&#45;&gt;/vds</title>
<path fill="none" stroke="#000000" stroke-dasharray="1,5" d="M783.3778,-202.8515C780.5867,-171.6258 774.8564,-107.5184 771.5347,-70.3564"/>
<polygon fill="#000000" stroke="#000000" points="775.003,-69.8452 770.6265,-60.1966 768.0308,-70.4685 775.003,-69.8452"/>
</g>
<!-- api.vtbs.moe&#45;&gt;vd -->
<g id="edge11" class="edge">
<title>api.vtbs.moe&#45;&gt;vd</title>
<path fill="none" stroke="#000000" d="M745.0809,-233.7271C733.0597,-239.2375 720.7507,-246.8197 712,-257 689.8107,-282.8142 694.0358,-296.3611 688.8242,-330 682.2014,-372.7479 704.7817,-419.5707 721.786,-447.6019"/>
<polygon fill="#000000" stroke="#000000" points="719.0032,-449.7515 727.2887,-456.3546 724.9294,-446.0258 719.0032,-449.7515"/>
<text text-anchor="middle" x="706.0879" y="-332.8" font-family="Times,serif" font-size="14.00" fill="#000000">vtbs.js</text>
</g>
<!-- eagle -->
<g id="node21" class="node">
<title>eagle</title>
<ellipse fill="none" stroke="#000000" cx="1030" cy="-473" rx="28.524" ry="18"/>
<text text-anchor="middle" x="1030" y="-468.8" font-family="Times,serif" font-size="14.00" fill="#000000">eagle</text>
</g>
<!-- api.vtbs.moe&#45;&gt;eagle -->
<g id="edge16" class="edge">
<title>api.vtbs.moe&#45;&gt;eagle</title>
<path fill="none" stroke="#000000" d="M838.1917,-226.0376C916.7375,-234.0198 1056.1203,-250.4755 1071,-268 1114.9904,-319.8096 1072.6865,-405.5124 1046.7962,-447.8021"/>
<polygon fill="#000000" stroke="#000000" points="1043.763,-446.0509 1041.4027,-456.3795 1049.6888,-449.7771 1043.763,-446.0509"/>
</g>
<!-- Hawk&#45;&gt;api.vtbs.moe -->
<g id="edge2" class="edge">
<title>Hawk&#45;&gt;api.vtbs.moe</title>
<path fill="none" stroke="#000000" d="M928.1846,-364.0626C915.6714,-350.4537 897.4112,-330.2433 882.1963,-312 866.3333,-292.9796 865.6848,-285.3395 848,-268 838.9413,-259.1182 828.1534,-250.4889 818.0869,-243.1"/>
<polygon fill="#000000" stroke="#000000" points="820.0232,-240.1817 809.8546,-237.2068 815.9485,-245.8736 820.0232,-240.1817"/>
<text text-anchor="middle" x="933.9019" y="-289.8" font-family="Times,serif" font-size="14.00" fill="#000000">Danmaku Analyze</text>
</g>
<!-- Snake -->
<g id="node15" class="node">
<title>Snake</title>
<ellipse fill="none" stroke="#000000" cx="799" cy="-380" rx="31.9393" ry="18"/>
<text text-anchor="middle" x="799" y="-375.8" font-family="Times,serif" font-size="14.00" fill="#000000">Snake</text>
</g>
<!-- Snake&#45;&gt;api.vtbs.moe -->
<g id="edge1" class="edge">
<title>Snake&#45;&gt;api.vtbs.moe</title>
<path fill="none" stroke="#000000" d="M794.7144,-361.9408C791.6953,-348.3084 787.8983,-329.0937 786.1895,-312 784.0971,-291.0706 783.8593,-267.3004 784.1129,-249.3036"/>
<polygon fill="#000000" stroke="#000000" points="787.6146,-249.2489 784.3155,-239.1809 780.616,-249.1088 787.6146,-249.2489"/>
<text text-anchor="middle" x="816.9053" y="-289.8" font-family="Times,serif" font-size="14.00" fill="#000000">Live Event</text>
</g>
<!-- vdMonster -->
<g id="node19" class="node">
<title>vdMonster</title>
<ellipse fill="none" stroke="#000000" cx="1011" cy="-835" rx="48.3514" ry="18"/>
<text text-anchor="middle" x="1011" y="-830.8" font-family="Times,serif" font-size="14.00" fill="#000000">vdMonster</text>
</g>
<!-- vdMonster&#45;&gt;txt_to_csv -->
<g id="edge23" class="edge">
<title>vdMonster&#45;&gt;txt_to_csv</title>
<path fill="none" stroke="#000000" d="M1005.6881,-816.8509C999.7591,-796.5935 990.0932,-763.5684 983.1938,-739.9956"/>
<polygon fill="#000000" stroke="#000000" points="986.5019,-738.8377 980.3337,-730.2235 979.7837,-740.8041 986.5019,-738.8377"/>
</g>
<!-- vdMonster&#45;&gt;script&#45;anti&#45;back&#45;end -->
<g id="edge21" class="edge">
<title>vdMonster&#45;&gt;script&#45;anti&#45;back&#45;end</title>
<path fill="none" stroke="#000000" d="M1023.0352,-817.3771C1037.0954,-796.7889 1060.5041,-762.5118 1076.7909,-738.6633"/>
<polygon fill="#000000" stroke="#000000" points="1079.6892,-740.6255 1082.4385,-730.3936 1073.9086,-736.6777 1079.6892,-740.6255"/>
</g>
<!-- vd&#45;&gt;api.vtbs.moe -->
<g id="edge26" class="edge">
<title>vd&#45;&gt;api.vtbs.moe</title>
<path fill="none" stroke="#000000" stroke-dasharray="1,5" d="M741.661,-454.8152C745.1373,-431.4382 751.5449,-389.6137 758,-354 764.6032,-317.5693 773.2732,-275.7503 778.9846,-248.8847"/>
<polygon fill="#000000" stroke="#000000" points="782.4247,-249.5346 781.091,-239.0241 775.5791,-248.0723 782.4247,-249.5346"/>
</g>
<!-- vd&#45;&gt;Snake -->
<g id="edge14" class="edge">
<title>vd&#45;&gt;Snake</title>
<path fill="none" stroke="#000000" d="M749.7268,-456.3735C758.8278,-442.267 772.0325,-421.7996 782.4819,-405.603"/>
<polygon fill="#000000" stroke="#000000" points="785.4799,-407.4122 787.9601,-397.1118 779.5978,-403.6173 785.4799,-407.4122"/>
</g>
<!-- vd&#45;&gt;eagle -->
<g id="edge15" class="edge">
<title>vd&#45;&gt;eagle</title>
<path fill="none" stroke="#000000" d="M766.2813,-473C841.2087,-473 916.1361,-473 991.0635,-473"/>
<polygon fill="#000000" stroke="#000000" points="991.1558,-476.5001 1001.1558,-473 991.1557,-469.5001 991.1558,-476.5001"/>
</g>
<!-- falcon -->
<g id="node22" class="node">
<title>falcon</title>
<ellipse fill="none" stroke="#000000" cx="1030" cy="-294" rx="32.4063" ry="18"/>
<text text-anchor="middle" x="1030" y="-289.8" font-family="Times,serif" font-size="14.00" fill="#000000">falcon</text>
</g>
<!-- eagle&#45;&gt;falcon -->
<g id="edge4" class="edge">
<title>eagle&#45;&gt;falcon</title>
<path fill="none" stroke="#000000" d="M1030,-454.8515C1030,-423.6258 1030,-359.5184 1030,-322.3564"/>
<polygon fill="#000000" stroke="#000000" points="1033.5001,-322.1965 1030,-312.1966 1026.5001,-322.1966 1033.5001,-322.1965"/>
</g>
<!-- falcon&#45;&gt;api.vtbs.moe -->
<g id="edge19" class="edge">
<title>falcon&#45;&gt;api.vtbs.moe</title>
<path fill="none" stroke="#000000" d="M1009.1855,-279.9449C1002.0687,-275.6225 993.9049,-271.173 986,-268 940.4704,-249.7248 886.156,-237.5548 845.4724,-230.1864"/>
<polygon fill="#000000" stroke="#000000" points="845.8925,-226.7066 835.4364,-228.4158 844.6762,-233.6001 845.8925,-226.7066"/>
</g>
<!-- falcon&#45;&gt;Hawk -->
<g id="edge18" class="edge">
<title>falcon&#45;&gt;Hawk</title>
<path fill="none" stroke="#000000" d="M1014.144,-309.6737C1000.8064,-322.8581 981.5484,-341.8947 966.4315,-356.8378"/>
<polygon fill="#000000" stroke="#000000" points="963.6085,-354.707 958.9571,-364.2263 968.5295,-359.6853 963.6085,-354.707"/>
</g>
</g>
</svg>
